<?xml version="1.0" encoding="UTF-8"?>
<svg version="1.1" xmlns="http://www.w3.org/2000/svg" width="252" height="200">
<path d="M0 0 C83.16 0 166.32 0 252 0 C252 66 252 132 252 200 C168.84 200 85.68 200 0 200 C0 134 0 68 0 0 Z " fill="#FEFDFD" transform="translate(0,0)"/>
<path d="M0 0 C0.66 0 1.32 0 2 0 C2 9.24 2 18.48 2 28 C5.3 28 8.6 28 12 28 C12.66 28.33 13.32 28.66 14 29 C14 29.66 14 30.32 14 31 C15.0725 31.226875 16.145 31.45375 17.25 31.6875 C21.37218701 33.13026545 22.64414523 34.41910075 25 38 C28.25207092 36.58261511 30.31361067 34.87473588 32.75 32.3125 C37.48546529 27.45311599 42.34256152 22.77162566 48 19 C44.90371888 25.89899532 38.4355867 30.59513779 32.796875 35.421875 C32.20390625 35.94265625 31.6109375 36.4634375 31 37 C30.43152344 37.44472656 29.86304688 37.88945313 29.27734375 38.34765625 C27.40255955 40.77283581 27.70614252 42.67403803 27.8125 45.6875 C27.83957031 46.68136719 27.86664063 47.67523438 27.89453125 48.69921875 C27.92933594 49.45847656 27.96414062 50.21773437 28 51 C29.03125 51.061875 30.0625 51.12375 31.125 51.1875 C35.77609085 52.16272873 37.69824137 53.6232014 41 57 C44 62.1 44 62.1 44 65 C54.23 65 64.46 65 75 65 C75 65.66 75 66.32 75 67 C64.77 67 54.54 67 44 67 C43.67 68.98 43.34 70.96 43 73 C40.19437623 78.61124755 36.67421176 80.83892326 31 83 C29.66911204 83.34296665 28.33603067 83.67764781 27 84 C27.85722656 84.845625 28.71445313 85.69125 29.59765625 86.5625 C35.61869911 92.52724677 41.5779837 98.47386402 47 105 C46.67 105.66 46.34 106.32 46 107 C40.69260606 101.78871581 35.46726162 96.57431262 30.66796875 90.88671875 C30.11753906 90.26410156 29.56710938 89.64148438 29 89 C28.34257812 88.11570312 27.68515625 87.23140625 27.0078125 86.3203125 C22.4969264 82.84048608 18.23092552 83.22110633 12.6875 83.1875 C9.160625 83.125625 5.63375 83.06375 2 83 C2 94.55 2 106.1 2 118 C1.67 118 1.34 118 1 118 C1 106.45 1 94.9 1 83 C-14.82161798 81.70162214 -14.82161798 81.70162214 -28.57519531 88.00878906 C-30.8465546 90.58527955 -32.92192573 93.26386888 -35 96 C-36.45987574 97.37714945 -37.95548317 98.71849872 -39.5 100 C-42.11934492 102.23190015 -44.6139174 104.51449729 -47 107 C-47.66 106.67 -48.32 106.34 -49 106 C-35.73588024 92.55390298 -35.73588024 92.55390298 -29.48828125 87.26953125 C-27.87189265 85.92460715 -27.87189265 85.92460715 -26 84 C-26.67546875 83.69707031 -27.3509375 83.39414063 -28.046875 83.08203125 C-37.29119639 78.74040632 -37.29119639 78.74040632 -40 74 C-40.66 71.69 -41.32 69.38 -42 67 C-52.89 67 -63.78 67 -75 67 C-75 66.34 -75 65.68 -75 65 C-64.11 65 -53.22 65 -42 65 C-41.67 63.02 -41.34 61.04 -41 59 C-39.20321178 55.98603266 -37.47870981 53.47870981 -35 51 C-33.68 51 -32.36 51 -31 51 C-30.67 49.68 -30.34 48.36 -30 47 C-29.34 47 -28.68 47 -28 47 C-29.19587227 41.15918482 -31.31686727 38.08162276 -35.75 34.0625 C-40.3866329 29.66421165 -44.34709633 25.27641642 -48 20 C-44.65903964 21.43349005 -42.66845721 23.18343825 -40.25 25.87890625 C-39.5590625 26.63494141 -38.868125 27.39097656 -38.15625 28.16992188 C-36.71680633 29.76713066 -35.27930945 31.36609607 -33.84375 32.96679688 C-33.1528125 33.72154297 -32.461875 34.47628906 -31.75 35.25390625 C-30.81414062 36.29526733 -30.81414062 36.29526733 -29.859375 37.35766602 C-27.82235363 39.15691008 -26.67526259 39.68369496 -24 40 C-22.2675 39.7525 -22.2675 39.7525 -20.5 39.5 C-17.43594998 39.06227857 -15.83917188 38.97789812 -13 40 C-12.773125 39.443125 -12.54625 38.88625 -12.3125 38.3125 C-10.60151785 35.29791241 -8.627627 33.25225171 -6 31 C-4.68 31 -3.36 31 -2 31 C-2 30.34 -2 29.68 -2 29 C-1.34 29 -0.68 29 0 29 C0 19.43 0 9.86 0 0 Z " fill="#F7F7F7" transform="translate(128,41)"/>
<path d="M0 0 C10.23 0 20.46 0 31 0 C31.495 1.98 31.495 1.98 32 4 C32.99 4.33 33.98 4.66 35 5 C35 6.32 35 7.64 35 9 C35.99 9.33 36.98 9.66 38 10 C38 14.62 38 19.24 38 24 C24 24 10 24 -4 24 C-4 23.34 -4 22.68 -4 22 C-2.68 22 -1.36 22 0 22 C0 14.74 0 7.48 0 0 Z " fill="#F9FAFE" transform="translate(188,31)"/>
<path d="M0 0 C9.24 0 18.48 0 28 0 C29.07142857 21.5625 29.07142857 21.5625 25.25 25.8125 C18.37672242 30.20236707 7.54167781 28.34731411 0 28 C0 18.76 0 9.52 0 0 Z " fill="#F0BE10" transform="translate(58,153)"/>
<path d="M0 0 C8.58 0 17.16 0 26 0 C26 8.58 26 17.16 26 26 C17.42 26 8.84 26 0 26 C0 17.42 0 8.84 0 0 Z " fill="#EA9F3A" transform="translate(117,162)"/>
<path d="M0 0 C3.76290733 2.39457739 6.90387348 4.80399843 10 8 C10.886875 8.598125 11.77375 9.19625 12.6875 9.8125 C15 12 15 12 15.9375 15.5 C15.99728562 18.84799469 15.94416968 20.33955728 14 23 C10.99686252 24.50156874 8.20932478 24.09281204 4.875 24.0625 C3.59367187 24.05347656 2.31234375 24.04445313 0.9921875 24.03515625 C0.00476563 24.02355469 -0.98265625 24.01195313 -2 24 C-2 25.65 -2 27.3 -2 29 C-5.84612364 27.43306074 -8.12412231 24.94435097 -11 22 C-12.10331133 21.2279429 -13.20748206 20.4571125 -14.3125 19.6875 C-17.46072134 16.53927866 -17.46072134 16.53927866 -17.6875 12.9375 C-17 9 -17 9 -15.25 6.5 C-10.27152376 4.20224174 -5.39530594 4.69022167 0 5 C0 3.35 0 1.7 0 0 Z " fill="#FDF8F3" transform="translate(57,34)"/>
<path d="M0 0 C2.55949546 1.85342775 2.97918798 2.93756393 4 6 C4.33 5.67 4.66 5.34 5 5 C6.66617115 4.95936168 8.33388095 4.957279 10 5 C12.21474076 10.04468729 11.85072153 12.85910687 10 18 C8.68 18.33 7.36 18.66 6 19 C5.34 17.02 4.68 15.04 4 13 C0.67467889 15.69192661 -0.52454943 19.06546515 -2 23 C-2 23.99 -2 24.98 -2 26 C-0.68 23.36 0.64 20.72 2 18 C2.66 18 3.32 18 4 18 C4 18.66 4 19.32 4 20 C5.65 20.33 7.3 20.66 9 21 C9.66 20.01 10.32 19.02 11 18 C12.65 18.66 14.3 19.32 16 20 C16 20.99 16 21.98 16 23 C14.02 23.33 12.04 23.66 10 24 C9.67 25.32 9.34 26.64 9 28 C4.85534837 29.16177152 0.83794638 29.14690664 -3.4375 29.125 C-4.18837891 29.12886719 -4.93925781 29.13273437 -5.71289062 29.13671875 C-9.60864317 29.12986606 -13.1954934 28.95301756 -17 28 C-16.875 25.1875 -16.875 25.1875 -16 22 C-13.27542515 20.26090967 -11.27517534 19 -8 19 C-8 20.32 -8 21.64 -8 23 C-7.34 23 -6.68 23 -6 23 C-6 24.32 -6 25.64 -6 27 C-5.34 27 -4.68 27 -4 27 C-4.34933594 26.03578125 -4.69867188 25.0715625 -5.05859375 24.078125 C-5.51833086 22.80211997 -5.97796063 21.52607626 -6.4375 20.25 C-6.66759766 19.61578125 -6.89769531 18.9815625 -7.13476562 18.328125 C-9.66655986 11.28313234 -10.22854737 8.15480999 -8 1 C-5.20129973 -0.39935013 -3.09501208 -0.25265405 0 0 Z " fill="#F7C566" transform="translate(193,148)"/>
<path d="M0 0 C4.62 0 9.24 0 14 0 C14 1.32 14 2.64 14 4 C14.99 4.33 15.98 4.66 17 5 C17 9.62 17 14.24 17 19 C14.35409986 19.02684679 11.70846904 19.04676357 9.0625 19.0625 C8.30775391 19.07087891 7.55300781 19.07925781 6.77539062 19.08789062 C4.85005687 19.09652441 2.92464419 19.05224333 1 19 C0 18 0 18 -0.11352539 16.23413086 C-0.10828857 15.48526611 -0.10305176 14.73640137 -0.09765625 13.96484375 C-0.09443359 13.15595703 -0.09121094 12.34707031 -0.08789062 11.51367188 C-0.07951172 10.66353516 -0.07113281 9.81339844 -0.0625 8.9375 C-0.05798828 8.08349609 -0.05347656 7.22949219 -0.04882812 6.34960938 C-0.03700373 4.23304337 -0.01906769 2.11651315 0 0 Z " fill="#BAC0F4" transform="translate(209,36)"/>
<path d="M0 0 C7.66666667 0 15.33333333 0 23 0 C23 3.3 23 6.6 23 10 C19.04 10 15.08 10 11 10 C11 11.65 11 13.3 11 15 C9.35 15 7.7 15 6 15 C5.67 14.34 5.34 13.68 5 13 C4.67 13.66 4.34 14.32 4 15 C2.68 15 1.36 15 0 15 C0 10.05 0 5.1 0 0 Z " fill="#E0D6B5" transform="translate(19,104)"/>
<path d="M0 0 C9.57 0 19.14 0 29 0 C29 2.31 29 4.62 29 7 C19.43 7 9.86 7 0 7 C0 4.69 0 2.38 0 0 Z " fill="#E64E3C" transform="translate(16,94)"/>
<path d="M0 0 C3 0.25 3 0.25 5 2.25 C5.52036436 5.24209508 5.57255472 7.30991251 3.9609375 9.95605469 C2.53859705 11.74921961 1.05029832 13.44138364 -0.5 15.125 C-1.02464844 15.71796875 -1.54929688 16.3109375 -2.08984375 16.921875 C-3.38009569 18.37634082 -4.68832553 19.81482372 -6 21.25 C-7.32 20.92 -8.64 20.59 -10 20.25 C-10.74609375 18.05078125 -10.74609375 18.05078125 -11 15.25 C-9.34765625 12.79296875 -9.34765625 12.79296875 -7.0625 10.4375 C-6.31097656 9.64730469 -5.55945313 8.85710937 -4.78515625 8.04296875 C-4.19605469 7.45128906 -3.60695312 6.85960938 -3 6.25 C-2.34 6.58 -1.68 6.91 -1 7.25 C-1.49371094 7.86488281 -1.98742187 8.47976562 -2.49609375 9.11328125 C-3.13675781 9.92152344 -3.77742187 10.72976562 -4.4375 11.5625 C-5.07558594 12.36300781 -5.71367187 13.16351563 -6.37109375 13.98828125 C-8.16111355 16.23697277 -8.16111355 16.23697277 -9 19.25 C-6.14116069 16.4752442 -3.36491168 13.63837653 -0.6875 10.6875 C-0.17574219 10.12933594 0.33601563 9.57117188 0.86328125 8.99609375 C2.36372088 7.03854476 2.36372088 7.03854476 2 3.25 C-0.30121049 2.80431828 -0.30121049 2.80431828 -3 3.25 C-5.506069 5.55011364 -5.506069 5.55011364 -7.6875 8.5625 C-8.45449219 9.54863281 -9.22148437 10.53476563 -10.01171875 11.55078125 C-13.6722803 16.4036975 -13.6722803 16.4036975 -14 22.25 C-12.18236589 24.45599697 -12.18236589 24.45599697 -9.6328125 24.640625 C-6.07746322 24.11312511 -5.13125795 22.74290182 -2.875 20 C-2.21242187 19.21109375 -1.54984375 18.4221875 -0.8671875 17.609375 C0.33581385 16.08926451 1.5011683 14.53819575 2.6171875 12.953125 C3.07351562 12.39109375 3.52984375 11.8290625 4 11.25 C4.66 11.25 5.32 11.25 6 11.25 C4.5893858 15.51250811 2.53118404 18.21293679 -0.5 21.5 C-1.69109375 22.80710937 -1.69109375 22.80710937 -2.90625 24.140625 C-5.42398478 26.67714884 -6.32592359 27.17673082 -9.875 27.5625 C-13 27.25 -13 27.25 -15.375 25.6875 C-17.6639851 22.25402235 -17.50324859 20.33470102 -17 16.25 C-15.36665209 13.50320368 -13.30637571 11.26113934 -11.125 8.9375 C-10.56941406 8.31810547 -10.01382813 7.69871094 -9.44140625 7.06054688 C-3.328446 0.2773705 -3.328446 0.2773705 0 0 Z " fill="#1AA5FB" transform="translate(225,93.75)"/>
<path d="M0 0 C21.45 0 42.9 0 65 0 C62.38058783 1.74627478 60.96175123 2.38722388 58 3 C58.85722656 3.845625 59.71445313 4.69125 60.59765625 5.5625 C66.61869911 11.52724677 72.5779837 17.47386402 78 24 C77.67 24.66 77.34 25.32 77 26 C71.69260606 20.78871581 66.46726162 15.57431262 61.66796875 9.88671875 C61.11753906 9.26410156 60.56710938 8.64148438 60 8 C59.01386719 6.67355469 59.01386719 6.67355469 58.0078125 5.3203125 C53.4969264 1.84048608 49.23092552 2.22110633 43.6875 2.1875 C38.3971875 2.0946875 38.3971875 2.0946875 33 2 C33 13.55 33 25.1 33 37 C32.67 37 32.34 37 32 37 C32 25.45 32 13.9 32 2 C16.17838202 0.70162214 16.17838202 0.70162214 2.42480469 7.00878906 C0.1534454 9.58527955 -1.92192573 12.26386888 -4 15 C-5.45987574 16.37714945 -6.95548317 17.71849872 -8.5 19 C-11.11934492 21.23190015 -13.6139174 23.51449729 -16 26 C-16.66 25.67 -17.32 25.34 -18 25 C-4.73588024 11.55390298 -4.73588024 11.55390298 1.51171875 6.26953125 C3.12810735 4.92460715 3.12810735 4.92460715 5 3 C3.35 2.34 1.7 1.68 0 1 C0 0.67 0 0.34 0 0 Z " fill="#B3B3B3" transform="translate(97,122)"/>
<path d="M0 0 C1.65 0.33 3.3 0.66 5 1 C5.84454356 4.37817425 6.10844919 6.67465243 5 10 C6.65 10.99 8.3 11.98 10 13 C9.67 13.99 9.34 14.98 9 16 C7.35 16 5.7 16 4 16 C4 16.99 4 17.98 4 19 C-0.0284349 19.18311068 -2.48375245 18.94158017 -6 17 C-6 12.66666667 -6 8.33333333 -6 4 C-5.38125 3.896875 -4.7625 3.79375 -4.125 3.6875 C-1.63473516 3.12474627 -1.63473516 3.12474627 0 0 Z " fill="#8D8482" transform="translate(134,82)"/>
<path d="M0 0 C2.625 -0.1875 2.625 -0.1875 5 0 C5.80078125 2.10546875 5.80078125 2.10546875 6 5 C4.46860436 7.36077819 3.04351815 9.24551361 1.1875 11.3125 C0.72279297 11.86228516 0.25808594 12.41207031 -0.22070312 12.97851562 C-1.42482125 14.36921159 -2.70762156 15.69091877 -4 17 C-4.66 17 -5.32 17 -6 17 C-5.38801624 13.56049636 -4.07941153 11.48435515 -1.9375 8.75 C-1.38964844 8.04359375 -0.84179688 7.3371875 -0.27734375 6.609375 C0.14417969 6.07828125 0.56570312 5.5471875 1 5 C0.236875 5.763125 -0.52625 6.52625 -1.3125 7.3125 C-4 10 -4 10 -5.875 11.5 C-7.30665478 13.05033912 -7.30665478 13.05033912 -6.6875 15.6875 C-6.460625 16.450625 -6.23375 17.21375 -6 18 C-3.11424181 17.60196439 -2.17810487 17.20990931 -0.25 14.9375 C0.36875 13.9784375 0.36875 13.9784375 1 13 C1.99 13.33 2.98 13.66 4 14 C2.78890086 15.51462522 1.55535932 17.01132562 0.3125 18.5 C-0.37199219 19.3353125 -1.05648437 20.170625 -1.76171875 21.03125 C-4 23 -4 23 -6.65234375 23.34765625 C-9 23 -9 23 -10.875 21.9375 C-12.25312785 19.5640576 -12.40623755 17.79956366 -11.91796875 15.10546875 C-10.19997562 11.16505047 -7.0857855 8.29092434 -4.12890625 5.234375 C-1.8707938 2.99291761 -1.8707938 2.99291761 0 0 Z " fill="#EEF7FE" transform="translate(222,96)"/>
<path d="M0 0 C5.75 3.625 5.75 3.625 8 7 C6.8572081 8.16964602 5.71068285 9.33564556 4.5625 10.5 C3.92441406 11.1496875 3.28632812 11.799375 2.62890625 12.46875 C1 14 1 14 0 14 C0 12.35 0 10.7 0 9 C-1.79240663 9.11389875 -3.58394835 9.24147687 -5.375 9.375 C-6.37273438 9.44460937 -7.37046875 9.51421875 -8.3984375 9.5859375 C-11.15508879 9.76363964 -11.15508879 9.76363964 -13 12 C-13.02375926 13.9931567 -13.02375926 13.9931567 -12.625 16.125 C-12.41875 17.40375 -12.2125 18.6825 -12 20 C-15.875 18.125 -15.875 18.125 -17 17 C-17.6899384 9.98562628 -17.6899384 9.98562628 -15.25 6.5 C-10.27152376 4.20224174 -5.39530594 4.69022167 0 5 C0 3.35 0 1.7 0 0 Z " fill="#F88C1F" transform="translate(57,34)"/>
<path d="M0 0 C10.23 0 20.46 0 31 0 C31.495 1.98 31.495 1.98 32 4 C31.34 4 30.68 4 30 4 C30 3.34 30 2.68 30 2 C20.43 2 10.86 2 1 2 C1 8.27 1 14.54 1 21 C7.27 21 13.54 21 20 21 C20 21.99 20 22.98 20 24 C12.08 24 4.16 24 -4 24 C-4 23.34 -4 22.68 -4 22 C-2.68 22 -1.36 22 0 22 C0 14.74 0 7.48 0 0 Z " fill="#2134DE" transform="translate(188,31)"/>
<path d="M0 0 C3.16115776 1.36983503 3.9927092 1.9890638 6 5 C5.68158276 10.94378841 5.68158276 10.94378841 3.8984375 13.70703125 C0.94981249 15.71525116 -1.68013966 15.28403285 -5.1875 15.1875 C-6.45980469 15.16042969 -7.73210938 15.13335937 -9.04296875 15.10546875 C-10.50669922 15.05326172 -10.50669922 15.05326172 -12 15 C-12 16.65 -12 18.3 -12 20 C-14.88437779 18.70700306 -16.87219421 17.34058637 -19 15 C-17.71480435 12.13302508 -16.42870746 10.02392288 -14 8 C-13.34 8 -12.68 8 -12 8 C-12 9.32 -12 10.64 -12 12 C-10.20759337 11.88610125 -8.41605165 11.75852313 -6.625 11.625 C-5.62726562 11.55539063 -4.62953125 11.48578125 -3.6015625 11.4140625 C-0.84491121 11.23636036 -0.84491121 11.23636036 1 9 C1.21676408 5.60402937 1.08073852 3.24221555 0 0 Z " fill="#F88A17" transform="translate(67,43)"/>
<path d="M0 0 C1.66611905 -0.042721 3.33382885 -0.04063832 5 0 C5.33 0.33 5.66 0.66 6 1 C5.91062197 2.52519276 5.75462854 4.04681929 5.5625 5.5625 C5.46066406 6.38878906 5.35882813 7.21507813 5.25390625 8.06640625 C5.17011719 8.70449219 5.08632812 9.34257813 5 10 C6.32 10.33 7.64 10.66 9 11 C9 12.32 9 13.64 9 15 C6.35541621 16.32229189 4.32238699 16.09677194 1.375 16.0625 C0.37210937 16.05347656 -0.63078125 16.04445313 -1.6640625 16.03515625 C-2.43492188 16.02355469 -3.20578125 16.01195313 -4 16 C-4.33 14.68 -4.66 13.36 -5 12 C-3.35 11.34 -1.7 10.68 0 10 C-0.37125 9.0925 -0.7425 8.185 -1.125 7.25 C-2 4 -2 4 -1.125 1.625 C-0.75375 1.08875 -0.3825 0.5525 0 0 Z " fill="#2896EE" transform="translate(123,89)"/>
<path d="M0 0 C4 2 4 2 7 4 C10.9030423 3.69976598 12.98702613 2.38959997 16 0 C16.66 0 17.32 0 18 0 C18 2.97 18 5.94 18 9 C12.06 9 6.12 9 0 9 C0 6.03 0 3.06 0 0 Z " fill="#FDFAF6" transform="translate(121,172)"/>
<path d="M0 0 C1.66611905 -0.042721 3.33382885 -0.04063832 5 0 C6 1 6 1 6.0625 4.0625 C6.041875 5.031875 6.02125 6.00125 6 7 C5.01 7.495 5.01 7.495 4 8 C4.18415432 10.94091587 4.18415432 10.94091587 5 14 C6.73403336 15.57540068 6.73403336 15.57540068 9 16 C10.33568021 15.67619874 11.66923011 15.34342449 13 15 C13.99 15.66 14.98 16.32 16 17 C16.1875 19.625 16.1875 19.625 16 22 C10.07771837 21.6446631 7.14979733 20.24411091 3 16 C-0.58929725 10.8553406 -0.32184254 6.03156758 0 0 Z " fill="#BE432B" transform="translate(120,3)"/>
<path d="M0 0 C0.66 0 1.32 0 2 0 C2 0.66 2 1.32 2 2 C3.65 2.33 5.3 2.66 7 3 C7.66 2.01 8.32 1.02 9 0 C11.475 0.99 11.475 0.99 14 2 C14 2.99 14 3.98 14 5 C12.02 5.33 10.04 5.66 8 6 C7.67 7.32 7.34 8.64 7 10 C3.32589215 11.17571451 -0.16929183 11.07366746 -4 11 C-3.52269162 9.5410574 -3.04308958 8.08286504 -2.5625 6.625 C-2.29566406 5.81289062 -2.02882812 5.00078125 -1.75390625 4.1640625 C-1 2 -1 2 0 0 Z " fill="#3D7DAF" transform="translate(195,166)"/>
<path d="M0 0 C9.24 0 18.48 0 28 0 C27.67 1.32 27.34 2.64 27 4 C18.09 4 9.18 4 0 4 C0 2.68 0 1.36 0 0 Z " fill="#F29A0C" transform="translate(58,153)"/>
<path d="M0 0 C2.55949546 1.85342775 2.97918798 2.93756393 4 6 C4.33 5.67 4.66 5.34 5 5 C6.66617115 4.95936168 8.33388095 4.957279 10 5 C10.33 6.32 10.66 7.64 11 9 C9.865625 9.12375 8.73125 9.2475 7.5625 9.375 C5.7990625 9.684375 5.7990625 9.684375 4 10 C3.67 10.66 3.34 11.32 3 12 C2.34 9.69 1.68 7.38 1 5 C0.01 5.66 -0.98 6.32 -2 7 C-4.32387947 7.39387788 -6.65793749 7.73486085 -9 8 C-8.74438677 5.6568787 -8.40729228 3.32156597 -8 1 C-5.20129973 -0.39935013 -3.09501208 -0.25265405 0 0 Z " fill="#7A7976" transform="translate(193,148)"/>
<path d="M0 0 C3.63 0 7.26 0 11 0 C11 2.97 11 5.94 11 9 C7.26562152 9.87867729 3.83225427 10.08912219 0 10 C0 6.7 0 3.4 0 0 Z " fill="#E3DABC" transform="translate(19,104)"/>
<path d="M0 0 C7.26 0.33 14.52 0.66 22 1 C22 1.99 22 2.98 22 4 C20 6 20 6 17.93701172 6.22705078 C16.69588623 6.21134033 16.69588623 6.21134033 15.4296875 6.1953125 C14.53378906 6.18886719 13.63789063 6.18242188 12.71484375 6.17578125 C11.77769531 6.15902344 10.84054688 6.14226562 9.875 6.125 C8.93011719 6.11597656 7.98523438 6.10695313 7.01171875 6.09765625 C4.67422708 6.07404522 2.33723877 6.04111516 0 6 C0 4.02 0 2.04 0 0 Z " fill="#EC7D71" transform="translate(16,95)"/>
<path d="M0 0 C2.31 0 4.62 0 7 0 C7 4.62 7 9.24 7 14 C4.69 14 2.38 14 0 14 C0 9.38 0 4.76 0 0 Z " fill="#4D5BE4" transform="translate(219,41)"/>
<path d="M0 0 C0.33 0 0.66 0 1 0 C1.495 7.425 1.495 7.425 2 15 C0 13 0 13 -1 8 C-11.89 8 -22.78 8 -34 8 C-34 7.34 -34 6.68 -34 6 C-23.11 6 -12.22 6 -1 6 C-0.67 4.02 -0.34 2.04 0 0 Z " fill="#C4C4C4" transform="translate(87,100)"/>
<path d="M0 0 C2.0625 0.4375 2.0625 0.4375 4 1 C4.62457273 4.43515002 5 7.49064814 5 11 C5.99 11.33 6.98 11.66 8 12 C8.6875 14.0625 8.6875 14.0625 9 16 C4.9715651 16.18311068 2.51624755 15.94158017 -1 14 C-1 1 -1 1 0 0 Z " fill="#ED4F2B" transform="translate(129,85)"/>
<path d="M0 0 C0.99 0.495 0.99 0.495 2 1 C2.33 2.65 2.66 4.3 3 6 C13.23 6 23.46 6 34 6 C34 6.66 34 7.32 34 8 C23.77 8 13.54 8 3 8 C2.67 9.98 2.34 11.96 2 14 C1.67 14 1.34 14 1 14 C0.67 9.38 0.34 4.76 0 0 Z " fill="#C4C4C4" transform="translate(169,100)"/>
<path d="M0 0 C0 1.32 0 2.64 0 4 C0.66 4 1.32 4 2 4 C2.33 5.98 2.66 7.96 3 10 C-1.16138263 10.08159574 -4.9472484 9.98248524 -9 9 C-8.875 6.1875 -8.875 6.1875 -8 3 C-5.27542515 1.26090967 -3.27517534 0 0 0 Z " fill="#3C7BB3" transform="translate(185,167)"/>
<path d="M0 0 C-2.31 0.66 -4.62 1.32 -7 2 C-5.71416016 3.2684375 -5.71416016 3.2684375 -4.40234375 4.5625 C1.61869911 10.52724677 7.5779837 16.47386402 13 23 C12.67 23.66 12.34 24.32 12 25 C6.69260606 19.78871581 1.46726162 14.57431262 -3.33203125 8.88671875 C-3.88246094 8.26410156 -4.43289062 7.64148438 -5 7 C-5.65742188 6.11570313 -6.31484375 5.23140625 -6.9921875 4.3203125 C-11.50164843 0.8415855 -15.76361763 1.21945134 -21.3125 1.1875 C-22.33923828 1.16236328 -23.36597656 1.13722656 -24.42382812 1.11132812 C-26.949604 1.05258915 -29.47365228 1.01621288 -32 1 C-32 0.67 -32 0.34 -32 0 C-27.41701735 -0.19683437 -22.83360802 -0.38085996 -18.25 -0.5625 C-16.29707031 -0.64661133 -16.29707031 -0.64661133 -14.3046875 -0.73242188 C-12.42910156 -0.80493164 -12.42910156 -0.80493164 -10.515625 -0.87890625 C-9.36352539 -0.9260376 -8.21142578 -0.97316895 -7.02441406 -1.02172852 C-4.43687478 -1.00313867 -2.44649046 -0.77962196 0 0 Z " fill="#BBBBBB" transform="translate(162,123)"/>
<path d="M0 0 C0.66 0 1.32 0 2 0 C2 0.66 2 1.32 2 2 C3.7015625 1.9690625 3.7015625 1.9690625 5.4375 1.9375 C9 2 9 2 10 3 C10.04092937 5.33297433 10.04241723 7.66705225 10 10 C7.03 10 4.06 10 1 10 C-1.125 3.375 -1.125 3.375 0 0 Z " fill="#BABABA" transform="translate(128,108)"/>
<path d="M0 0 C3.34096036 1.43349005 5.33154279 3.18343825 7.75 5.87890625 C8.4409375 6.63494141 9.131875 7.39097656 9.84375 8.16992188 C11.28319367 9.76713066 12.72069055 11.36609607 14.15625 12.96679688 C15.19265625 14.09891602 15.19265625 14.09891602 16.25 15.25390625 C16.87390625 15.94814697 17.4978125 16.6423877 18.140625 17.35766602 C20.17764637 19.15691008 21.32473741 19.68369496 24 20 C25.155 19.835 26.31 19.67 27.5 19.5 C30.56405002 19.06227857 32.16082812 18.97789812 35 20 C35.66 18.68 36.32 17.36 37 16 C37 19 37 19 35 22 C32.79296875 22.1875 32.79296875 22.1875 30.1875 22 C25.89878635 21.85104323 23.45871847 22.23302523 20 25 C19.68289062 23.94232422 19.68289062 23.94232422 19.359375 22.86328125 C17.64034414 19.24244901 15.1275763 16.88708189 12.25 14.1875 C7.64457488 9.74173696 3.65670299 5.28190432 0 0 Z " fill="#B9B9B9" transform="translate(80,61)"/>
<path d="M0 0 C0.66 0 1.32 0 2 0 C2 9.24 2 18.48 2 28 C5.3 28 8.6 28 12 28 C12.66 28.66 13.32 29.32 14 30 C8.72 30 3.44 30 -2 30 C-1.34 29.67 -0.68 29.34 0 29 C0 19.43 0 9.86 0 0 Z " fill="#C8C8C8" transform="translate(128,41)"/>
<path d="M0 0 C0.33 0.66 0.66 1.32 1 2 C1.66 2 2.32 2 3 2 C3 1.34 3 0.68 3 0 C3.60328125 0.08378906 4.2065625 0.16757813 4.828125 0.25390625 C6.02695313 0.40666016 6.02695313 0.40666016 7.25 0.5625 C8.03890625 0.66691406 8.8278125 0.77132812 9.640625 0.87890625 C11.98056802 1.11541837 11.98056802 1.11541837 14.109375 0.46484375 C16 0 16 0 19 1 C18.67 2.32 18.34 3.64 18 5 C15.75006641 5.02707139 13.50003905 5.04642829 11.25 5.0625 C9.99703125 5.07410156 8.7440625 5.08570313 7.453125 5.09765625 C4.71463499 5.02021027 2.58119707 4.82780815 0 4 C0 2.68 0 1.36 0 0 Z " fill="#8A8A8A" transform="translate(181,182)"/>
<path d="M0 0 C10.23 0 20.46 0 31 0 C31.33 1.32 31.66 2.64 32 4 C31.34 4 30.68 4 30 4 C30 3.34 30 2.68 30 2 C20.43 2 10.86 2 1 2 C0.67 1.34 0.34 0.68 0 0 Z " fill="#6673E6" transform="translate(188,31)"/>
<path d="M0 0 C1.53508028 2.43338652 2.03088304 3.67124507 1.7578125 6.578125 C1.54898437 7.45984375 1.34015625 8.3415625 1.125 9.25 C0.92132813 10.14203125 0.71765625 11.0340625 0.5078125 11.953125 C0.25644531 12.96632813 0.25644531 12.96632813 0 14 C-1.65 14 -3.3 14 -5 14 C-5.33 13.34 -5.66 12.68 -6 12 C-6.33 12.66 -6.66 13.32 -7 14 C-8.32 14 -9.64 14 -11 14 C-11 12.35 -11 10.7 -11 9 C-9.35 9 -7.7 9 -6 9 C-5.67 8.01 -5.34 7.02 -5 6 C-5 6.99 -5 7.98 -5 9 C-3.68 8.67 -2.36 8.34 -1 8 C-0.67 5.36 -0.34 2.72 0 0 Z " fill="#E9E2C9" transform="translate(30,105)"/>
<path d="M0 0 C0.99 0.99 1.98 1.98 3 3 C2.34 5.31 1.68 7.62 1 10 C-0.32 10.33 -1.64 10.66 -3 11 C-4.85776765 7.86501708 -5.20140476 5.62528568 -5 2 C-3.35 2 -1.7 2 0 2 C0 1.34 0 0.68 0 0 Z " fill="#F8C465" transform="translate(202,156)"/>
<path d="M0 0 C1.485 0.99 1.485 0.99 3 2 C3.66 1.67 4.32 1.34 5 1 C5.99 1.33 6.98 1.66 8 2 C7.34 2 6.68 2 6 2 C6.7734375 3.175625 6.7734375 3.175625 7.5625 4.375 C8.036875 5.24125 8.51125 6.1075 9 7 C8.67 7.66 8.34 8.32 8 9 C5.69 9 3.38 9 1 9 C-1.125 2.25 -1.125 2.25 0 0 Z " fill="#A6A6A5" transform="translate(147,109)"/>
<path d="M0 0 C5.28 0 10.56 0 16 0 C10.58333333 5.41666667 10.58333333 5.41666667 7 6 C4.3857402 4.66019185 2.14867725 3.00006556 0 1 C0 0.67 0 0.34 0 0 Z " fill="#FDFAF6" transform="translate(122,169)"/>
<path d="M0 0 C0.66 0 1.32 0 2 0 C2.66 1.65 3.32 3.3 4 5 C5.65 5 7.3 5 9 5 C8.34 6.32 7.68 7.64 7 9 C4.525 8.01 4.525 8.01 2 7 C2 6.34 2 5.68 2 5 C1.34 5 0.68 5 0 5 C-0.99 7.97 -1.98 10.94 -3 14 C-3.66 13.67 -4.32 13.34 -5 13 C-4.39254603 8.14036821 -2.27241033 4.2594482 0 0 Z " fill="#F8F6F3" transform="translate(195,161)"/>
<path d="M0 0 C0.5775 0.350625 1.155 0.70125 1.75 1.0625 C-2.79701708 3.72416853 -5.99094829 4.46704244 -11.25 4.0625 C-11.91 3.7325 -12.57 3.4025 -13.25 3.0625 C-13.25 2.4025 -13.25 1.7425 -13.25 1.0625 C-13.91 1.0625 -14.57 1.0625 -15.25 1.0625 C-15.25 2.0525 -15.25 3.0425 -15.25 4.0625 C-16.57 4.0625 -17.89 4.0625 -19.25 4.0625 C-18.92 2.7425 -18.59 1.4225 -18.25 0.0625 C-17.43015625 0.07410156 -16.6103125 0.08570312 -15.765625 0.09765625 C-14.68796875 0.10667969 -13.6103125 0.11570312 -12.5 0.125 C-11.43265625 0.13660156 -10.3653125 0.14820312 -9.265625 0.16015625 C-6.35151463 0.17195235 -6.35151463 0.17195235 -4 -0.5 C-2.25 -0.9375 -2.25 -0.9375 0 0 Z " fill="#767676" transform="translate(234.25,126.9375)"/>
<path d="M0 0 C1.65 0 3.3 0 5 0 C6 1 6 1 6.25 3.875 C6 7 6 7 4.6875 8.875 C3 10 3 10 0 10 C0 6.7 0 3.4 0 0 Z " fill="#C04A32" transform="translate(120,3)"/>
<path d="M0 0 C1.65 0 3.3 0 5 0 C5 2.97 5 5.94 5 9 C3.35 9.33 1.7 9.66 0 10 C0 6.7 0 3.4 0 0 Z " fill="#E5A38B" transform="translate(25,104)"/>
<path d="M0 0 C0.66 0 1.32 0 2 0 C2.33 0.99 2.66 1.98 3 3 C3.99 2.34 4.98 1.68 6 1 C8.6875 0.875 8.6875 0.875 11 1 C11 2.65 11 4.3 11 6 C10.01 6.33 9.02 6.66 8 7 C8 6.34 8 5.68 8 5 C6.2984375 5.2784375 6.2984375 5.2784375 4.5625 5.5625 C2.7990625 5.7790625 2.7990625 5.7790625 1 6 C0 5 0 5 -0.0625 2.4375 C-0.041875 1.633125 -0.02125 0.82875 0 0 Z " fill="#AEAEAE" transform="translate(130,31)"/>
<path d="M0 0 C1.65 0 3.3 0 5 0 C5 2.97 5 5.94 5 9 C3.35 9 1.7 9 0 9 C0 6.03 0 3.06 0 0 Z " fill="#FBFBFE" transform="translate(220,43)"/>
<path d="M0 0 C0.66 0.33 1.32 0.66 2 1 C2.99 1 3.98 1 5 1 C7.66666667 1 10.33333333 1 13 1 C13 2.32 13 3.64 13 5 C2 5 2 5 0 4 C-0.33 3.01 -0.66 2.02 -1 1 C-0.67 0.67 -0.34 0.34 0 0 Z " fill="#939393" transform="translate(62,68)"/>
<path d="M0 0 C0.33 1.32 0.66 2.64 1 4 C1.66 4 2.32 4 3 4 C3 3.01 3 2.02 3 1 C6.3 1 9.6 1 13 1 C13 2.32 13 3.64 13 5 C8.71 5 4.42 5 0 5 C0 3.35 0 1.7 0 0 Z " fill="#8F8F8F" transform="translate(121,194)"/>
<path d="M0 0 C1.67542976 0.28604898 3.34385343 0.61781233 5 1 C5 2.98 5 4.96 5 7 C3.34385343 7.38218767 1.67542976 7.71395102 0 8 C-1 7 -1 7 -1.125 4 C-1 1 -1 1 0 0 Z " fill="#757575" transform="translate(113,110)"/>
<path d="M0 0 C0.66 0 1.32 0 2 0 C2.66 0.99 3.32 1.98 4 3 C4.99 3.33 5.98 3.66 7 4 C7.6875 6.0625 7.6875 6.0625 8 8 C4.05272412 8.17942163 1.4019487 8.09350689 -2 6 C-2 5.01 -2 4.02 -2 3 C-1.34 2.67 -0.68 2.34 0 2 C0 1.34 0 0.68 0 0 Z " fill="#EC421B" transform="translate(130,93)"/>
<path d="M0 0 C0.66 0.33 1.32 0.66 2 1 C2 1.99 2 2.98 2 4 C0.3603279 5.36639342 -1.31110128 6.6949419 -3 8 C-5.48792535 10.84334325 -7.46436146 13.54481328 -9 17 C-9.66 15.68 -10.32 14.36 -11 13 C-10.06027344 11.96939453 -10.06027344 11.96939453 -9.1015625 10.91796875 C-8.28429687 10.01691406 -7.46703125 9.11585937 -6.625 8.1875 C-5.81289062 7.29417969 -5.00078125 6.40085937 -4.1640625 5.48046875 C-1.90927093 3.00367326 -1.90927093 3.00367326 0 0 Z " fill="#DDEFFD" transform="translate(222,96)"/>
<path d="M0 0 C0.99 1.485 0.99 1.485 2 3 C2.33 2.67 2.66 2.34 3 2 C4.66617115 1.95936168 6.33388095 1.957279 8 2 C8.33 3.32 8.66 4.64 9 6 C7.865625 6.12375 6.73125 6.2475 5.5625 6.375 C3.7990625 6.684375 3.7990625 6.684375 2 7 C1.67 7.66 1.34 8.32 1 9 C0.67 6.03 0.34 3.06 0 0 Z " fill="#928D83" transform="translate(195,151)"/>
<path d="M0 0 C3.875 0.875 3.875 0.875 5 2 C6.99958364 2.04080783 9.00045254 2.04254356 11 2 C10.01 2.495 10.01 2.495 9 3 C9 3.66 9 4.32 9 5 C5.94152152 5.54372951 3.11227195 6 0 6 C0 4.02 0 2.04 0 0 Z " fill="#919191" transform="translate(203,125)"/>
<path d="M0 0 C3.63 0.33 7.26 0.66 11 1 C10.67 1.66 10.34 2.32 10 3 C9.34 3 8.68 3 8 3 C8 3.66 8 4.32 8 5 C4.66666667 5 1.33333333 5 -2 5 C-1.34 3.35 -0.68 1.7 0 0 Z " fill="#939393" transform="translate(205,61)"/>
<path d="M0 0 C2.64 0 5.28 0 8 0 C7.04578192 1.14926266 6.08647955 2.29430541 5.125 3.4375 C4.59132813 4.07558594 4.05765625 4.71367187 3.5078125 5.37109375 C2 7 2 7 0 8 C0 5.36 0 2.72 0 0 Z " fill="#F29D0E" transform="translate(77,173)"/>
<path d="M0 0 C0 3 0 3 -2 6 C-4.20703125 6.1875 -4.20703125 6.1875 -6.8125 6 C-11.10121365 5.85104323 -13.54128153 6.23302523 -17 9 C-16.875 7.125 -16.875 7.125 -16 5 C-11.07828401 2.47912108 -7.24632587 3.09546106 -2 4 C-1.34 2.68 -0.68 1.36 0 0 Z " fill="#CACACA" transform="translate(117,77)"/>
<path d="M0 0 C3.16115776 1.36983503 3.9927092 1.9890638 6 5 C6.125 7.6875 6.125 7.6875 6 10 C4.02 10.33 2.04 10.66 0 11 C0.33 10.34 0.66 9.68 1 9 C1.14375422 5.62177584 1.07536348 3.22609045 0 0 Z " fill="#F89431" transform="translate(67,43)"/>
<path d="M0 0 C2.97 0.33 5.94 0.66 9 1 C9 1.66 9 2.32 9 3 C8.34 3 7.68 3 7 3 C7 3.66 7 4.32 7 5 C4.69 5 2.38 5 0 5 C0 3.35 0 1.7 0 0 Z " fill="#8C8C8B" transform="translate(194,61)"/>
<path d="M0 0 C2.97 0.495 2.97 0.495 6 1 C6 2.32 6 3.64 6 5 C3.625 5.625 3.625 5.625 1 6 C0.34 5.34 -0.32 4.68 -1 4 C-0.625 1.875 -0.625 1.875 0 0 Z " fill="#A9A9A9" transform="translate(119,31)"/>
<path d="M0 0 C2.475 0.99 2.475 0.99 5 2 C5 2.99 5 3.98 5 5 C2.69 5.33 0.38 5.66 -2 6 C-1.49396008 3.83125748 -1.00016187 2.00032373 0 0 Z " fill="#08B188" transform="translate(204,166)"/>
<path d="M0 0 C1.65 0 3.3 0 5 0 C4.67 3.63 4.34 7.26 4 11 C3.01 11 2.02 11 1 11 C0.67 7.37 0.34 3.74 0 0 Z " fill="#DF7A36" transform="translate(187,166)"/>
<path d="M0 0 C0.66 0 1.32 0 2 0 C2 0.66 2 1.32 2 2 C2.99 2 3.98 2 5 2 C5 3.32 5 4.64 5 6 C3.35 6 1.7 6 0 6 C-0.66 4.68 -1.32 3.36 -2 2 C-1.34 1.34 -0.68 0.68 0 0 Z " fill="#ADADAD" transform="translate(19,128)"/>
<path d="M0 0 C1.485 0.99 1.485 0.99 3 2 C3.99 1.34 4.98 0.68 6 0 C7.32 0 8.64 0 10 0 C10 1.32 10 2.64 10 4 C6.7 4 3.4 4 0 4 C0 2.68 0 1.36 0 0 Z " fill="#7B7B7B" transform="translate(49,69)"/>
<path d="M0 0 C1.32 0 2.64 0 4 0 C4 0.66 4 1.32 4 2 C5.32 2 6.64 2 8 2 C8 2.99 8 3.98 8 5 C5.33333333 5 2.66666667 5 0 5 C0 3.35 0 1.7 0 0 Z " fill="#7A7A7A" transform="translate(63,187)"/>
<path d="M0 0 C0 1.65 0 3.3 0 5 C-0.99 5.33 -1.98 5.66 -3 6 C-3 5.34 -3 4.68 -3 4 C-3.66 4 -4.32 4 -5 4 C-5 3.01 -5 2.02 -5 1 C-3 0 -3 0 0 0 Z " fill="#909090" transform="translate(141,32)"/>
<path d="M0 0 C0.66 0 1.32 0 2 0 C3.1577506 3.47325181 3.06866652 6.36067448 3 10 C2.01 9.67 1.02 9.34 0 9 C-1.125 2.25 -1.125 2.25 0 0 Z " fill="#8E8E8E" transform="translate(128,108)"/>
<path d="M0 0 C1.66611905 -0.042721 3.33382885 -0.04063832 5 0 C6 1 6 1 6.0625 4.0625 C6.041875 5.031875 6.02125 6.00125 6 7 C5.731875 6.360625 5.46375 5.72125 5.1875 5.0625 C4.11332248 2.66868314 4.11332248 2.66868314 1 2 C1 3.98 1 5.96 1 8 C0.67 8 0.34 8 0 8 C0 5.36 0 2.72 0 0 Z " fill="#6B6B6B" transform="translate(120,110)"/>
<path d="M0 0 C1.65 0 3.3 0 5 0 C5 1.32 5 2.64 5 4 C3.35 4 1.7 4 0 4 C0 2.68 0 1.36 0 0 Z " fill="#A4A4A4" transform="translate(38,130)"/>
<path d="M0 0 C0.86625 0.4640625 0.86625 0.4640625 1.75 0.9375 C3.84294184 1.92583364 5.74535275 2.5168613 8 3 C7.34 3 6.68 3 6 3 C5.67 3.66 5.34 4.32 5 5 C4.01 5.33 3.02 5.66 2 6 C1.34 5.67 0.68 5.34 0 5 C0 3.35 0 1.7 0 0 Z " fill="#7B7B7A" transform="translate(25,128)"/>
<path d="M0 0 C1.65 0 3.3 0 5 0 C5 1.32 5 2.64 5 4 C3.35 4 1.7 4 0 4 C0 2.68 0 1.36 0 0 Z " fill="#DACEA7" transform="translate(37,115)"/>
<path d="M0 0 C1.65 0 3.3 0 5 0 C5 1.32 5 2.64 5 4 C3.35 4 1.7 4 0 4 C0 2.68 0 1.36 0 0 Z " fill="#DBCFA8" transform="translate(31,115)"/>
<path d="M0 0 C0.99 0.33 1.98 0.66 3 1 C2.67 2.65 2.34 4.3 2 6 C1.01 5.67 0.02 5.34 -1 5 C-0.67 3.35 -0.34 1.7 0 0 Z " fill="#F2F2F2" transform="translate(114,111)"/>
<path d="M0 0 C1.65 0 3.3 0 5 0 C5 1.32 5 2.64 5 4 C3.35 4 1.7 4 0 4 C0 2.68 0 1.36 0 0 Z " fill="#DBCFA9" transform="translate(31,110)"/>
<path d="M0 0 C0.33 0 0.66 0 1 0 C0.25 6.75 0.25 6.75 -2 9 C-2.6875 7.3125 -2.6875 7.3125 -3 5 C-1.625 2.25 -1.625 2.25 0 0 Z " fill="#F5ECEB" transform="translate(193,166)"/>
<path d="M0 0 C0.99 0.33 1.98 0.66 3 1 C3.33 3.31 3.66 5.62 4 8 C3.34 8 2.68 8 2 8 C2 6.68 2 5.36 2 4 C1.34 4 0.68 4 0 4 C0 2.68 0 1.36 0 0 Z " fill="#EFE1E0" transform="translate(185,167)"/>
<path d="M0 0 C-5.75 3 -5.75 3 -8 3 C-8 1.68 -8 0.36 -8 -1 C-4.59745511 -2.2151946 -3.06748874 -1.86240388 0 0 Z " fill="#5F5F5E" transform="translate(236,128)"/>
<path d="M0 0 C0.99 0.33 1.98 0.66 3 1 C2.01 2.485 2.01 2.485 1 4 C1.66 4 2.32 4 3 4 C3.33 3.34 3.66 2.68 4 2 C4 2.66 4 3.32 4 4 C4.66 4.33 5.32 4.66 6 5 C4.02 5 2.04 5 0 5 C-0.5625 3.0625 -0.5625 3.0625 -1 1 C-0.67 0.67 -0.34 0.34 0 0 Z " fill="#818181" transform="translate(38,68)"/>
<path d="M0 0 C2.31 0.33 4.62 0.66 7 1 C7 2.32 7 3.64 7 5 C5.35 4.67 3.7 4.34 2 4 C2 3.34 2 2.68 2 2 C1.34 2 0.68 2 0 2 C0 1.34 0 0.68 0 0 Z " fill="#959594" transform="translate(185,182)"/>
<path d="M0 0 C1.32 0 2.64 0 4 0 C3.67 1.65 3.34 3.3 3 5 C2.01 4.67 1.02 4.34 0 4 C0 2.68 0 1.36 0 0 Z " fill="#999998" transform="translate(201,183)"/>
<path d="M0 0 C2.64 0.33 5.28 0.66 8 1 C7.34 2.32 6.68 3.64 6 5 C3.5625 4.1875 3.5625 4.1875 1 3 C0.67 2.01 0.34 1.02 0 0 Z " fill="#D6E9E1" transform="translate(196,165)"/>
<path d="M0 0 C2.475 0.495 2.475 0.495 5 1 C4.67 1.99 4.34 2.98 4 4 C2.68 4 1.36 4 0 4 C0 2.68 0 1.36 0 0 Z " fill="#969696" transform="translate(223,127)"/>
<path d="M0 0 C0.33 0.66 0.66 1.32 1 2 C-0.28062485 3.7074998 -1.61767557 5.37373596 -3 7 C-3.66 7 -4.32 7 -5 7 C-5 6.01 -5 5.02 -5 4 C-2.5 1.8125 -2.5 1.8125 0 0 Z " fill="#E3F1FD" transform="translate(221,106)"/>
<path d="M0 0 C0.66 0 1.32 0 2 0 C3.32 2.31 4.64 4.62 6 7 C5.01 7 4.02 7 3 7 C0 2.77777778 0 2.77777778 0 0 Z " fill="#BC3B1E" transform="translate(121,13)"/>
</svg>
