<?xml version="1.0" encoding="UTF-8"?>
<svg version="1.1" xmlns="http://www.w3.org/2000/svg" width="224" height="148">
<path d="M0 0 C73.92 0 147.84 0 224 0 C224 48.84 224 97.68 224 148 C150.08 148 76.16 148 0 148 C0 99.16 0 50.32 0 0 Z " fill="#0F256E" transform="translate(0,0)"/>
<path d="M0 0 C1.51672302 -0.01418472 1.51672302 -0.01418472 3.06408691 -0.02865601 C4.7000885 -0.01954697 4.7000885 -0.01954697 6.36914062 -0.01025391 C7.48977905 -0.01312408 8.61041748 -0.01599426 9.76501465 -0.01895142 C12.13550318 -0.02099387 14.5060085 -0.0154514 16.87646484 -0.00292969 C20.51112446 0.0131206 24.14467197 -0.00277309 27.77929688 -0.02197266 C30.08008059 -0.01999026 32.38086361 -0.01614665 34.68164062 -0.01025391 C35.77230835 -0.0163266 36.86297607 -0.02239929 37.98669434 -0.02865601 C38.99784302 -0.01919952 40.0089917 -0.00974304 41.05078125 0 C42.38622986 0.00358017 42.38622986 0.00358017 43.74865723 0.00723267 C46.02539062 0.38818359 46.02539062 0.38818359 47.8150177 1.54118347 C49.54956156 4.1880559 49.38545458 6.17784341 49.3659668 9.32836914 C49.36562691 11.15992805 49.36562691 11.15992805 49.36528015 13.02848816 C49.3497963 14.34730484 49.33431244 15.66612152 49.31835938 17.02490234 C49.31276305 18.38824497 49.30849312 19.75159364 49.30549622 21.11494446 C49.29405012 24.70061952 49.26458548 28.28592914 49.23138428 31.87145996 C49.20067802 35.53128109 49.18698972 39.19116136 49.171875 42.85107422 C49.13971511 50.03027715 49.08852215 57.20917914 49.02539062 64.38818359 C45.43574431 62.03587286 42.2280734 59.82267158 39.27539062 56.70068359 C36.91382822 54.19131124 36.91382822 54.19131124 34.02539062 52.38818359 C34.52039063 55.35818359 34.52039063 55.35818359 35.02539062 58.38818359 C29.22331278 58.58024505 23.42103772 58.75899936 17.61816406 58.92529297 C15.64311664 58.98378401 13.66817445 59.04594576 11.69335938 59.11181641 C8.85891882 59.20572859 6.0243651 59.28654314 3.18945312 59.36474609 C2.30295074 59.39694244 1.41644836 59.42913879 0.50308228 59.46231079 C-1.65563769 59.51536953 -3.81647659 59.46132721 -5.97460938 59.38818359 C-8.54520563 56.81758733 -8.23186688 55.82375952 -8.24926758 52.25170898 C-8.25879959 51.18042252 -8.2683316 50.10913605 -8.27815247 49.00538635 C-8.27724106 47.843936 -8.27632965 46.68248566 -8.27539062 45.48583984 C-8.27967575 44.29719833 -8.28396088 43.10855682 -8.28837585 41.88389587 C-8.29412756 39.36620725 -8.29461327 36.84850201 -8.2902832 34.33081055 C-8.28712525 30.4700902 -8.3105662 26.61013712 -8.3359375 22.74951172 C-8.33821052 20.3074554 -8.33891398 17.86539701 -8.33789062 15.42333984 C-8.34710037 14.26391373 -8.35631012 13.10448761 -8.36579895 11.90992737 C-8.35957016 10.83548874 -8.35334137 9.76105011 -8.34692383 8.65405273 C-8.34755325 7.70744278 -8.34818268 6.76083282 -8.34883118 5.78553772 C-7.97460938 3.38818359 -7.97460938 3.38818359 -6.76225281 1.58332825 C-4.39304653 -0.00062533 -2.84201141 0.00761907 0 0 Z " fill="#0E246D" transform="translate(91.974609375,35.61181640625)"/>
<path d="M0 0 C0.66 0 1.32 0 2 0 C5 0 8 0 11 0 C11.556875 -0.226875 12.11375 -0.45375 12.6875 -0.6875 C16.22828784 -1.16598484 18.02926775 0.1148019 21 2 C24.16322913 8.18267512 26.25485262 16.09831056 25 23 C22.03885613 25.75455243 20.16451637 26.89873771 16.125 27.25 C15.42375 27.1675 14.7225 27.085 14 27 C13.67 26.01 13.34 25.02 13 24 C13.33 23.67 13.66 23.34 14 23 C13.01 23.33 12.02 23.66 11 24 C9.14699434 24.06883379 7.29165057 24.08472018 5.4375 24.0625 C4.46683594 24.05347656 3.49617188 24.04445313 2.49609375 24.03515625 C1.67238281 24.02355469 0.84867188 24.01195313 0 24 C-0.66 24 -1.32 24 -2 24 C-2.33 24.99 -2.66 25.98 -3 27 C-6.69536586 26.71574109 -9.3214771 26.4523486 -12.4375 24.375 C-15.10474526 20.3207872 -14.34269298 16.8610865 -13.4921875 12.2421875 C-12.44240998 7.7172844 -11.72892068 4.74669923 -8.4375 1.375 C-4.87692063 -0.63353195 -3.90696873 -1.09883495 0 0 Z " fill="#0B98F8" transform="translate(107,52)"/>
<path d="M0 0 C1.11543686 -0.00099701 2.23087372 -0.00199402 3.38011169 -0.00302124 C5.73451883 0.00165345 8.08893654 0.02107122 10.44311523 0.05419922 C14.04957234 0.10144432 17.65307712 0.09531193 21.25976562 0.08203125 C23.54819473 0.09318353 25.83661138 0.1074025 28.125 0.125 C29.7438485 0.12226578 29.7438485 0.12226578 31.395401 0.11947632 C32.90232765 0.14807236 32.90232765 0.14807236 34.43969727 0.17724609 C35.76276634 0.19106827 35.76276634 0.19106827 37.11256409 0.20516968 C40.2795123 0.8979339 41.47868794 2.23937401 43.49609375 4.7265625 C44.60585416 8.05584374 44.6164027 10.52683607 44.60961914 14.03393555 C44.60954361 15.33505783 44.60946808 16.63618011 44.60939026 17.97673035 C44.6042836 19.3972477 44.5990676 20.81776467 44.59375 22.23828125 C44.59188466 23.69130912 44.59046131 25.14433761 44.58946228 26.59736633 C44.58564621 30.41962422 44.57582368 34.24184405 44.5647583 38.06408691 C44.55452462 41.96524541 44.54996046 45.86641007 44.54492188 49.76757812 C44.53420061 57.42059026 44.5171351 65.07357104 44.49609375 72.7265625 C43.22336741 71.7890227 41.95299145 70.84829176 40.68359375 69.90625 C39.97589844 69.38272949 39.26820313 68.85920898 38.5390625 68.31982422 C35.95201142 66.3022459 33.74236617 64.11322694 31.49609375 61.7265625 C31.00109375 62.7165625 31.00109375 62.7165625 30.49609375 63.7265625 C24.58794032 63.82546283 18.68026903 63.89804621 12.77148438 63.94628906 C10.76163337 63.96640055 8.75184084 63.99369365 6.7421875 64.02832031 C3.85271779 64.07685884 0.96402184 64.09953572 -1.92578125 64.1171875 C-3.27286163 64.14815521 -3.27286163 64.14815521 -4.64715576 64.17974854 C-10.89580505 64.18199447 -10.89580505 64.18199447 -14.04003906 61.82714844 C-16.2803776 58.61235978 -16.6402382 56.79715274 -16.69677734 52.91308594 C-16.71284027 51.9115448 -16.7289032 50.91000366 -16.74545288 49.87811279 C-16.78989097 45.29065594 -16.83097555 40.70334445 -16.85400391 36.11572266 C-16.87055713 33.69667944 -16.89783845 31.277685 -16.93603516 28.85888672 C-16.99082592 25.37181205 -17.01268322 21.88588479 -17.02734375 18.3984375 C-17.05001312 17.32011658 -17.0726825 16.24179565 -17.09603882 15.13079834 C-17.07241799 6.72562329 -17.07241799 6.72562329 -14.69018555 3.04248047 C-9.92784931 -0.41898007 -5.75150321 -0.09834663 0 0 Z M-13.29353333 3.91972351 C-14.9459528 6.3864475 -14.86517455 8.06519576 -14.84448242 11.02416992 C-14.84425583 12.10506393 -14.84402924 13.18595795 -14.84379578 14.29960632 C-14.82831192 15.46530655 -14.81282806 16.63100677 -14.796875 17.83203125 C-14.79263016 19.02637283 -14.78838531 20.22071442 -14.78401184 21.45124817 C-14.76719584 25.27241394 -14.72953718 29.09305566 -14.69140625 32.9140625 C-14.67636324 35.50194552 -14.66267417 38.08983679 -14.65039062 40.67773438 C-14.6172827 47.02752308 -14.56705387 53.37700536 -14.50390625 59.7265625 C-11.6714306 61.33339922 -9.72020832 61.96735153 -6.46972656 61.86181641 C-5.68921936 61.84164459 -4.90871216 61.82147278 -4.10455322 61.8006897 C-3.27212097 61.76849335 -2.43968872 61.736297 -1.58203125 61.703125 C-0.72204529 61.67809906 0.13794067 61.65307312 1.02398682 61.62728882 C3.76509997 61.54525405 6.50547475 61.44860107 9.24609375 61.3515625 C11.10674088 61.29330602 12.96741812 61.23600311 14.828125 61.1796875 C19.38453766 61.03969989 23.9403431 60.88660206 28.49609375 60.7265625 C28.00109375 57.7565625 28.00109375 57.7565625 27.49609375 54.7265625 C28.00398438 55.17386719 28.511875 55.62117188 29.03515625 56.08203125 C35.26552923 62.64520354 35.26552923 62.64520354 42.49609375 66.7265625 C42.56557942 58.82499645 42.61889739 50.92355787 42.65153027 43.02176189 C42.6671918 39.35269574 42.6884385 35.68383849 42.72241211 32.01489258 C42.75498889 28.47467303 42.77294309 24.93465451 42.78072548 21.39429665 C42.78897299 19.38508595 42.81239512 17.37595622 42.83598328 15.36686707 C42.83632317 13.53530815 42.83632317 13.53530815 42.83666992 11.66674805 C42.84333176 10.58975143 42.84999359 9.51275482 42.8568573 8.40312195 C42.69365105 5.73830619 42.69365105 5.73830619 41.28572083 3.87956238 C38.91452198 2.35187428 37.33617616 2.34592474 34.52148438 2.33837891 C33.51033569 2.32892242 32.49918701 2.31946594 31.45739746 2.3097229 C30.36672974 2.31579559 29.27606201 2.32186829 28.15234375 2.328125 C27.03170532 2.32525482 25.91106689 2.32238464 24.75646973 2.31942749 C22.38598119 2.31738503 20.01547587 2.32292751 17.64501953 2.33544922 C14.01035992 2.3514995 10.3768124 2.33560581 6.7421875 2.31640625 C4.44140379 2.31838865 2.14062077 2.32223225 -0.16015625 2.328125 C-1.79615784 2.31901596 -1.79615784 2.31901596 -3.46520996 2.3097229 C-4.98193298 2.32390762 -4.98193298 2.32390762 -6.52929688 2.33837891 C-7.86474548 2.34195908 -7.86474548 2.34195908 -9.22717285 2.34561157 C-11.53736633 2.57230325 -11.53736633 2.57230325 -13.29353333 3.91972351 Z " fill="#0D5AAC" transform="translate(98.50390625,33.2734375)"/>
<path d="M0 0 C3.74655107 1.48570129 5.23061367 2.56309731 7.12109375 6.09375 C8.65305335 9.9077573 9.33431052 12.0560644 7.9375 16 C5.89981229 18.10341957 4.87420646 18.7026683 2 19 C2.495 18.566875 2.99 18.13375 3.5 17.6875 C5.33218192 16.00259517 5.33218192 16.00259517 5 13 C4.67 13.33 4.34 13.66 4 14 C2.33382885 14.04063832 0.66611905 14.042721 -1 14 C-1 12.35 -1 10.7 -1 9 C-4.3 9 -7.6 9 -11 9 C-11 10.65 -11 12.3 -11 14 C-11.99 13.67 -12.98 13.34 -14 13 C-14 12.01 -14 11.02 -14 10 C-15.32 10.33 -16.64 10.66 -18 11 C-18 12.98 -18 14.96 -18 17 C-20 16 -20 16 -22 13 C-21.663566 9.61506201 -20.09984608 7.46752558 -18.0625 4.8125 C-17.53785156 4.11769531 -17.01320312 3.42289063 -16.47265625 2.70703125 C-12.55360681 -1.83573958 -5.46529597 -0.45211694 0 0 Z " fill="#102774" transform="translate(184,15)"/>
<path d="M0 0 C1.25554688 -0.00128906 2.51109375 -0.00257812 3.8046875 -0.00390625 C4.46178711 -0.00181152 5.11888672 0.0002832 5.79589844 0.00244141 C7.80411335 0.00779016 9.81210459 0.00249559 11.8203125 -0.00390625 C13.07585938 -0.00261719 14.33140625 -0.00132813 15.625 0 C16.78644531 0.00112793 17.94789062 0.00225586 19.14453125 0.00341797 C21.8125 0.1328125 21.8125 0.1328125 22.8125 1.1328125 C22.91073996 2.60930126 22.94223519 4.09056667 22.9375 5.5703125 C22.94136719 6.77494141 22.94136719 6.77494141 22.9453125 8.00390625 C22.8125 10.1328125 22.8125 10.1328125 21.8125 12.1328125 C17.1925 12.1328125 12.5725 12.1328125 7.8125 12.1328125 C7.8125 10.4828125 7.8125 8.8328125 7.8125 7.1328125 C0.8825 6.6378125 0.8825 6.6378125 -6.1875 6.1328125 C-6.5175 4.4828125 -6.8475 2.8328125 -7.1875 1.1328125 C-5.35715945 -0.69752805 -2.45538008 0.00238453 0 0 Z " fill="#204DCE" transform="translate(39.1875,76.8671875)"/>
<path d="M0 0 C1.16781006 0.00523682 2.33562012 0.01047363 3.53881836 0.01586914 C4.79887695 0.0190918 6.05893555 0.02231445 7.35717773 0.02563477 C8.6976732 0.03399136 10.03816799 0.04245632 11.37866211 0.05102539 C12.72306153 0.05603879 14.06746271 0.06060197 15.41186523 0.06469727 C18.71334151 0.07653051 22.01473014 0.09301568 25.31616211 0.11352539 C25.94116211 1.98852539 25.94116211 1.98852539 26.31616211 4.11352539 C23.54574102 6.88394648 21.55082405 6.51148645 17.69116211 6.73852539 C16.50264648 6.81329102 15.31413086 6.88805664 14.08959961 6.96508789 C12.71674805 7.03856445 12.71674805 7.03856445 11.31616211 7.11352539 C11.31616211 8.76352539 11.31616211 10.41352539 11.31616211 12.11352539 C9.00372419 12.14037951 6.69119941 12.1598538 4.37866211 12.17602539 C3.09088867 12.18762695 1.80311523 12.19922852 0.47631836 12.21118164 C-2.68383789 12.11352539 -2.68383789 12.11352539 -3.68383789 11.11352539 C-3.78207726 9.44923488 -3.8135742 7.78070608 -3.80883789 6.11352539 C-3.81141602 5.20602539 -3.81399414 4.29852539 -3.81665039 3.36352539 C-3.62208233 0.06731358 -3.33188754 0.14093766 0 0 Z " fill="#204ECE" transform="translate(166.683837890625,76.886474609375)"/>
<path d="M0 0 C0 0.99 0 1.98 0 3 C0.66 3.33 1.32 3.66 2 4 C2 2.35 2 0.7 2 -1 C5.3 -1 8.6 -1 12 -1 C12 0.65 12 2.3 12 4 C15.93075644 3.42547254 15.93075644 3.42547254 19 1 C19.25 3.3125 19.25 3.3125 19 6 C17.25 7.8125 17.25 7.8125 15 9 C13.68 9 12.36 9 11 9 C11 8.34 11 7.68 11 7 C8.36 7 5.72 7 3 7 C3 7.66 3 8.32 3 9 C-2.4 8.4 -2.4 8.4 -4.875 6.75 C-6.37422891 4.41786614 -6.22023906 2.71628175 -6 0 C-3 -1 -3 -1 0 0 Z " fill="#0E246B" transform="translate(171,25)"/>
<path d="M0 0 C1.20970459 0.00523682 2.41940918 0.01047363 3.66577148 0.01586914 C4.97094727 0.0190918 6.27612305 0.02231445 7.62084961 0.02563477 C9.00952213 0.03399138 10.39819401 0.04245634 11.78686523 0.05102539 C13.17944179 0.05603873 14.57202005 0.06060193 15.96459961 0.06469727 C19.38456394 0.07653105 22.80444367 0.09301659 26.22436523 0.11352539 C25.89436523 1.76352539 25.56436523 3.41352539 25.22436523 5.11352539 C15.98436523 5.11352539 6.74436523 5.11352539 -2.77563477 5.11352539 C-3.10563477 3.79352539 -3.43563477 2.47352539 -3.77563477 1.11352539 C-2.77563477 0.11352539 -2.77563477 0.11352539 0 0 Z " fill="#204ED0" transform="translate(35.775634765625,45.886474609375)"/>
<path d="M0 0 C9.57 0 19.14 0 29 0 C29.33 1.32 29.66 2.64 30 4 C29 5 29 5 26.31616211 5.11352539 C25.14835205 5.10828857 23.98054199 5.10305176 22.77734375 5.09765625 C21.51728516 5.09443359 20.25722656 5.09121094 18.95898438 5.08789062 C17.61848891 5.07953403 16.27799412 5.07106907 14.9375 5.0625 C13.59310058 5.0574866 12.2486994 5.05292342 10.90429688 5.04882812 C7.60282059 5.03699488 4.30143197 5.02050971 1 5 C0.67 3.35 0.34 1.7 0 0 Z " fill="#204FD1" transform="translate(163,46)"/>
<path d="M0 0 C1.11246094 -0.02835938 2.22492187 -0.05671875 3.37109375 -0.0859375 C7.22126351 0.47014577 8.84141838 1.64398743 11.5625 4.375 C12.375 7.125 12.375 7.125 12.5625 9.375 C12.005625 8.59125 11.44875 7.8075 10.875 7 C7.35079426 2.99955024 4.89009154 2.48036441 -0.375 2.0625 C-4.34504359 2.18257693 -7.12219667 3.08586198 -10.4375 5.375 C-12.33216369 8.64760092 -13.0301208 11.62173494 -12.4375 15.375 C-10.01667355 17.79582645 -7.78239996 18.77769644 -4.4375 19.375 C-4.4375 18.715 -4.4375 18.055 -4.4375 17.375 C-1.7975 17.375 0.8425 17.375 3.5625 17.375 C3.5625 18.035 3.5625 18.695 3.5625 19.375 C6.2025 18.715 8.8425 18.055 11.5625 17.375 C8.96386776 20.22112102 7.03533176 21.25304578 3.109375 21.578125 C-4.3613949 21.70333343 -9.26878647 21.23457075 -15 16.0625 C-16.4375 13.375 -16.4375 13.375 -15.9375 10.375 C-12.11713516 2.73427032 -8.4929096 0.09818393 0 0 Z " fill="#17399D" transform="translate(47.4375,14.625)"/>
<path d="M0 0 C9.24 0 18.48 0 28 0 C28 0.33 28 0.66 28 1 C21.565 1.495 21.565 1.495 15 2 C15 3.65 15 5.3 15 7 C12.68756208 7.02685412 10.3750373 7.04632841 8.0625 7.0625 C6.77472656 7.07410156 5.48695313 7.08570312 4.16015625 7.09765625 C1 7 1 7 0 6 C0 4.02 0 2.04 0 0 Z " fill="#1D46BC" transform="translate(163,82)"/>
<path d="M0 0 C9.57 0 19.14 0 29 0 C28.67 2.31 28.34 4.62 28 7 C23.38 7 18.76 7 14 7 C14 5.35 14 3.7 14 2 C7.07 1.505 7.07 1.505 0 1 C0 0.67 0 0.34 0 0 Z " fill="#1C46BB" transform="translate(33,82)"/>
<path d="M0 0 C0.99 0.33 1.98 0.66 3 1 C3.33 1.99 3.66 2.98 4 4 C4 2.68 4 1.36 4 0 C7.96 0 11.92 0 16 0 C15.67 1.32 15.34 2.64 15 4 C15.66 4 16.32 4 17 4 C17 2.68 17 1.36 17 0 C18.32 0.33 19.64 0.66 21 1 C20.125 4.875 20.125 4.875 19 6 C17.66956375 6.0983721 16.33406656 6.13078592 15 6.1328125 C14.195625 6.13410156 13.39125 6.13539062 12.5625 6.13671875 C11.716875 6.13285156 10.87125 6.12898438 10 6.125 C9.154375 6.12886719 8.30875 6.13273437 7.4375 6.13671875 C6.633125 6.13542969 5.82875 6.13414063 5 6.1328125 C4.2575 6.13168457 3.515 6.13055664 2.75 6.12939453 C1 6 1 6 0 5 C-0.04063832 3.33382885 -0.042721 1.66611905 0 0 Z " fill="#071248" transform="translate(168,102)"/>
<path d="M0 0 C3.13498176 1.08102819 3.9868559 1.97840612 5.75 4.875 C7 8 7 8 7 12 C3.78571429 16.60714286 3.78571429 16.60714286 1 18 C-1.9520035 18.17776132 -4.85872598 18.27764035 -7.8125 18.3125 C-9.02389648 18.35600586 -9.02389648 18.35600586 -10.25976562 18.40039062 C-14.32223794 18.44364381 -16.46602086 18.32481999 -20.01171875 16.16796875 C-22 14 -22 14 -23 11 C-22.40206327 8.64811553 -21.74118205 6.31074405 -21 4 C-19.93453047 7.1964086 -19.92572162 9.65747276 -20 13 C-17.36 14.32 -14.72 15.64 -12 17 C-12 16.34 -12 15.68 -12 15 C-9.69 15 -7.38 15 -5 15 C-5 15.66 -5 16.32 -5 17 C-1.04 15.515 -1.04 15.515 3 14 C3.43221723 6.49881081 3.43221723 6.49881081 0 0 Z " fill="#17389C" transform="translate(186,95)"/>
<path d="M0 0 C3.96 0 7.92 0 12 0 C12.33 1.32 12.66 2.64 13 4 C13 2.68 13 1.36 13 0 C14.32 0.33 15.64 0.66 17 1 C16.125 4.875 16.125 4.875 15 6 C12.00981839 6.12667764 9.05305892 6.18520838 6.0625 6.1875 C5.22525391 6.19974609 4.38800781 6.21199219 3.52539062 6.22460938 C2.32366211 6.22750977 2.32366211 6.22750977 1.09765625 6.23046875 C0.36039307 6.23457764 -0.37687012 6.23868652 -1.13647461 6.24291992 C-3 6 -3 6 -5 4 C-5 3.01 -5 2.02 -5 1 C-4.01 1.33 -3.02 1.66 -2 2 C-2 2.66 -2 3.32 -2 4 C-1.01 4 -0.02 4 1 4 C0.67 2.68 0.34 1.36 0 0 Z " fill="#071148" transform="translate(41,102)"/>
<path d="M0 0 C5.96313166 -0.02464574 11.92623395 -0.042834 17.8894043 -0.05493164 C19.91968298 -0.05997278 21.94995802 -0.06680557 23.98022461 -0.07543945 C26.89177347 -0.08751467 29.8032745 -0.09323034 32.71484375 -0.09765625 C33.6283812 -0.10281754 34.54191864 -0.10797882 35.48313904 -0.11329651 C37.65575427 -0.11349168 39.82827296 -0.06211805 42 0 C43 1 43 1 43.0625 4.5625 C43.041875 5.696875 43.02125 6.83125 43 8 C42.34 8 41.68 8 41 8 C41 6.02 41 4.04 41 2 C27.8 2 14.6 2 1 2 C0.67 1.34 0.34 0.68 0 0 Z " fill="#122D82" transform="translate(64,26)"/>
<path d="M0 0 C3.3 0 6.6 0 10 0 C10 1.65 10 3.3 10 5 C10.99 5 11.98 5 13 5 C12.67 3.35 12.34 1.7 12 0 C12.99 0 13.98 0 15 0 C15.042721 1.66611905 15.04063832 3.33382885 15 5 C12.84267167 7.15732833 8.05201247 6.18520919 5.0625 6.1875 C4.22525391 6.19974609 3.38800781 6.21199219 2.52539062 6.22460938 C1.32366211 6.22750977 1.32366211 6.22750977 0.09765625 6.23046875 C-0.63960693 6.23457764 -1.37687012 6.23868652 -2.13647461 6.24291992 C-4 6 -4 6 -6 4 C-6 3.01 -6 2.02 -6 1 C-5.01 1 -4.02 1 -3 1 C-2.67 1.99 -2.34 2.98 -2 4 C-1.34 4.33 -0.68 4.66 0 5 C0 3.35 0 1.7 0 0 Z " fill="#070F46" transform="translate(42,24)"/>
<path d="M0 0 C1.48693359 0.00386719 1.48693359 0.00386719 3.00390625 0.0078125 C3.99261719 0.00523438 4.98132813 0.00265625 6 0 C8.56640625 0.1328125 8.56640625 0.1328125 10.56640625 1.1328125 C10.23640625 2.7828125 9.90640625 4.4328125 9.56640625 6.1328125 C4.94640625 6.1328125 0.32640625 6.1328125 -4.43359375 6.1328125 C-3.24242205 0.17695401 -3.24242205 0.17695401 0 0 Z " fill="#1E4AC5" transform="translate(167.43359375,38.8671875)"/>
<path d="M0 0 C0.9796875 -0.01417969 1.959375 -0.02835938 2.96875 -0.04296875 C5.5 0.1875 5.5 0.1875 7.5 2.1875 C7.5 3.5075 7.5 4.8275 7.5 6.1875 C2.88 6.1875 -1.74 6.1875 -6.5 6.1875 C-6.83 4.5375 -7.16 2.8875 -7.5 1.1875 C-4.89820337 -0.11339831 -2.9030812 0.01909922 0 0 Z " fill="#1E4AC6" transform="translate(54.5,38.8125)"/>
<path d="M0 0 C0.99 0.33 1.98 0.66 3 1 C3 1.99 3 2.98 3 4 C3.66 4.33 4.32 4.66 5 5 C5 3.35 5 1.7 5 0 C8.3 0 11.6 0 15 0 C15 1.65 15 3.3 15 5 C15.99 5.33 16.98 5.66 18 6 C12.06 6 6.12 6 0 6 C-0.33 4.35 -0.66 2.7 -1 1 C-0.67 0.67 -0.34 0.34 0 0 Z " fill="#070F46" transform="translate(168,24)"/>
<path d="M0 0 C0.66 0 1.32 0 2 0 C2.33 1.32 2.66 2.64 3 4 C5.93804996 4.08086376 8.87388075 4.1404283 11.8125 4.1875 C12.64587891 4.21263672 13.47925781 4.23777344 14.33789062 4.26367188 C15.14033203 4.27333984 15.94277344 4.28300781 16.76953125 4.29296875 C17.50792236 4.3086792 18.24631348 4.32438965 19.00708008 4.34057617 C21.52230522 3.91074167 22.39441516 2.92536938 24 1 C24 2.65 24 4.3 24 6 C17.25 9 17.25 9 15 9 C15 8.34 15 7.68 15 7 C12.69 7 10.38 7 8 7 C8 7.66 8 8.32 8 9 C1.25 7.25 1.25 7.25 -1 5 C-0.625 2.375 -0.625 2.375 0 0 Z " fill="#0E246C" transform="translate(166,103)"/>
<path d="M0 0 C0.66 0.33 1.32 0.66 2 1 C1.2884375 1.7734375 1.2884375 1.7734375 0.5625 2.5625 C-1.48289599 5.75331775 -1.86300711 8.23269564 -2 12 C-0.23468433 14.6479735 0.93099579 14.9769986 4 16 C10.6488466 16.49890335 16.33524909 16.77650061 22 13 C22.5497272 7.36529617 20.95047835 4.61012242 18 0 C20.53877723 0.98700903 21.76579175 1.59589153 23.15234375 3.98828125 C25.27682691 10.27717418 25.27682691 10.27717418 23.875 13.9375 C20.99815981 17.10202421 19.48000151 17.96236241 15.1640625 18.30078125 C13.65110705 18.31537994 12.13801238 18.31888941 10.625 18.3125 C9.49191406 18.33666992 9.49191406 18.33666992 8.3359375 18.36132812 C3.73378541 18.36535099 0.74055506 17.96394458 -3 15 C-4.94487172 11.87129332 -5.12409575 10.55279018 -4.3125 6.9375 C-3.11804566 4.26419744 -1.88317596 2.22557159 0 0 Z " fill="#183AA0" transform="translate(37,95)"/>
<path d="M0 0 C0.66 0.33 1.32 0.66 2 1 C3.3398391 1.09464411 4.68416768 1.13072149 6.02734375 1.1328125 C7.21553711 1.13474609 7.21553711 1.13474609 8.42773438 1.13671875 C9.25595703 1.13285156 10.08417969 1.12898438 10.9375 1.125 C12.1740332 1.13080078 12.1740332 1.13080078 13.43554688 1.13671875 C14.62567383 1.13478516 14.62567383 1.13478516 15.83984375 1.1328125 C16.56550537 1.13168457 17.29116699 1.13055664 18.03881836 1.12939453 C20.21513864 1.06889014 20.21513864 1.06889014 23 0 C23 1.32 23 2.64 23 4 C19.91190305 5.76462683 18.76687864 6 15 6 C15 5.34 15 4.68 15 4 C12.36 4 9.72 4 7 4 C7 4.66 7 5.32 7 6 C4.125 5.75 4.125 5.75 1 5 C-0.375 2.9375 -0.375 2.9375 -1 1 C-0.67 0.67 -0.34 0.34 0 0 Z " fill="#0E246C" transform="translate(36,28)"/>
<path d="M0 0 C0.33 0 0.66 0 1 0 C1 21.45 1 42.9 1 65 C0.01 64.01 -0.98 63.02 -2 62 C-1.67 61.34 -1.34 60.68 -1 60 C-0.8800592 58.09091814 -0.82268712 56.17777752 -0.79467773 54.26513672 C-0.7647599 52.46349564 -0.7647599 52.46349564 -0.73423767 50.62545776 C-0.71752518 49.32335358 -0.70081268 48.02124939 -0.68359375 46.6796875 C-0.66302375 45.33732462 -0.64202727 43.99496821 -0.62062073 42.65261841 C-0.56540469 39.11811562 -0.51599342 35.58355443 -0.46777344 32.0489502 C-0.41755496 28.44273678 -0.36187071 24.83660828 -0.30664062 21.23046875 C-0.19906483 14.15371951 -0.09761858 7.07689416 0 0 Z " fill="#0C68BB" transform="translate(142,41)"/>
<path d="M0 0 C3.74655107 1.48570129 5.23061367 2.56309731 7.12109375 6.09375 C8.65305335 9.9077573 9.33431052 12.0560644 7.9375 16 C5.89981229 18.10341957 4.87420646 18.7026683 2 19 C2.48597656 18.59652344 2.97195312 18.19304688 3.47265625 17.77734375 C5.83293448 15.03072842 5.47296449 12.65303306 5.359375 9.16015625 C5.1297689 6.78781381 5.1297689 6.78781381 3.1875 4.5 C-0.93080612 1.67601866 -5.1476006 1.45880612 -10 2 C-13.31805142 3.32429273 -13.31805142 3.32429273 -16 5 C-16.99 5.495 -16.99 5.495 -18 6 C-14.59074943 -1.86750131 -7.50149663 -0.71047385 0 0 Z " fill="#17389C" transform="translate(184,15)"/>
<path d="M0 0 C5.94 0 11.88 0 18 0 C18 0.66 18 1.32 18 2 C18.66 2 19.32 2 20 2 C19.67 3.32 19.34 4.64 19 6 C17.35 6 15.7 6 14 6 C14 4.35 14 2.7 14 1 C10.7 1 7.4 1 4 1 C4 2.65 4 4.3 4 6 C3.01 5.67 2.02 5.34 1 5 C0.67 3.35 0.34 1.7 0 0 Z " fill="#0A3679" transform="translate(169,23)"/>
<path d="M0 0 C2.64 0.66 5.28 1.32 8 2 C8 1.34 8 0.68 8 0 C10.64 0 13.28 0 16 0 C16 0.66 16 1.32 16 2 C17.32 2.33 18.64 2.66 20 3 C14.16375752 4.94541416 7.98712842 4.80832343 2.3125 2.5 C1.549375 2.005 0.78625 1.51 0 1 C0 0.67 0 0.34 0 0 Z " fill="#17399E" transform="translate(166,32)"/>
<path d="M0 0 C0.74886475 0.00523682 1.49772949 0.01047363 2.26928711 0.01586914 C3.07817383 0.0190918 3.88706055 0.02231445 4.72045898 0.02563477 C5.5705957 0.03401367 6.42073242 0.04239258 7.29663086 0.05102539 C8.15063477 0.05553711 9.00463867 0.06004883 9.88452148 0.06469727 C12.00108749 0.07652166 14.11761771 0.0944577 16.23413086 0.11352539 C15.57413086 2.09352539 14.91413086 4.07352539 14.23413086 6.11352539 C13.57413086 5.78352539 12.91413086 5.45352539 12.23413086 5.11352539 C12.23413086 4.12352539 12.23413086 3.13352539 12.23413086 2.11352539 C8.93413086 2.11352539 5.63413086 2.11352539 2.23413086 2.11352539 C2.23413086 3.10352539 2.23413086 4.09352539 2.23413086 5.11352539 C1.24413086 5.11352539 0.25413086 5.11352539 -0.76586914 5.11352539 C-1.42586914 3.79352539 -2.08586914 2.47352539 -2.76586914 1.11352539 C-1.76586914 0.11352539 -1.76586914 0.11352539 0 0 Z " fill="#09478E" transform="translate(39.765869140625,100.886474609375)"/>
<path d="M0 0 C5.94 0 11.88 0 18 0 C17.01 0.495 17.01 0.495 16 1 C16 2.32 16 3.64 16 5 C15.34 5 14.68 5 14 5 C14 4.01 14 3.02 14 2 C10.7 2 7.4 2 4 2 C3.67 3.32 3.34 4.64 3 6 C2.34 5.67 1.68 5.34 1 5 C0.67 3.35 0.34 1.7 0 0 Z " fill="#0A4F98" transform="translate(169,101)"/>
<path d="M0 0 C1.65 0 3.3 0 5 0 C5.38218767 1.65614657 5.71395102 3.32457024 6 5 C5 6 5 6 2.4375 6.0625 C1.2309375 6.0315625 1.2309375 6.0315625 0 6 C0 4.02 0 2.04 0 0 Z " fill="#0E206C" transform="translate(116,64)"/>
<path d="M0 0 C1.2065625 0.0309375 1.2065625 0.0309375 2.4375 0.0625 C2.4375 2.0425 2.4375 4.0225 2.4375 6.0625 C0.7875 6.0625 -0.8625 6.0625 -2.5625 6.0625 C-2.94468767 4.40635343 -3.27645102 2.73792976 -3.5625 1.0625 C-2.5625 0.0625 -2.5625 0.0625 0 0 Z " fill="#0E226E" transform="translate(106.5625,63.9375)"/>
<path d="M0 0 C5.94 0 11.88 0 18 0 C17.67 1.98 17.34 3.96 17 6 C16.01 6 15.02 6 14 6 C14 4.35 14 2.7 14 1 C13.15695313 1.09539063 12.31390625 1.19078125 11.4453125 1.2890625 C10.34960938 1.39992188 9.25390625 1.51078125 8.125 1.625 C6.48917969 1.79902344 6.48917969 1.79902344 4.8203125 1.9765625 C3.42425781 1.98816406 3.42425781 1.98816406 2 2 C1.34 1.34 0.68 0.68 0 0 Z " fill="#0A3C80" transform="translate(38,23)"/>
<path d="M0 0 C1.98 0 3.96 0 6 0 C5.67 1.32 5.34 2.64 5 4 C3.35 4 1.7 4 0 4 C0 2.68 0 1.36 0 0 Z " fill="#094C91" transform="translate(183,25)"/>
</svg>
