<svg xmlns="http://www.w3.org/2000/svg" xmlns:xlink="http://www.w3.org/1999/xlink" viewBox="0,0,256,256" width="48px" height="48px"><defs><linearGradient x1="19.137" y1="38.732" x2="19.137" y2="13.768" gradientUnits="userSpaceOnUse" id="color-1"><stop offset="0" stop-color="#1d0d78"></stop><stop offset="0.482" stop-color="#ffd545"></stop><stop offset="0.655" stop-color="#fdd33e"></stop><stop offset="0.779" stop-color="#fbce33"></stop><stop offset="0.879" stop-color="#f9c822"></stop><stop offset="0.964" stop-color="#f6c00c"></stop><stop offset="1" stop-color="#f4bb00"></stop></linearGradient><linearGradient x1="37.212" y1="38.587" x2="37.212" y2="13.347" gradientUnits="userSpaceOnUse" id="color-2"><stop offset="0" stop-color="#1d0d78"></stop><stop offset="0.482" stop-color="#ffd545"></stop><stop offset="0.655" stop-color="#fdd33e"></stop><stop offset="0.779" stop-color="#fbce33"></stop><stop offset="0.879" stop-color="#f9c822"></stop><stop offset="0.964" stop-color="#f6c00c"></stop><stop offset="1" stop-color="#f4bb00"></stop></linearGradient><linearGradient x1="19.137" y1="38.732" x2="19.137" y2="13.768" gradientUnits="userSpaceOnUse" id="color-3"><stop offset="0" stop-color="#1d0d78"></stop><stop offset="0.482" stop-color="#ffd545"></stop><stop offset="0.655" stop-color="#fdd33e"></stop><stop offset="0.779" stop-color="#fbce33"></stop><stop offset="0.879" stop-color="#f9c822"></stop><stop offset="0.964" stop-color="#f6c00c"></stop><stop offset="1" stop-color="#f4bb00"></stop></linearGradient><linearGradient x1="37.212" y1="38.588" x2="37.212" y2="13.349" gradientUnits="userSpaceOnUse" id="color-4"><stop offset="0" stop-color="#1d0d78"></stop><stop offset="0.482" stop-color="#ffd545"></stop><stop offset="0.655" stop-color="#fdd33e"></stop><stop offset="0.779" stop-color="#fbce33"></stop><stop offset="0.879" stop-color="#f9c822"></stop><stop offset="0.964" stop-color="#f6c00c"></stop><stop offset="1" stop-color="#f4bb00"></stop></linearGradient><linearGradient x1="49.351" y1="28.8" x2="19.383" y2="34.066" gradientUnits="userSpaceOnUse" id="color-5"><stop offset="0.159" stop-color="#30db80"></stop><stop offset="1" stop-color="#30db80"></stop></linearGradient><linearGradient x1="19.137" y1="38.732" x2="19.137" y2="13.768" gradientUnits="userSpaceOnUse" id="color-6"><stop offset="0" stop-color="#006db1"></stop><stop offset="1" stop-color="#005f93"></stop></linearGradient><linearGradient x1="37.211" y1="38.588" x2="37.211" y2="13.349" gradientUnits="userSpaceOnUse" id="color-7"><stop offset="0" stop-color="#006db1"></stop><stop offset="1" stop-color="#005f93"></stop></linearGradient><linearGradient x1="22.171" y1="17.593" x2="45.513" y2="17.593" gradientUnits="userSpaceOnUse" id="color-8"><stop offset="0" stop-color="#ffa302"></stop><stop offset="1" stop-color="#ff8700"></stop></linearGradient><linearGradient x1="2.533" y1="12.107" x2="21.299" y2="41.214" gradientUnits="userSpaceOnUse" id="color-9"><stop offset="0" stop-color="#f0e8e4"></stop><stop offset="0.25" stop-color="#dfdcdb"></stop><stop offset="0.722" stop-color="#c4cacc"></stop><stop offset="1" stop-color="#bac3c7"></stop></linearGradient><linearGradient x1="5.435" y1="10.236" x2="24.201" y2="39.342" gradientUnits="userSpaceOnUse" id="color-10"><stop offset="0" stop-color="#f0e8e4"></stop><stop offset="0.25" stop-color="#dfdcdb"></stop><stop offset="0.722" stop-color="#c4cacc"></stop><stop offset="1" stop-color="#bac3c7"></stop></linearGradient><linearGradient x1="22.17" y1="16.36" x2="45.512" y2="16.36" gradientUnits="userSpaceOnUse" id="color-11"><stop offset="0" stop-color="#f6572f"></stop><stop offset="0.523" stop-color="#f6552d"></stop><stop offset="0.712" stop-color="#f65026"></stop><stop offset="0.846" stop-color="#f6461b"></stop><stop offset="0.954" stop-color="#f6390a"></stop><stop offset="1" stop-color="#f63100"></stop></linearGradient><linearGradient x1="32.944" y1="38.587" x2="32.944" y2="13.348" gradientUnits="userSpaceOnUse" id="color-12"><stop offset="0" stop-color="#006db1"></stop><stop offset="1" stop-color="#005f93"></stop></linearGradient><linearGradient x1="38.008" y1="42.5" x2="38.008" y2="31.125" gradientUnits="userSpaceOnUse" id="color-13"><stop offset="0" stop-color="#0d61a8"></stop><stop offset="1" stop-color="#16528b"></stop></linearGradient><linearGradient x1="18.893" y1="38.733" x2="18.893" y2="13.769" gradientUnits="userSpaceOnUse" id="color-14"><stop offset="0" stop-color="#1d0d78"></stop><stop offset="0.482" stop-color="#ffd545"></stop><stop offset="0.655" stop-color="#fdd33e"></stop><stop offset="0.779" stop-color="#fbce33"></stop><stop offset="0.879" stop-color="#f9c822"></stop><stop offset="0.964" stop-color="#f6c00c"></stop><stop offset="1" stop-color="#f4bb00"></stop></linearGradient><linearGradient x1="37.163" y1="38.587" x2="37.163" y2="13.348" gradientUnits="userSpaceOnUse" id="color-15"><stop offset="0" stop-color="#1d0d78"></stop><stop offset="0.482" stop-color="#ffd545"></stop><stop offset="0.655" stop-color="#fdd33e"></stop><stop offset="0.779" stop-color="#fbce33"></stop><stop offset="0.879" stop-color="#f9c822"></stop><stop offset="0.964" stop-color="#f6c00c"></stop><stop offset="1" stop-color="#f4bb00"></stop></linearGradient><linearGradient x1="17.463" y1="28.836" x2="43.41" y2="40.995" gradientUnits="userSpaceOnUse" id="color-16"><stop offset="0" stop-color="#b65cff"></stop><stop offset="1" stop-color="#9153a0"></stop></linearGradient></defs><g fill="none" fill-rule="nonzero" stroke="none" stroke-width="1" stroke-linecap="butt" stroke-linejoin="miter" stroke-miterlimit="10" stroke-dasharray="" stroke-dashoffset="0" font-family="none" font-weight="none" font-size="none" text-anchor="none" style="mix-blend-mode: normal"><g transform="scale(5.33333,5.33333)"><path d="M26.17,13.768l-4,0.017c0,0 0.152,17.292 0.152,17.553c0,0.536 -0.126,1.04 -0.337,1.497c-0.025,0.056 -0.059,0.106 -0.087,0.16c-0.071,0.135 -0.14,0.269 -0.227,0.393c-0.005,0.008 -0.012,0.014 -0.018,0.021c-0.649,0.912 -1.709,1.511 -2.914,1.511c-1.449,0 -2.317,-0.836 -2.372,-0.878c-0.491,-0.371 -0.993,-1.308 -0.993,-1.308c-0.921,1.255 -2.418,1.131 -3.344,1.215l1.463,1.95c1.33,1.774 3.449,2.833 5.667,2.833c3.905,0 7.083,-3.178 7.083,-7.092z" fill="url(#color-1)"></path><path d="M37.68,38.587c-3.086,0 -6.435,-1.263 -9.033,-3.533l2.633,-3.012c2.439,2.132 5.829,3.068 8.246,2.271c1.194,-0.393 1.927,-1.166 2.176,-2.297c0.552,-2.507 -2.964,-4.082 -6.477,-5.291c-0.42,-0.145 -0.771,-0.267 -1.026,-0.369c-1.706,-0.683 -3.734,-2.563 -4.152,-5.078c-0.255,-1.529 -0.005,-3.829 2.634,-6.099c5.267,-4.529 12.525,0.734 12.833,0.96l-2.372,3.221c-0.051,-0.037 -5.008,-3.6 -7.852,-1.149c-0.986,0.848 -1.423,1.659 -1.298,2.41c0.154,0.927 1.099,1.783 1.693,2.021c0.209,0.083 0.498,0.182 0.843,0.301c2.864,0.986 10.473,3.606 9.08,9.933c-0.559,2.536 -2.274,4.395 -4.831,5.237c-0.972,0.32 -2.018,0.474 -3.097,0.474z" fill="url(#color-2)"></path><path d="M21.985,32.835c-0.025,0.056 -0.059,0.106 -0.087,0.16c-0.071,0.135 -0.14,0.269 -0.227,0.393c-0.005,0.008 -0.012,0.014 -0.018,0.021c-0.649,0.912 -1.709,1.511 -2.914,1.511c-1.449,0 -2.317,-0.836 -2.372,-0.878c-0.491,-0.371 -0.993,-1.308 -0.993,-1.308c-0.921,1.255 -2.418,1.131 -3.344,1.215l1.463,1.95c1.33,1.774 3.449,2.833 5.667,2.833c3.905,0 7.083,-3.178 7.083,-7.092l-0.026,-6.418l-3.943,0.432c0.027,3.085 0.048,5.586 0.048,5.684c0,0.536 -0.126,1.04 -0.337,1.497z" fill="url(#color-3)"></path><path d="M35.225,26.726c3.513,1.209 7.028,2.784 6.477,5.291c-0.249,1.131 -0.981,1.904 -2.176,2.297c-2.417,0.796 -5.807,-0.139 -8.246,-2.271l-2.633,3.012c2.599,2.271 5.947,3.533 9.033,3.533c1.079,0 2.125,-0.154 3.097,-0.474c2.557,-0.842 4.272,-2.701 4.831,-5.237c0.77,-3.498 -1.215,-5.86 -3.625,-7.442c-2.732,1.339 -6.882,0.752 -8.829,0.362c0.351,0.227 0.704,0.424 1.045,0.56c0.254,0.102 0.606,0.224 1.026,0.369z" fill="url(#color-4)"></path><path d="M22.322,31.338c0,-0.098 -0.021,-2.599 -0.048,-5.684l3.943,-0.432l0.026,6.418c0,3.914 -3.178,7.092 -7.083,7.092c-2.218,0 -4.337,-1.059 -5.667,-2.833l-1.463,-1.95c0.926,-0.084 2.424,0.04 3.344,-1.215c0,0 0.503,0.938 0.993,1.308c0.056,0.042 0.923,0.878 2.372,0.878c1.205,0 2.265,-0.599 2.914,-1.511c0.005,-0.008 0.012,-0.014 0.018,-0.021c0.087,-0.124 0.156,-0.259 0.227,-0.393c0.028,-0.054 0.062,-0.104 0.087,-0.16c0.211,-0.457 0.337,-0.961 0.337,-1.497zM35.225,26.726c3.513,1.209 7.028,2.784 6.477,5.291c-0.249,1.131 -0.981,1.904 -2.176,2.297c-2.417,0.796 -5.807,-0.139 -8.246,-2.271l-2.633,3.012c2.599,2.271 5.947,3.533 9.033,3.533c1.079,0 2.125,-0.154 3.097,-0.474c2.557,-0.842 4.272,-2.701 4.831,-5.237c0.77,-3.498 -1.215,-5.86 -3.625,-7.442c-2.732,1.339 -6.882,0.752 -8.829,0.362c0.351,0.227 0.704,0.424 1.045,0.56c0.254,0.102 0.606,0.224 1.026,0.369z" fill="url(#color-5)"></path><path d="M21.985,32.835c-0.025,0.056 -0.059,0.106 -0.087,0.16c-0.071,0.135 -0.14,0.269 -0.227,0.393c-0.005,0.008 -0.012,0.014 -0.018,0.021c-0.649,0.912 -1.709,1.511 -2.914,1.511c-1.449,0 -2.317,-0.836 -2.372,-0.878c-0.491,-0.371 -0.993,-1.308 -0.993,-1.308c-0.921,1.255 -2.418,1.131 -3.344,1.215l1.463,1.95c1.33,1.774 3.449,2.833 5.667,2.833c3.905,0 7.083,-3.178 7.083,-7.092l-0.007,-1.759c-1.633,0.069 -3.005,0.48 -3.918,0.843c0.003,0.362 0.005,0.586 0.005,0.613c-0.001,0.537 -0.127,1.041 -0.338,1.498z" fill="url(#color-6)"></path><path d="M41.701,32.017c-0.249,1.131 -0.981,1.904 -2.176,2.297c-2.417,0.796 -5.807,-0.139 -8.246,-2.271l-2.633,3.012c2.599,2.271 5.947,3.533 9.033,3.533c1.079,0 2.125,-0.154 3.097,-0.474c2.557,-0.842 4.272,-2.701 4.831,-5.237c0.26,-1.18 0.205,-2.23 -0.072,-3.165l-4.09,0.652c0.282,0.502 0.389,1.05 0.256,1.653z" fill="url(#color-7)"></path><path d="M26.17,13.768l0.029,7.141c-1.707,0.286 -3.115,0.669 -3.958,0.929c-0.036,-4.135 -0.07,-8.054 -0.07,-8.054zM35.289,18.213c2.844,-2.451 7.801,1.112 7.852,1.149l2.372,-3.221c-0.308,-0.227 -7.566,-5.49 -12.833,-0.96c-2.243,1.93 -2.754,3.876 -2.702,5.357c1.331,-0.031 2.715,0.059 4.077,0.322c-0.024,-0.079 -0.051,-0.157 -0.064,-0.237c-0.125,-0.751 0.312,-1.562 1.298,-2.41z" fill="url(#color-8)"></path><g fill="url(#color-9)"><path d="M18.429,27.057c0.681,-1.287 1.071,-2.752 1.071,-4.307c0,-5.101 -4.149,-9.25 -9.25,-9.25h-6.75v18.5h6.75c1.753,0 3.387,-0.499 4.785,-1.349c0.163,-1.852 1.573,-3.331 3.394,-3.594zM10.25,28h-2.75v-10.5h2.75c2.895,0 5.25,2.355 5.25,5.25c0,2.895 -2.355,5.25 -5.25,5.25z"></path></g><circle cx="18.5" cy="30.5" r="2.5" fill="url(#color-10)"></circle><path d="M26.17,13.768l0.017,4.227l-3.968,1.376c-0.027,-3.1 -0.049,-5.586 -0.049,-5.586zM44.917,16.95l0.595,-0.808c-0.308,-0.227 -7.566,-5.49 -12.833,-0.96c-0.559,0.481 -0.99,0.961 -1.352,1.437c2.439,0.328 9.685,1.185 13.59,0.331z" fill="url(#color-11)"></path><g><path d="M36.383,34.485c-1.767,-0.284 -3.619,-1.136 -5.115,-2.443l-1.763,2.017c0.993,0.14 3.765,0.483 6.878,0.426z" fill="url(#color-12)"></path><path d="M39.515,34.313c0.043,-0.014 0.075,-0.038 0.117,-0.053c-1.084,0.137 -2.185,0.205 -3.249,0.224c1.115,0.18 2.197,0.138 3.132,-0.171z" fill="url(#color-13)"></path><path d="M16.356,34.043c-0.491,-0.371 -0.993,-1.308 -0.993,-1.308c-0.921,1.255 -2.418,1.131 -3.344,1.215l1.463,1.95c1.33,1.774 3.449,2.833 5.667,2.833c3.023,0 5.604,-1.908 6.618,-4.585c-1.915,0.667 -3.963,0.572 -5.376,0.361c-0.496,0.263 -1.061,0.412 -1.662,0.412c-1.45,-0.001 -2.317,-0.836 -2.373,-0.878z" fill="url(#color-14)"></path><path d="M37.669,38.587c1.079,0 2.125,-0.154 3.097,-0.474c2.557,-0.842 4.272,-2.701 4.831,-5.237c0.05,-0.227 0.064,-0.438 0.091,-0.655c-1.576,1.144 -3.772,1.75 -6.056,2.039c-0.042,0.015 -0.074,0.039 -0.117,0.053c-0.935,0.308 -2.017,0.351 -3.131,0.172c-3.113,0.057 -5.886,-0.286 -6.877,-0.426l-0.87,0.995c2.597,2.27 5.946,3.533 9.032,3.533z" fill="url(#color-15)"></path><path d="M18.729,34.92c0.601,0 1.166,-0.15 1.662,-0.412c1.413,0.211 3.461,0.306 5.376,-0.361c-1.014,2.676 -3.594,4.585 -6.618,4.585c-2.218,0 -4.337,-1.059 -5.667,-2.833l-1.463,-1.95c0.926,-0.084 2.424,0.04 3.344,-1.215c0,0 0.503,0.938 0.993,1.308c0.056,0.043 0.923,0.878 2.373,0.878zM37.669,38.587c1.079,0 2.125,-0.154 3.097,-0.474c2.557,-0.842 4.272,-2.701 4.831,-5.237c0.05,-0.227 0.064,-0.438 0.091,-0.655c-1.576,1.144 -3.772,1.75 -6.056,2.039c-0.042,0.015 -0.074,0.039 -0.117,0.053c-0.935,0.308 -2.017,0.351 -3.131,0.172c-3.113,0.057 -5.886,-0.286 -6.877,-0.426l-0.87,0.995c2.597,2.27 5.946,3.533 9.032,3.533z" fill="url(#color-16)"></path></g></g></g></svg>