<?xml version="1.0" encoding="UTF-8"?>
<svg version="1.1" viewBox="0 272 1332 1552" width="1280" height="880" xmlns="http://www.w3.org/2000/svg">
<path transform="translate(0)" d="m0 0h1352v1552h-1352z" fill="#E3E8EB"/>
<path transform="translate(183,229)" d="m0 0h736l319 1 8 6 8 10 1 2v741l-1 48-2 34-1 15-1 3-8 1-22 1-1008 2h-68l-13-1-10-5-6-7-1-4-1-18v-806l3-9 10-10 5-2 9-1z" fill="#6DCDE8"/>
<path transform="translate(114,244)" d="m0 0 1 3-1 5v806l1 18 3 7 8 6 5 2 13 1h68l438-1 570-1 30-1 3-52 1-63v-726l-1-4 3 3 2 18v2l4 2 30 7 9 4 3 3 4 7 5 24 2 34v30l1 93-1 51v42l1 102 2 88v106l-1 69-1 154-2 24-4 22-7 14-5 4-16 3-22 1-17 1h-82l-40-1h-53l-413 3h-451l-14-2-20-6-6-4-4-8-4-11-6-17-4-8-1-3-13-1-12-6-6-6-2-8-1-34v-740l1-51z" fill="#B5DAE9"/>
<path transform="translate(0,183)" d="m0 0h10l1 1v1258l1 87 23 1h16l28 1 1104 1h169v20h-1352z" fill="#FDFDFD"/>
<path transform="translate(0)" d="m0 0h1352v18l-93 1-15 3-12 5-11 7-12 11-9 12-8 16-2 7h-2l-1 11v27h2l1 10h2v5h2l8 15 9 11 9 8 10 7 16 7v2l-21 1h-144l-4-2 17-9 14-10 11-11 9-14 5-11 4-14 1-8v-10l-3-15-5-14-9-15-13-14-13-9-10-5-15-4-10-1h-1056l-4-1z" fill="#FDFDFD"/>
<path transform="translate(352,472)" d="m0 0 7 1 1 6v44l5-3 16-15 6-5 6-1 9 2 3-2h8l3 3-1 8 6-3 8-6 3-1h9l5 4 3 7 1 6 1 23 1 6v9h-8l-4-4-3-8-2-7-2 5-4-1-3-5h-2l-2 4-3 9-2 8-9 1-12 2h-7l-5-5-4-3-10 1-6-2-3 4-2 5h-10l-1-5 1-41v-39z" fill="#59C5EC"/>
<path transform="translate(547,651)" d="m0 0h6l3 2-1 9 6-3 8-6 3-1h9l5 4 3 7 1 5 1 25 2 12-1 2h-8l-4-4-4-11-1-4-2-1v3l-4 1-2-2v-4l-4-1-1 8-4 10-1 6h-29l-2-3h-6l-8 3h-8l-10-4-7-8-2-6v-16l5-10 9-8 11-4h11l14 6 6-1 3-1 1-4z" fill="#59C5EC"/>
<path transform="translate(611,924)" d="m0 0 7 1 1 2 1 18h2l2 2h2l1-2h2l1-4 4-8h1l1-9h10l1 1v63l-1 22-1 2h-10l-1-12-5 2-5 3h-2l-2 5-4 2h-9l-1-2v-60l1-25z" fill="#59C5EC"/>
<path transform="translate(567,772)" d="m0 0h5l1 1v20l-1 16v50h-6l-2-1v-2l-6 1-7 3h-9l-10-4-10-9-3-9 1-13 4-10 8-7 9-4h11l10 4 1-18 1-17z" fill="#020DFF"/>
<path transform="translate(647,620)" d="m0 0 7 1v15l-2 29v28l1 13-1 1h-6l-4-3-11 4h-9l-12-6-5-5-4-6-1-4v-10l3-10 4-6 7-6 8-3h11l10 4 1-25 1-10z" fill="#020DFF"/>
<path transform="translate(804,804)" d="m0 0h11l10 4 2 2-1 26 2 12 3 6v5h-7l-3-2-9 1-6 2h-8l-12-6-4-5-3-8v-11l3-10 9-10 7-4z" fill="#020DFF"/>
<path transform="translate(810,652)" d="m0 0h12l11 6-1 14v19l6 13-1 3h-8l-3-2-7 1-6 2h-9l-9-4-6-5-3-6-1-5v-11l4-11 6-7 11-6z" fill="#020DFF"/>
<path transform="translate(432,804)" d="m0 0h12l10 5 1 2-1 13v15l2 9 3 6v5h-7l-4-2-8 1-6 2h-8l-9-4-6-5-3-7-1-14 3-10 5-7 8-6z" fill="#020DFF"/>
<path transform="translate(1019,64)" d="m0 0h2l2 5v6h-2l5 2v4h2v2h2l2 7h17l11 1-5 5-8 7-10 7-1 2h2v2h2l4 16 2 3v4l-4-1-17-10-4-3-5 2-15 9-4 1v2h-3l1-6 3-10 4-8-1-4-13-11-8-5 1-2 24-2 6-1 1-7 4-9z" fill="#CDE2EB"/>
<path transform="translate(510,652)" d="m0 0h11l10 5 1 1-1 30 2 8 4 7-1 4h-7l-3-2h-6l-8 3h-8l-10-4-7-8-2-6v-16l5-10 9-8z" fill="#020DFF"/>
<path transform="translate(203,320)" d="m0 0h13l11 5 4 4v5l-2 1-9-1-4-1h-15l-10 5-2 2-1 8 6 2 20 3 11 4 7 8 2 5v12l-5 9-8 7-8 4-8 2h-10l-12-3-8-5-4-4-1-3v-7l2-2 5 1 5 5v2l11 3h11l9-2 8-5 3-4v-7l-4-4-13-4-14-2-10-5-5-6-1-9 3-7 7-8 10-6z" fill="#020DFF"/>
<path transform="translate(252,956)" d="m0 0h12l9 6 5 10 1 5v13l-4 10-5 6-8 5-9 1-9-3-8-7-4-7-1-5v-8l3-11 4-6 8-7z" fill="#020DFF"/>
<path transform="translate(244,804)" d="m0 0h12l9 6 5 10 1 5v11l-3 10-6 8-8 5-9 1-11-4-7-7-3-6-1-5v-8l4-13 7-8z" fill="#020DFF"/>
<path transform="translate(563,956)" d="m0 0h12l9 6 5 9 1 6v13l-4 10-6 7-7 4-8 1-9-3-8-6-5-9-1-3v-9l3-10 5-8 6-5z" fill="#020DFF"/>
<path transform="translate(264,348)" d="m0 0h12l9 6 5 10 1 6v10l-3 10-6 8-8 5-10 1-10-4-7-7-3-7v-17l4-10 7-7z" fill="#020DFF"/>
<path transform="translate(828,500)" d="m0 0h11l8 5 4 5 3 7 1 5v11l-4 10-7 8-6 4-10 1-10-4-7-7-3-6-1-5v-8l3-10 5-8 8-6z" fill="#020DFF"/>
<path transform="translate(534,348)" d="m0 0h8l-1 13h3l2-4 4-5 8-4h7l5 5 6-1 8-4h9l5 4 3 7 6 38v5l-1 1h-8l-2-4-5-36-1-2-9 1-9 4v11l3 23v6l-2 1h-7l-1-1-4-46-5 2-11 10-2 8-1 22-1 1h-7l-2-2v-51z" fill="#020DFF"/>
<path transform="translate(306,348)" d="m0 0h8l1 4-2 9 7-6 5-5 4-2h8l5 5 6-1 8-4h9l5 4 3 7 6 38v5l-1 1h-8l-2-4-5-36-1-2-9 1-9 4v11l3 23v6l-2 1h-7l-1-1-4-46-5 2-11 9-2 7-1 16v8l-1 1h-7l-2-2-1-44 1-7z" fill="#020DFF"/>
<path transform="translate(172,500)" d="m0 0h8l1 3-2 5v5l14-12 3-1h7l5 5 5-1 8-4h11l5 5 4 17 4 28-1 5-6 1-4-4-4-31-2-8h-6l-10 4h-2l2 27 1 14-1 1h-8l-1-1-3-41-1-4-5 1-8 7-4 3-2 10v21h-8l-2-2v-51z" fill="#020DFF"/>
<path transform="translate(902,500)" d="m0 0h8l1 4-2 9 7-6 5-5 5-2h7l5 5 6-1 7-4h10l5 4 4 13 4 27v10l-3 2-5-1-2-4-5-36-1-2-9 1-9 4v11l3 23v6l-2 1h-7l-1-1-4-45-5 1-12 10-2 12v18l-1 1h-7l-2-2v-51z" fill="#020DFF"/>
<path transform="translate(1254,91)" d="m0 0h17v1h-5l-1 9 3 5 7 2 20-2 2-4 6 4 4 4 2 10 3 5-3 6-4 5-9 3-7 2-9 1h-19l-13-2-1-2 16 1 3-4-14-2v-2l-4-1-9-3-2-3 1-3 3 1v-2l2 1-1 2 6 2 5 1-1-3h2l1 4 9 2h18l1-2-7 1h-9l-8-3-3-5-4-4h-1l-1-7 8-3 2-3h2l-2-5h-8l-5 1-2-1 1-3z" fill="#58BCED"/>
<path transform="translate(748,652)" d="m0 0h15l9 5 3 5 1 7-5 5-6 4-19 7-7 2v4l11 4 16-1 10-6h4l1 2v6l-5 5-6 4-9 3h-12l-10-4-9-8-3-9 1-13 3-8 4-6 8-6z" fill="#020DFF"/>
<path transform="translate(413,347)" d="m0 0 10 1 8 4 3 3 2 5v5l-4 5-12 6-21 7v4l7 3 11 1 11-2 7-4h5l1 1-1 7-7 6-9 4-4 1h-11l-10-4-8-7-4-10 1-13 3-8 4-6 10-7z" fill="#020DFF"/>
<path transform="translate(292,956)" d="m0 0 6 1 4 25 2 12 3-7 11-29 3-2 5 1 3 8 5 24 2 8 6-18 5-21 3-2 7 1-1 10-8 27-5 12-3 5-2 1h-6l-5-10-3-17-1-8-3 3-9 22-5 8-5 1-3-3-4-10-3-16-3-20 1-5z" fill="#020DFF"/>
<path transform="translate(641,347)" d="m0 0 10 1 8 4 3 3 2 5v6l-7 6-15 6-15 5v4l7 3 11 1 12-2 5-4h5l1 1v6l-5 6-8 4-7 2h-11l-10-4-8-7-4-10 1-14 4-9 6-7 10-5z" fill="#020DFF"/>
<path transform="translate(316,651)" d="m0 0 9 2 8 5 3 7v5l-7 6-15 6-15 5v4l6 3 12 1 12-2 5-4h5l1 1v6l-5 6-8 4-7 2h-11l-10-4-8-7-4-10 1-13 4-10 5-6 8-5z" fill="#020DFF"/>
<path transform="translate(542,500)" d="m0 0h14l9 5 4 6v7l-9 7-24 9-6 1 2 4 8 3h19l8-4 1-1h5l1 1v6l-4 5-10 5-6 2h-12l-11-5-8-7-2-6v-14l3-10 7-8 8-5z" fill="#020DFF"/>
<path transform="translate(482,500)" d="m0 0h14l9 5 4 6v7l-9 7-18 7-10 3v3l4 3 8 2 15-1 8-4 5-2 3 4-1 5-6 5-8 4-7 2h-10l-12-5-6-5-4-8v-15l4-11 8-8z" fill="#020DFF"/>
<path transform="translate(338,804)" d="m0 0h5l2 4 4 33h2l13-35 1-1h8l6 28 3 12 2-4 8-27 2-9 6-1 3 2-1 9-8 27-4 11-4 6-7 1-4-5-5-21-2-8-2-1-3 10-6 15-6 9-5-1-3-4-3-9-4-22-3-15 2-3z" fill="#020DFF"/>
<path transform="translate(401,928)" d="m0 0h27l19 3 4 4-1 4-2 1-21 1-1 22v36l20 1 2 5-1 5-4 2h-41l-4-3v-5l4-3 5-1h8v-24l-1-7 1-4 1-19 1-6h-17l-3-2v-7z" fill="#020DFF"/>
<path transform="translate(767,320)" d="m0 0h26l19 3 4 3v5l-2 1h-23l1 59 19 1 2 5v5l-4 2h-42l-3-2v-6l3-3 13-2 1-39 1-20h-16l-5-5 2-5z" fill="#020DFF"/>
<path transform="translate(723,773)" d="m0 0h8l2 7v11l-1 19-1 5 13-9 5-2h11l5 4 3 8 2 24 2 12v7h-9l-2-5-2-18-1-19-4-1-8 2-5 4-7 11-1 5-1 19-2 2h-7l-1-1v-84z" fill="#020DFF"/>
<path transform="translate(171,925)" d="m0 0h9l1 1v37l1 3 10-8 5-2h12l5 4 3 9 3 32 1 9-3 2-6-1-2-3-2-18-1-21h-10l-5 3-7 9-3 8-1 19-2 3h-8l-1-1 1-25v-53l-1-5z" fill="#020DFF"/>
<path transform="translate(229,621)" d="m0 0h9v42l10-8 7-3h11l6 5 2 7 2 26 2 9v7l-1 1h-8l-2-4-2-17-1-21h-9l-6 3-4 5-5 8-2 24-1 2h-9v-85z" fill="#020DFF"/>
<path transform="translate(1028,321)" d="m0 0h8l1 1v42l-1 7 5-2 12-11 8-8 5-3 6 1-1 7-12 12-3 2 1 6 9 12 8 12 1 6-2 1h-6l-12-17-7-9-6 1-6 4-1 21-1 1h-7l-1-1v-83z" fill="#020DFF"/>
<path transform="translate(352,472)" d="m0 0 7 1 1 6v44l5-3 16-15 6-5 6-1 2 1-1 6-9 10-6 5v5l9 12 7 11 2 3v5l-7 1-4-4-6-10-10-12-5 1-5 3-1 2-1 20-1 1h-8l-1-5 1-41v-39z" fill="#020DFF"/>
<path transform="translate(559,359)" d="m0 0 3 1 4 46h9l-4-29v-11l10-5 9-1 2 3 5 36-1 3-2-3-5-3-3-1-2-2-5 2-3 12-1 1h-10l-7-8v-2l-8-2-2-1-1 3h-2l-2 6h-9v-1l7-1 1-22 2-8 7-7z" fill="#59C5EC"/>
<path transform="translate(645,776)" d="m0 0h57l14 2 2 1 1 6-2 3-33 1 1 19 2 49-4 2h-5l-1-1-2-41-2-28-19-2-8-3-2-3z" fill="#020DFF"/>
<path transform="translate(196,512)" d="m0 0 4 1 1 4 3 41h8l-1-14-1-12v-15l12-5h6l3 9 4 31 3 4-4-1-5-9-1-2-3 1h-3l-2 2-1 4h-2l-1 5-3 4h-10l-2-3-1-7h-2v-2h-11l-2 1-4 7h-9v-1h8l-1-8v-13l2-10 11-10z" fill="#59C5ED"/>
<path transform="translate(200,772)" d="m0 0h10l3 2v8l-7 2-8 2-4 6-2 7v4l18 1 2 2v6l-5 3-16 1v49l-4 2h-5l-1-1v-49l-11-1-3-2v-6l3-3 12-2v-9l4-13 8-7z" fill="#020DFF"/>
<path transform="translate(331,359)" d="m0 0 3 1 4 46h9l-4-29v-11l10-5 9-1 2 3 5 36-1 3-4-4-5-3-6-2v2h-2l-1 5-2 7-1 1h-10l-3-5-2-4-9-9-4 1-3 12-1 1h-9v-1l7-1v-16l2-13 5-5 8-7z" fill="#59C5EC"/>
<path transform="translate(507,347)" d="m0 0 8 1 2 3v3l8 1 1-3 4-2 2-3h9v1l-7 1-1 1v51l1 2-3-1v-2l-4-1-3-8-3 2-3 4-3 7h-10l-2-2-1-18 1-30 1-6z" fill="#59C5EC"/>
<path transform="translate(250,500)" d="m0 0 7 1 6 10 12 23 2 2 7-15 9-19 4-2h5l1 1v6l-17 36-10 23-7 20-1 1h-7l-2-2 2-10 6-15 3-7v-6l-12-22-10-19v-5z" fill="#020DFF"/>
<path transform="translate(981,500)" d="m0 0h5l4 4 14 27 2 6 2-1 15-33 3-3h6l2 1-1 6-5 12-16 34-10 25-4 8-1 1h-6l-1-1 1-9 10-25-1-6-10-19-11-20-1-5z" fill="#020DFF"/>
<path transform="translate(616,496)" d="m0 0h5l3 5 1 4v9l-4 2-5-1-1-5h-8l-12 4-2 5 16 3 9 4 4 5 2 10-4 8-10 6-4 1h-12l-12-5-4-4 1-5 1-1h7l12 2 12-1 2-3-1-5-10-4-12-3-7-5-1-2v-6l4-6 4-4 18-6z" fill="#020DFF"/>
<path transform="translate(383,648)" d="m0 0h5l3 5 1 12-5 3-4-1-1-6-9 1-13 5 1 4 15 3 8 4 6 7 1 9-4 7-10 6-5 1h-10l-12-4-5-4 1-7h7l12 2 12-1 3-3-1-4-4-3-18-5-6-4-2-3v-6l5-8 10-5z" fill="#020DFF"/>
<path transform="translate(711,344)" d="m0 0h5l3 7v11l-3 2-5-1-1-6-12 2-10 4v3l16 4 9 4 4 5 2 10-3 6-7 6-9 3h-10l-12-4-5-4 1-7 11 1 15 1 7-2 1-4-5-5-18-5-6-4-2-3 1-9 4-5 10-5z" fill="#020DFF"/>
<path transform="translate(1132,800)" d="m0 0 7 1 3 8v8l-2 2h-7l-2-6-11 2-10 3 1 4 18 5 6 4 5 8v9l-7 8-7 3-5 1h-8l-10-3-6-4-2-2 1-6h7l12 2 13-1 1-1v-8l-22-6-6-4-1-2v-10l5-6 15-6z" fill="#020DFF"/>
<path transform="translate(945,800)" d="m0 0h5l4 11v6l-4 3-5-1-1-6-8 1-12 4h-2v5l17 3 6 3 5 6 2 4v8l-4 7-10 5-4 1h-9l-10-3-6-4-2-3 1-5 4-1 13 3 14-1 3-3-1-6-11-3-12-3-6-5-1-2 1-9 4-5 8-4z" fill="#020DFF"/>
<path transform="translate(702,500)" d="m0 0h6l2 1v9l6-3 5-4 6-3h9l5 4 3 10 2 26 1 6v9h-8l-2-2-2-17-1-19-2-5-6 1-9 6-5 10-1 7v18l-1 1h-7l-3-2v-24l1-28z" fill="#020DFF"/>
<path transform="translate(548,652)" d="m0 0h6l2 1-1 9 6-3 8-6 3-1h9l5 4 3 7 1 5 1 25 2 12-1 2h-8l-2-2-1-7-1-31-1-2h-8l-6 4h-2l-2 4-5 12v22h-9l-2-3v-19l1-32z" fill="#020DFF"/>
<path transform="translate(701,499)" d="m0 0h6v1l-5 1-1 28v24l2 2-4-1v-2l-4-1-3-9-1-2-4 2 1 4-2 3-2 6-1 1h-10l-2-2-1-11v-15l1-21 2-7h10l1 1 1 15h2v-3l3-1 3 1 6-10z" fill="#59C5EC"/>
<path transform="translate(1080,804)" d="m0 0 7 1 1 1v52l-1 1h-7l-7-1-6 2h-9l-8-3-5-6-2-5-1-6v-31l2-4h9v36l1 5 2 1 21-1 1-41z" fill="#020DFF"/>
<path transform="translate(407,500)" d="m0 0h7l2 4-1 6 6-3 8-6 3-1h9l5 4 3 7 1 6 1 23 1 6v9h-8l-2-2-1-8-1-33-11 2-7 6-5 10-1 3v21l-1 1h-8l-2-4v-17l1-33z" fill="#020DFF"/>
<path transform="translate(850,652)" d="m0 0 7 1 1 1v8l6-3 4-4 6-3h9l5 5 3 9 2 26 1 5v9l-1 1h-7l-2-3-2-21-1-18-3-1-9 3-5 5-4 8-2 8v18l-1 1h-8l-2-6v-16l1-32z" fill="#020DFF"/>
<path transform="translate(947,348)" d="m0 0 7 1v53l-1 1h-7l-7-1-6 2h-8l-9-3-5-5-2-6-1-8v-26l2-7h9v38l2 4h14l8-1 1-41z" fill="#020DFF"/>
<path transform="translate(1014,805)" d="m0 0h9l2 20 2 31v22l-6 9-5 4-7 1-6-3-8-9-4-11 1-4h6l4 5 4 7 6 2 3-1 1-2v-18l-2-35z" fill="#020DFF"/>
<path transform="translate(420,632)" d="m0 0 6 1 1 1 1 17h12l5 2 1 6-2 3-3 1-14 1 1 13v29l-2 1h-7l-1-1-1-41-13-3-4-3v-6l2-1 15-1-1-16 1-2z" fill="#020DFF"/>
<path transform="translate(856,784)" d="m0 0 6 1 1 1 1 17 16 1 2 2v6l-4 3-15 1 2 33-1 9-2 1h-7l-1-1-1-41-13-3-5-5 3-5 14-1v-16l1-2z" fill="#020DFF"/>
<path transform="translate(926,512)" d="m0 0 4 1 4 45h9l-4-29v-11l10-5 9-1 2 3 5 36-1 3-5-10-3-3-9 1-2 5v10l-2 3h-10l-2-3-1-9-4-4v-5l-4 2-5-2-1-5h2l-3-5v-5l-2 1-2 3 1-5 12-10z" fill="#59C5ED"/>
<path transform="translate(1171,784)" d="m0 0 5 2 1 2v15h13l5 2 1 1-1 7-4 2-13 1 1 40-4 3h-6l-2-42-14-3-4-4 1-5 1-1 15-1v-16z" fill="#020DFF"/>
<path transform="translate(771,481)" d="m0 0h8l2 2v16l17 1 1 1v7l-5 3-13 1 1 6 1 34-1 2-9 1-1-1v-42l-11-1-6-3-2-4 3-4 14-1v-16z" fill="#020DFF"/>
<path transform="translate(988,348)" d="m0 0h9l10 4 4 4 1 5-2 2-6-1-3-1h-14l-6 5-5 9-1 6 2 5 5 4 3 1h8l9-3 4-3h5l1 6-4 6-8 5-6 2-10-1-10-5-6-7-2-4v-14l7-14 8-8z" fill="#020DFF"/>
<path transform="translate(190,652)" d="m0 0h10l12 6 2 2v6l-5 1-6-2h-13l-6 4-6 11v7l2 4 5 3 4 1h7l8-3 5-3h5l1 6-4 6-10 6-4 1h-7l-10-4-9-8-2-5v-14l4-10 7-9 7-5z" fill="#020DFF"/>
<path transform="translate(464,329)" d="m0 0h7l2 2 1 16 16 1 1 1v8l-4 2-14 1 1 5 1 35-4 3h-6l-1-5v-38l-11-1-6-3-1-5 2-3 15-1-1-7v-9z" fill="#020DFF"/>
<path transform="translate(872,329)" d="m0 0h7l2 3 1 15 17 1 1 6-2 4-16 2v41l-4 2h-5l-1-3v-40l-15-2-3-3v-5l2-2 14-1v-16z" fill="#020DFF"/>
<path transform="translate(1300,20)" d="m0 0h52v50l-4-5-7-11-9-10-5-5-9-8-14-8z" fill="#FEFEFE"/>
<path transform="translate(1351,131)" d="m0 0h1v51h-22l-26-1 5-4 11-7 10-9 11-12z" fill="#FEFEFE"/>
<path transform="translate(1280,61)" d="m0 0 32 1 1 5v40l-1 10h-4l-3-8-2-5-3-11-1-4h-2v-3h-2v-2l-4-2-7-4-2-7-5-7v-2z" fill="#FCFDFD"/>
<path transform="translate(497,804)" d="m0 0h9l4 7 1 12-2 4h-7l-1-1v-9l-9 1-12 6-1 3-1 31-3 2-6-1v-54h7l2 3v6l6-3 7-5z" fill="#020DFF"/>
<path transform="translate(494,956)" d="m0 0 7 1 1 9 5-2 8-6 6-2h9l4 7 1 6v8l-2 2h-7l-1-1v-9l-3-1-13 5-5 3-1 2-1 32-2 1h-6l-1-1v-53z" fill="#020DFF"/>
<path transform="translate(287,804)" d="m0 0 6 2 1 8 6-3 8-5 5-2h9l4 7 1 12-2 4h-7l-1-1v-9l-9 1-12 6-1 3-1 31-6 2-3-1v-54z" fill="#020DFF"/>
<path transform="translate(539,816)" d="m0 0h15l6 3 2 3v18l-4 5-8 3h-10l-6-3-5-6-1-9 3-8 6-5z" fill="#6BCCE8"/>
<path transform="translate(620,664)" d="m0 0h15l6 3 1 2v19l-3 5-8 3h-11l-6-4-4-5-1-3v-8l3-6 5-5z" fill="#6BCCE8"/>
<path transform="translate(677,359)" d="m0 0 1 3v6l5 5 8 3 12 3 5 4 1 4-3 4-13 1-19-3v7l4 4-7-2-2-2-4 2-3 2-3-1 6-4 2-3v-6h-5l-5 4-3 1h-8l2-1-1-3v-3l2-1v-2h2v-3h6l5-3 10-2 2-4 1-8z" fill="#59C5EC"/>
<path transform="translate(1088,806)" d="m0 0h1l1 12 1-2h4v-2l6-1v12l4 4 9 3 13 4 3 3v6l-2 2-13 1-19-3v6l3 4h-8l-2-1-1 7-18-2 3-2 14 1z" fill="#59C5ED"/>
<path transform="translate(987,360)" d="m0 0h14l4 8v2l6-1 1 7-1 5-2 2 2 2-6 2-7 4-5 1h-8l-6-3-4-4-1-5 3-9 6-8z" fill="#6ACCE8"/>
<path transform="translate(706,620)" d="m0 0h6l2 1v30l-1 54-1 2h-9l-1-1v-18l2-67z" fill="#020DFF"/>
<path transform="translate(771,656)" d="m0 0 4 2 2 5 6 3 6-3h2l-2 5-3 9v11l3 9 2 4h-6l-4-2-4 3-2-1 5-5v-8l-7 3-7 4-16 1-11-4-1-5 8-3 21-8 7-5 1-6-3-7z" fill="#59C5ED"/>
<path transform="translate(611,924)" d="m0 0 6 1v44l-1 41-1 1h-8l-1-1v-60l1-25z" fill="#020DFF"/>
<path transform="translate(638,924)" d="m0 0h8l1 1v63l-1 22-1 1h-9l1-86z" fill="#020DFF"/>
<path transform="translate(232,500)" d="m0 0 5 2 1 2h8l1-3h1l3 9 17 32 3 5v6h-1l-2-6-7-4-3 1-1 4-9 3-2 4-4 2-4-1 6-2-2-17-4-25-3-8z" fill="#59C5ED"/>
<path transform="translate(469,803)" d="m0 0 8 1 2 2v3l10-2-5 5-3 2h-3l-2-8-7-1v54l3 1h-21l-3-3 11 2-3-10-2-3-1-7v-15l1-13v-2l9 2v-2l3-2 1-3z" fill="#59C5ED"/>
<path transform="translate(849,651)" d="m0 0h5l-4 2h-2v48l1 5h8v-18l1-5h1v24l-1 1h-29v-1l8-1-2-6-4-9v-19l2-14 6 2h3l2-3h2l1-5z" fill="#59C5ED"/>
<path transform="translate(264,360)" d="m0 0h13l4 4 1 3v13l-3 7-5 4-4 1h-8l-5-3-3-3-1-3v-10l5-10z" fill="#59C5EC"/>
<path transform="translate(563,968)" d="m0 0h13l4 4 1 3v15l-4 6-4 3-3 1h-9l-6-4-3-7v-7l3-7 5-6z" fill="#6BCCE8"/>
<path transform="translate(252,968)" d="m0 0h13l4 5 1 3v12l-3 7-5 4-3 1h-9l-6-4-3-5v-10l4-8 4-4z" fill="#6BCDE8"/>
<path transform="translate(244,816)" d="m0 0h12l5 5 1 3v13l-4 7-4 3-3 1h-8l-6-3-3-3-1-3v-10l4-8 4-4z" fill="#59C5EC"/>
<path transform="translate(828,512)" d="m0 0h13l4 5 1 4v11l-4 8-4 3-3 1h-9l-5-3-3-3-1-3v-10l4-8 4-4z" fill="#59C5EC"/>
<path transform="translate(961,500)" d="m0 0 4 1 4 3 7-1 1-2 2 1 1 5 14 26 5 10-1 2-3-4h-6l-1 4-5 2-4-3-2 5-2 7-4-1 2-1v-10l-5-32-4-9z" fill="#59C5ED"/>
<path transform="translate(509,664)" d="m0 0h13v28l-5 3-4 1h-11l-4-2-4-7v-9l3-6 7-6z" fill="#59C5EC"/>
<path transform="translate(804,816)" d="m0 0h13v27l-3 3-7 2h-10l-5-4-3-6v-8l5-8 5-4z" fill="#59C5ED"/>
<path transform="translate(432,816)" d="m0 0h13v28l-6 3-4 1h-10l-5-4-3-6v-7l4-8 6-5z" fill="#59C5ED"/>
<path transform="translate(811,664)" d="m0 0h11v29l-4 2-6 1h-8l-6-3-3-7v-8l4-8 8-5z" fill="#59C5EC"/>
<path transform="translate(196,512)" d="m0 0 4 1 1 4 2 29v12l-2-1-1-7h-2v-2h-11l-2 1-4 7h-9v-1h8l-1-8v-13l2-10 11-10z" fill="#59C5EC"/>
<path transform="translate(729,511)" d="m0 0 4 1 2 5 2 30 2 8-3-1-2-10v-2h-2v-2h-2v-2h-3l-3 6-5-2-4-2-2 13-2 3h-8v-1l7-1v-18l2-10 6-9 8-5z" fill="#59C5EC"/>
<path transform="translate(1237,62)" d="m0 0h23l4 2-4 6-1 8-4 2v2l-14 4-8 1-1-1v-22z" fill="#FDFDFD"/>
<path transform="translate(1019,64)" d="m0 0h2l2 5v6h-2l5 2v4h2l1 5-5 3-4-9 4 1-4-4-5 15-1 2-17 2-7-2v2l9 3 9 6 1 6-8 16-2-2 1-8 2-4-1-4-13-11-8-5 1-2 24-2 6-1 1-7 4-9z" fill="#020DFF"/>
<path transform="translate(506,349)" d="m0 0h9v52l-2 2h-7l-2-4v-26l1-22z" fill="#020DFF"/>
<path transform="translate(1025,323)" d="m0 0h1l1 5v78h7l1-21 9-6 5 1 10 13 7 10-1 2-5-7-7-1-5 4-10 2-3 5h-9l-2-3v-26l1-24z" fill="#59C5ED"/>
<path transform="translate(674,501)" d="m0 0h9v52l-2 2h-7l-1-1v-52z" fill="#020DFF"/>
<path transform="translate(464,509)" d="m0 0 3 1-4 9-1 4v15l4 8 2 3-8-1-4 7-3 1h-9v-1h8l-2-15-1-29 2 1h8l1-2z" fill="#59C5ED"/>
<path transform="translate(211,335)" d="m0 0 7 1 4 3v2l3 1-1 8 1 4h2l3 4v3l3 1v5l-4-5-6-5-13-4-16-2-6-3v-8l4-4 2 1-4 4-1 6 9 2 1-10 1-2z" fill="#59C5EC"/>
<path transform="translate(589,663)" d="m0 0 8 2 4-2h4l-3 9-1 5v10l3 8 5 5 2 3-7-2-4 1-4 5-2 1h-10v-1h8l-2-14z" fill="#59C5ED"/>
<path transform="translate(762,805)" d="m0 0h3l4 5 1 7 6-2h4v2h4l-2 5-2 8v11l4 10 1 2h-8l-3 6h-2l-3-19-2-24-4-9z" fill="#59C5ED"/>
<path transform="translate(388,648)" d="m0 0 3 1 1 4h7v-2l13-1v2l-12 1 2 7 4 2 7 1v1h-11l-7 1-1-1-1 3-5 2h-5l1 5 7 10 1 4v7l-2 2v-8l-3-7-6-5-13-4-7-1-2-2 1-4 13-5 7-1 2 1 2 6 6-1 1-5-2-11z" fill="#59C5EC"/>
<path transform="translate(878,663)" d="m0 0 4 2 2 31 2 11h-2l-2-10-1-8h-7l-1 2-5-1-1-4-4-4-1-3-2 1 1-5 4-6 6-4z" fill="#59C5EC"/>
<path transform="translate(273,659)" d="m0 0 2 2 2 8 9-5h3l2 4-2 6-1 13 4 10 3 4-5-2-3-2v-2h-2l-1-2h-4l1 8-1 6-2 1h-9v-1l8-1v-7l-2-9z" fill="#59C5EC"/>
<path transform="translate(754,500)" d="m0 0 2 1-2 5 4 3 3 2-4 2 6 9v3l-2 5v6l-6-2-2-5h-3v7l-3 1 2 10v8l-1 1h-9v-1h8l-2-15-2-26-3-10-2-3h3l3 5 2 11 4-3-2-4-2-3 5-3z" fill="#59C5EC"/>
<path transform="translate(712,620)" d="m0 0h3l1 7v30l2 1v5h2l2 2 3-4h5v9l-2 11 1 11 6 9-4-2-4-3-4-13-1-1v-11l-4 2-1 6-1 17 1 4-4 8h-9v-1h8l1-56 1-30z" fill="#59C5EC"/>
<path transform="translate(1282,90)" d="m0 0 7 2 5 4 3 6-2 5-20 2-8-3-3-5 1-6 7 1 1-4z" fill="#DBE6EB"/>
<path transform="translate(396,803)" d="m0 0 7 1 1 1 1 7 1 1h9l-6 12-1 5 1 14 4 9-5-2-5-6-1-6-4 1-3 11-4 4-4 5-3-1 3-2 5-12 8-26 2-8v-5l-5-1-3-1z" fill="#59C5ED"/>
<path transform="translate(373,359)" d="m0 0 4 5 5 1 4-5h6l-4 16v7l4 10 3 4-4-1-5-3-4-2h-2v12l-1 1h-9v-1l8-1-1-10-4-27z" fill="#59C5EC"/>
<path transform="translate(335,681)" d="m0 0 9 1 1 3 5 1 2 4 6 1 5 2h10l1-2h5l-3-5-1-2 4 2 2 2-1 5-3 2-12 1-19-3v7l4 4-10-4-6 4-3-1 6-4 2-3v-6h-5l-5 4-9 1 2-9z" fill="#59C5ED"/>
<path transform="translate(529,506)" d="m0 0 2 1-6 7-3 10v14l3 7 2 3-4-1v-2h-2l-2-6-2 1-1 5-4 2 2-4-1-5-3-1-8 5-9 1 1-3-2-4 1-3 4-1v-2l4-2 2 1 4-2h7l2 1v-5l4-2v-8h3v-2z" fill="#59C5EC"/>
<path transform="translate(601,359)" d="m0 0 3 3 2 6 7-6 1-2h3l1 6-2 10v7l4 10 3 4-4-1-5-2-3-3-2 1-1 11-1 1h-9v-1l8-1-1-10-4-27z" fill="#59C5EC"/>
<path transform="translate(779,669)" d="m0 0h2v2h2l-1 4-5 6-11 1-3 2-2 1v8l-3 3h-8l-11-4-1-5 8-3 21-8 7-5z" fill="#6BCDE8"/>
<path transform="translate(995,363)" d="m0 0h7l3 5v2l6-1 1 7-1 5-2 2 2 2-8 2-1-7-3-1-6 1-5-2-2-2-1-10 3-2z" fill="#59C5ED"/>
<path transform="translate(820,519)" d="m0 0h2v4l2 1 4 6v2h9l7-7h1v10l-5 7-5 2h-9l-5-3-3-3-1-3v-10z" fill="#6BCCE8"/>
<path transform="translate(373,805)" d="m0 0 3 4 1 8h2v-2l5-2v-2h2v-2l3-1 3 1 1-4 1 2-3 14-7 24h-3l-5-22-3-15z" fill="#59C5EC"/>
<path transform="translate(557,818)" d="m0 0 4 2 1 2v18l-2 2-1-3-9-1-9-3-2-3v-7l2-4 3-1h9l5 2v-2z" fill="#59C5ED"/>
<path transform="translate(1030,89)" d="m0 0 30 2-5 5-8 7-10 7-1 2h2l3 10-1 4-5-5-4-10v-5l10-8 7-3h-20l-4-4v-1z" fill="#020DFE"/>
<path transform="translate(237,823)" d="m0 0 2 1v3l3 1 2 7 6 1 8-3h3v7l-5 6-5 2h-8l-6-3-3-3v-12z" fill="#6CCDE8"/>
<path transform="translate(231,619)" d="m0 0 7 1v1l-9 1v78l-1 7h9v1h-10l-4-6-1-13 1-7h2l-1-8-1-9v-3l2-9 1-9v-16l1-7z" fill="#59C5ED"/>
<path transform="translate(359,473)" d="m0 0 2 1 1 17 4 2 2 5v5l7 3h5l-6 7-11 10-4 1z" fill="#59C5ED"/>
<path transform="translate(754,815)" d="m0 0 5 2 2 30 1 11-2-1-3-20-5-1-7-1-1-6h-2l-2-2-4 3 2-5 6-7 4-2z" fill="#59C5ED"/>
<path transform="translate(567,528)" d="m0 0h7l8 6-4 1v3l11 1 6 2 4 2h-8l-4-1h-7l-1 5 4 5-7-2-1-2-3-1 1-9h-5l-6 4-9 1 1-3-2-4 1-3 4-1v-2z" fill="#59C5EC"/>
<path transform="translate(344,805)" d="m0 0 1 2 4 2 1 1h6l5-2 2 1-1 5-10 27h-4l-4-33z" fill="#59C5ED"/>
<path transform="translate(305,347)" d="m0 0h8v1l-7 1-1 1-1 13 1 38 1 2-3-1-5-10-3-9-2-4-2 1-1-16 2 3 1 3 2-4 5-4 2-9 2-5z" fill="#59C5EC"/>
<path transform="translate(946,347)" d="m0 0 4 1-6 1v41l-1 1h-8v-1l6-1 1-4-6-5-3 3-3-1-2-4v-8l-1-3 4-6 7 6 2 1 2-13 1-7z" fill="#59C5ED"/>
<path transform="translate(804,816)" d="m0 0h10v2l-14 3-2 2v10l4 6 7 3v4h-2v2h-10l-5-4-3-6v-8l5-8 5-4z" fill="#6ACCE8"/>
<path transform="translate(871,360)" d="m0 0h1l1 23v20l8-2v-41h1l1 5 5 1 4 1 3-1 4 3 1 9-2 7h-4l-3-4-4-10-2 1-1-2v32l-4 2h-8l-1-2-1-41z" fill="#59C5ED"/>
<path transform="translate(1297,109)" d="m0 0h3l-2 6-6 5-7 3-3 2-6-1-1-1v-5l-9 2-1-2 5-6 7-1z" fill="#DFE7EB"/>
<path transform="translate(285,803)" d="m0 0 8 1 2 3v3l4-1 6-3 3 1-8 5-3 2h-3l-2-8-7-1v54l-2-1-2-9-3-9-2-10 3-8 2-5 2-12z" fill="#59C5ED"/>
<path transform="translate(638,666)" d="m0 0 3 1 1 2v19h-1l-1-5-5 2h-9l-5-3-1-2 1-9 5-3 6 1v2h3v3h5z" fill="#59C5ED"/>
<path transform="translate(503,522)" d="m0 0 2 1-6 7h-2v2l-4 1 1 3v3 3l-4 2-11-1-6-3-3-4 5-3 21-7z" fill="#6BCCE8"/>
<path transform="translate(940,812)" d="m0 0 4 1 2 6 3 2-3 1 1 7h2l4 9v9h-1l-2-10-4-6-5-3-11-3-8-2-1-3 3-3z" fill="#5BC6EC"/>
<path transform="translate(1017,117)" d="m0 0h7l8 4 3 5 10 8v2l-5-1-16-10-5-2-16 10-7 3 2-5 4-4 5-6z" fill="#020DFE"/>
<path transform="translate(433,817)" d="m0 0h10l-3 2-12 3-2 7 1 7 5 4 4 4v2l-7 1h-6l-5-6-1-3v-7l4-8 4-4z" fill="#6BCCE8"/>
<path transform="translate(1128,812)" d="m0 0 4 1 1 5 7 1v1l-7 2 2 5 3 3 2 9-3-4-4-5-10-4-12-3-1-5 13-5z" fill="#59C5ED"/>
<path transform="translate(607,509)" d="m0 0h8l2 6 4 2-4 1 1 7h2l1 4-9-5-11-3-8-2 1-5 9-4z" fill="#5AC5EC"/>
<path transform="translate(681,375)" d="m0 0 16 2 9 4 1 7-10 2-7-1-2-2h-3l2-4-7-1-2-5z" fill="#6CCDE8"/>
<path transform="translate(333,805)" d="m0 0 2 1-1 4 2 6 4 24 3 11 3 6 5 1 5-8 1 3-4 6-1 1h-6l-4-5-3-6-3-11-1-7-4-2-3-3h-3l1-7-1-11 3 3 4-4z" fill="#59C5ED"/>
<path transform="translate(255,664)" d="m0 0h9l1 1v21h-1l-1-5h-5l-1 3-4 1-4-6-2-4 4-6 3 1 9-3v-2l-10 2-6 5-2 5h-2l-2 4v-3l6-9 5-4z" fill="#59C5ED"/>
<path transform="translate(566,971)" d="m0 0h7l4 6 1 1v-7l2 1 1 3v8h-3l-5 5-5 1-6-3-2-7v-6z" fill="#59C5ED"/>
<path transform="translate(707,356)" d="m0 0 3 1 2 6 4 2-5 2 2 7-9-3-16-4-2-3 6-4 9-3z" fill="#59C5EC"/>
<path transform="translate(261,968)" d="m0 0 5 1 3 4 1 3v12h-1l-1-6-4 2v2l-3 2-7-1-3-3v-8l4-4 9-1 3 3-3-4z" fill="#59C5ED"/>
<path transform="translate(256,370)" d="m0 0 3 3v2h2l3 5 7 2 6 1v6l-7 3h-8l-5-3-3-8v-7z" fill="#6CCDE8"/>
<path transform="translate(545,512)" d="m0 0h14l1 4-8 4-17 7h-5l1-7 4-5z" fill="#6DCDE8"/>
<path transform="translate(485,512)" d="m0 0h14l1 4-8 4-18 7h-4l1-7 8-7z" fill="#6BCCE8"/>
<path transform="translate(312,664)" d="m0 0h14l1 4-8 4-18 7h-4l1-7 4-5z" fill="#6CCDE8"/>
<path transform="translate(640,360)" d="m0 0h14l1 4-8 4-18 7h-4l1-7 4-5z" fill="#6BCDE8"/>
<path transform="translate(1193,130)" d="m0 0 3 4 6 11 11 12 11 11 16 9 11 3 13 1 32 1-3 2h-34l-13-2-16-7-11-8-10-9-10-13-6-12z" fill="#B5DAE9"/>
<path transform="translate(752,664)" d="m0 0h14l1 3-3 3-21 8-6 1 1-7 4-5z" fill="#6BCDE8"/>
<path transform="translate(412,360)" d="m0 0h13l1 5-18 7-7 3h-4l1-7 4-5z" fill="#6ECEE8"/>
<path transform="translate(287,958)" d="m0 0 2 4 5 32 2 10-3-4-2-8-3 1-1-3-4-1-1-11v-7l5-2z" fill="#59C5ED"/>
<path transform="translate(892,777)" d="m0 0h7l1 1-1 12-3 12-7 1-1-1 1-13 2-11z" fill="#020DFF"/>
<path transform="translate(199,668)" d="m0 0h3l4 6 4 1 3 12 1 2h-5v-3l-2-4h-8l-2 1-7-3 1-7z" fill="#59C5ED"/>
<path transform="translate(1105,831)" d="m0 0 13 2 11 4 1 2v6l-2 2h-9l-6-3v-7l-8-2-1-3z" fill="#6ACCE8"/>
<path transform="translate(366,825)" d="m0 0 3 1 6 26 4 8-4-2-6-7-4-8h-2v2l-6 5 3-10z" fill="#59C5EC"/>
<path transform="translate(852,816)" d="m0 0 2 1v41h-1l-1-29-5 1-2 4-4 2v2h-3l-3-11v-5h7l5 2v2l5-2z" fill="#59C5ED"/>
<path transform="translate(207,969)" d="m0 0h1v21l-1-3-5 1-1 2-6-1-2-5 1-6 10-7z" fill="#59C5ED"/>
<path transform="translate(1240,128)" d="m0 0 8 1 6 2v1l13 2-4 6-18-1-10-4v-2h2l2-4z" fill="#DCE6EB"/>
<path transform="translate(321,977)" d="m0 0h2l2 8 3 17-1 3-2-7-8-1-5 8-3 1 2-6 9-22z" fill="#59C5ED"/>
<path transform="translate(414,664)" d="m0 0 4 1 1 41h9l-1-29v-13l2 1 2 16v20l-2 6-2 1h-9l-2-3v-25l-2-6 1-1 1-8z" fill="#59C5ED"/>
<path transform="translate(899,348)" d="m0 0 9 1 1-1h10v1l-9 1-1 6v26l2 14-2-1-2-9v-22l-3-1-1-4-7 1h-14v-1l16-2z" fill="#59C5EC"/>
<path transform="translate(250,499)" d="m0 0 8 1 3 3 6 11 6 12v3l3-1 3-9 1-1h5l2-4-1 5-7 16-3 2-10-19-9-16-7-2z" fill="#59C5EC"/>
<path transform="translate(1236,24)" d="m0 0 3 1-18 11-4 2-2 4-12 15-9 17-4 10-1-4 5-14 7-12 8-10 8-8 13-9z" fill="#B5DAE9"/>
<path transform="translate(348,474)" d="m0 0h1l1 5v34l-1 45 8 1v1h-9l-1-1v-50z" fill="#59C5ED"/>
<path transform="translate(1041,809)" d="m0 0h1l1 31 2 9 4 6 1 2-4-2-6-4-2-5-1-12-1-4 3-8z" fill="#59C5EC"/>
<path transform="translate(346,959)" d="m0 0 1 4-7 26-4 9-2-3-1-11 1 2 2-1 2-13 4-5h2l1-6z" fill="#59C5ED"/>
<path transform="translate(1023,805)" d="m0 0 2 1v11h3l3 10 1 5 1 6-4 2-1-1-1 17h-1l-3-45z" fill="#59C5ED"/>
<path transform="translate(1013,804)" d="m0 0h10v1h-9l3 53v18l-2 3-5 1-5-3v-3l2 1v2h7v-16l-2-50z" fill="#59C5ED"/>
<path transform="translate(242,361)" d="m0 0h5l-1 5-1 3v17l2 7-6-3-1-1v-9l-3-13z" fill="#59C5ED"/>
<path transform="translate(1250,113)" d="m0 0 9 9v3l8 2h16l-1 3h-18l-9-3-1-4-3 1v-3l-7-1-1-4h6z" fill="#AED8E9"/>
<path transform="translate(507,805)" d="m0 0 4 4 2 7 11-1-3 10-2 13h-1l-1-8-5-5-1 2-2-1 1-9-2-9z" fill="#59C5ED"/>
<path transform="translate(1064,819)" d="m0 0h4v2h2l2 10-2 5-4 2-4-3-1-9z" fill="#59C5ED"/>
<path transform="translate(1037,323)" d="m0 0h1l1 23 1 16h6 3l-4 5-5 4h-4z" fill="#59C5ED"/>
<path transform="translate(1283,76)" d="m0 0 1 2 5 2 6 4 1 4-4-2-10-2-13-1-21 2 1-2 6-2 19-1 8-2z" fill="#5AC5EC"/>
<path transform="translate(964,363)" d="m0 0h5l1 3-3 7v14l4 8-4-2-5-12v-2h-2l1-12z" fill="#59C5ED"/>
<path transform="translate(1259,18)" d="m0 0h93v1l-64 1-39 1 3-2z" fill="#B5DAE9"/>
<path transform="translate(1053,805)" d="m0 0 2 4v6l-1 1v24l4 5h18v-37l2-3v41l-1 1-21 1-3-2-1-5v-26z" fill="#59C5ED"/>
<path transform="translate(770,512)" d="m0 0h2l1 42h9l-1-42 2 4 1 16v21l-1 2-3 1h-8l-1-1-1-10-1-3 1-5v-10l-2-6z" fill="#59C5ED"/>
<path transform="translate(463,360)" d="m0 0h1l1 25v17h6l3-2-1-40 2 4 1 37-1 2-3 1h-8l-1-1-1-16v-12l-2-4 1-1z" fill="#59C5ED"/>
<path transform="translate(220,513)" d="m0 0h7v2l-5 1-1 2h-2l-1 2h-2l-2 15h-2v-3h-2v-15z" fill="#69CCE9"/>
<path transform="translate(1282,90)" d="m0 0 7 2 5 4 2 5h-5l-2-6-2 1 1 4-2 1-1-4h-11l-4 2-4-4 6 1 1-4z" fill="#59C5ED"/>
<path transform="translate(590,848)" d="m0 0h6l3 3v6l-2 2h-9l-1-1v-8z" fill="#020DFF"/>
<path transform="translate(496,683)" d="m0 0 6 2 5 4 5 1 1 4-1 1h-8l-6-1-2-7z" fill="#6DCDE8"/>
<path transform="translate(679,476)" d="m0 0 6 1 2 3-1 5-2 2h-8l-2-3v-5z" fill="#020DFF"/>
<path transform="translate(426,941)" d="m0 0h1v39l1 17 3 1 14 1v1h-19l-1-1v-36z" fill="#59C5ED"/>
<path transform="translate(192,796)" d="m0 0 1 4 4 2 7-1 2-5 4 2 1 5 3 2-1 8-1 2-4 1h-14v-1l13-1 4-2v-6l-1-1-18-1-1-5z" fill="#59C5ED"/>
<path transform="translate(238,621)" d="m0 0 2 3v22l-1 8h4l1-4 4 1h-3l2 3 5-1-4 3-8 7h-2z" fill="#59C5ED"/>
<path transform="translate(508,325)" d="m0 0h8l3 4-2 5-1 1h-8l-2-3 1-5z" fill="#020DFF"/>
<path transform="translate(668 1e3)" d="m0 0 6 1 2 2v6l-2 2h-8l-2-6 2-4z" fill="#020DFF"/>
<path transform="translate(732,791)" d="m0 0h1v6h2l3 7v3l5-2 3 1-11 7-4 2z" fill="#59C5ED"/>
<path transform="translate(407,940)" d="m0 0h10l-1 25-1 7 1 4v10l-1 14h-5l4-1-1-13v-19l2-23 1-3h-9z" fill="#59C5ED"/>
<path transform="translate(1014,781)" d="m0 0h7l2 2v6l-3 2h-6l-2-2v-6z" fill="#020DFF"/>
<path transform="translate(721,774)" d="m0 0h1l1 6-1 36h-1v-32l-2 4-2-1 1-5v-3l-16-2v-1h14l5 2z" fill="#59C5ED"/>
<path transform="translate(899,502)" d="m0 0h1l1 28v23l1 2-3-1-1-2v-46z" fill="#59C5ED"/>
<path transform="translate(1310,128)" d="m0 0h2v9l-1 2h-2v2l-7 1-6-1v-3l9-3z" fill="#FBFCFC"/>
<path transform="translate(1240,128)" d="m0 0 8 1 6 2-4 2h-4l-2 2 4 3-3 1-10-4v-2h2l2-4z" fill="#B3D9E9"/>
<path transform="translate(473,331)" d="m0 0h1l1 13 1 1 15 2 4 3v3h-2l-2 6-3 1h-13v-1l12-1 4-1-1-8-16-1-1-1z" fill="#59C5ED"/>
<path transform="translate(1039,114)" d="m0 0 2 2 3 14 2 3v4l-3-1h2l-5-5-8-7v-3l-2-1h3l1-3 3 6 3 2z" fill="#5CC3ED"/>
<path transform="translate(563,968)" d="m0 0h13l3 5v6l-5-4-1-3h-13l-4 3 2-4z" fill="#68CBE9"/>
<path transform="translate(1128,812)" d="m0 0 4 1-1 6-2-1v-2l-8 1-4 6-4-1v-2h-2l1-3 11-4z" fill="#69CCE8"/>
<path transform="translate(1230,134)" d="m0 0 7 1 12 5-2 2h-10l-6-2z" fill="#FBFCFC"/>
<path transform="translate(797,686)" d="m0 0 8 1 3 2v2l4 2-1 2-12-1-2-3z" fill="#6CCDE8"/>
<path transform="translate(644,620)" d="m0 0 3 1h-2l-1 29-1 6-6-1-4-3 9 1-1-16z" fill="#59C5ED"/>
<path transform="translate(781,483)" d="m0 0h1l1 14 16 2 2 2-1 9-4 2-6 1-7-1v-1l11-1 4-2v-7l-13-1-4-1z" fill="#59C5ED"/>
<path transform="translate(588,504)" d="m0 0 2 1-6 7-1 2v6l7 7-7 1-4-3v-9l2-5z" fill="#59C5ED"/>
<path transform="translate(1254,91)" d="m0 0h9l2 3-4 2-8 1-3 2-5-1 1-3z" fill="#020DFF"/>
<path transform="translate(605,950)" d="m0 0 2 3v58h-2l-1-28-2-1 2-6z" fill="#59C5ED"/>
<path transform="translate(1007,113)" d="m0 0h1v6l4 1-6 3-6 8h-2l-1 6h-3l1-6 3-10 2 4 1 1z" fill="#59C5ED"/>
<path transform="translate(863,816)" d="m0 0 2 1 1 23 1 7-1 10-3 3h-8v-1l9-1z" fill="#59C5ED"/>
<path transform="translate(1281,134)" d="m0 0 4 2v3l-5 1h-11l-1-5z" fill="#D6E4EB"/>
<path transform="translate(200,652)" d="m0 0 7 1 9 5 4 6-1 4h-3v3h-2v-3h-5l3-2h2l-2-7-12-6z" fill="#59C5ED"/>
<path transform="translate(429,382)" d="m0 0h6l6 2-1 2-7 1-8 4h-8l6-3 2-3 2 1v-3z" fill="#59C5ED"/>
<path transform="translate(1267,135)" d="m0 0 2 4 11 1v2h-19l-13-2-1-2 16 1z" fill="#5AC5EC"/>
<path transform="translate(571,809)" d="m0 0h1l1 37 2 7-2 7h-8l-1-2 8 1-1-8z" fill="#59C5ED"/>
<path transform="translate(537,514)" d="m0 0 2 1-4 2 2 4 7 1-2 2-7 3h-5l1-7 4-5z" fill="#59C5EC"/>
<path transform="translate(352,659)" d="m0 0v3l-2 4v6l5 5 4 3h-9l-3-2v-14z" fill="#59C5ED"/>
<path transform="translate(316,960)" d="m0 0 1 3-7 18h-1l-1-8 3-9h4z" fill="#59C5ED"/>
<path transform="translate(414,500)" d="m0 0 4 1 6 1 5-1-4 4-7 5h-3v-8z" fill="#59C5ED"/>
<path transform="translate(404,362)" d="m0 0 2 1-6 6 7 1 5-2 4 1-15 6h-4l1-7 4-5z" fill="#5AC5EC"/>
<path transform="translate(304,666)" d="m0 0 2 1-6 7h7l6-1-2 2-10 4h-4l1-7 4-5z" fill="#5BC5EC"/>
<path transform="translate(910,528)" d="m0 0h1l1 12 1 2-1 13-2 1h-8v-1l7-1v-18z" fill="#59C5ED"/>
<path transform="translate(542,348)" d="m0 0 3 3 8-1-6 7-3 4h-3z" fill="#59C5ED"/>
<path transform="translate(181,927)" d="m0 0h1l1 34 4 1-5 5-2-4z" fill="#59C5EC"/>
<path transform="translate(498,501)" d="m0 0 5 1 6 4 1 3 3 2 1 6-3 3-2-2-2-9-5-5z" fill="#59C5ED"/>
<path transform="translate(581,361)" d="m0 0h8v2l-7 3-3 2h-7v-3z" fill="#68CBE9"/>
<path transform="translate(1259,18)" d="m0 0h20l-1 2-18 1h-11l3-2z" fill="#8CD0EA"/>
<path transform="translate(744,666)" d="m0 0 2 1-6 7 8 1-3 2-4 2h-4l1-7 4-5z" fill="#5BC5EC"/>
<path transform="translate(554,652)" d="m0 0h3v3l10-1-5 5-4 3h-3l1-9z" fill="#59C5ED"/>
<path transform="translate(545,512)" d="m0 0h14l1 4-8 4-3-1 6-5h-15v-1z" fill="#59C5ED"/>
<path transform="translate(180,503)" d="m0 0 2 2 7-1-6 7-4 3-1-1 1-7z" fill="#59C5ED"/>
<path transform="translate(632,362)" d="m0 0 2 1-6 6 8 2-3 2-4 2h-4l1-7 4-5z" fill="#5BC6EC"/>
<path transform="translate(472,519)" d="m0 0 6 3h6l-2 2-8 3h-4l1-7z" fill="#59C5ED"/>
<path transform="translate(911,501)" d="m0 0 1 3h6l-3 5-4 4h-2l1-9z" fill="#59C5ED"/>
<path transform="translate(315,349)" d="m0 0 1 3h6l-3 5-4 4h-2l1-9z" fill="#59C5ED"/>
<path transform="translate(878,663)" d="m0 0 3 3-1 4-7 1-2-4 3-1v-2z" fill="#6CCDE8"/>
<path transform="translate(710,501)" d="m0 0 2 3 1-1 10-1-10 8h-3z" fill="#59C5ED"/>
<path transform="translate(412,360)" d="m0 0h13l1 5-7 3-3-1 5-5h-14v-1z" fill="#59C5ED"/>
<path transform="translate(836,804)" d="m0 0 2 1-2 4 4 4 3 2-10 1-2-6 3-3z" fill="#59C5ED"/>
<path transform="translate(733,833)" d="m0 0h1l1 10-1 7-1 9-2 1h-8v-1l7-1 1-1 1-19z" fill="#59C5ED"/>
<path transform="translate(804,816)" d="m0 0h10v2l-14 3-6 2 5-5z" fill="#62C8EA"/>
<path transform="translate(863,786)" d="m0 0h1l1 16h12l3 2h-16l-1-1z" fill="#59C5ED"/>
<path transform="translate(1007,352)" d="m0 0 6 2v6l2 1 1 4-4 2-1-2-5-1 4-2 1-3-3-5z" fill="#59C5ED"/>
<path transform="translate(1236,24)" d="m0 0 3 1-18 11-5 3 1-3 13-9z" fill="#92D2EA"/>
<path transform="translate(416,632)" d="m0 0 4 1h-3v18h-4l2-17z" fill="#59C5EC"/>
<path transform="translate(869,653)" d="m0 0 3 1-6 3-5 5h-3v-8l1 3z" fill="#59C5ED"/>
<path transform="translate(1244,120)" d="m0 0 7 1v3h2l1 3-6-1-6-3v-2z" fill="#DFE7EB"/>
<path transform="translate(1252,97)" d="m0 0 1 4 5 1v2l-8 1-3-4v-2z" fill="#5BC5EC"/>
<path transform="translate(1253,97)" d="m0 0h7l2 6-4 1-5-3z" fill="#DAE6EB"/>
<path transform="translate(316,816)" d="m0 0 2 1v9l7 1v1h-8l-3-1-2-6 4-1z" fill="#59C5ED"/>
<path transform="translate(299,686)" d="m0 0 3 1-2 2v2l8 1 9 3v1l-12-1-7-4z" fill="#59C5EC"/>
<path transform="translate(558,501)" d="m0 0 6 1 6 7 2 4-1 5h-2l-2-9-5-5z" fill="#59C5ED"/>
<path transform="translate(627,382)" d="m0 0 2 1v3l7 2 9 3v1l-11-1-8-4z" fill="#59C5EC"/>
<path transform="translate(427,634)" d="m0 0h1v15l14 1 2 2h-16l-1-1z" fill="#59C5ED"/>
<path transform="translate(471,535)" d="m0 0 3 3 11 3 5 2v1l-11-1-6-3-3-4z" fill="#59C5ED"/>
<path transform="translate(952,513)" d="m0 0h5l-1 2-6 3-2 2h-8l3-3z" fill="#6ECEE8"/>
<path transform="translate(398,383)" d="m0 0 3 3 16 5v1l-11-1-8-4z" fill="#59C5ED"/>
<path transform="translate(783,681)" d="m0 0h1l1 11-2 2-4-7 2-1z" fill="#6CCDE8"/>
<path transform="translate(530,535)" d="m0 0 2 1 2 2 11 3 2 2h-7l-9-4z" fill="#59C5ED"/>
<path transform="translate(317,373)" d="m0 0 2 3v9l-4 2v-8z" fill="#6ECEE8"/>
<path transform="translate(1149,804)" d="m0 0 2 1-1 5 3 4-5 1-3-3 1-5z" fill="#59C5ED"/>
<path transform="translate(834,512)" d="m0 0 6 1 3 3-1 3-7-4h-7l1-2z" fill="#6ECEE8"/>
<path transform="translate(1022,66)" d="m0 0 2 2 5 12-1 3v-2h-2v-4l-5-1-1-2h2z" fill="#56C0ED"/>
<path transform="translate(754,815)" d="m0 0 3 3-4 3-8-1 4-3z" fill="#6DCDE8"/>
<path transform="translate(312,664)" d="m0 0h14l1 4-3 2h-3l-1-3 2-1-10-1z" fill="#59C5ED"/>
<path transform="translate(1271,71)" d="m0 0h6l-1 4h-10l1-3z" fill="#59C5ED"/>
<path transform="translate(993,863)" d="m0 0 6 1 5 5 1 4h-3l-3-6-7-2-1 2v-3z" fill="#59C5ED"/>
<path transform="translate(640,360)" d="m0 0h14l1 4-3 2h-3l1-4-10-1z" fill="#59C5ED"/>
<path transform="translate(739,691)" d="m0 0 10 1 9 3v1h-8l-11-4z" fill="#59C5ED"/>
<path transform="translate(752,664)" d="m0 0h14l1 3-3 3h-3l1-4-10-1z" fill="#59C5ED"/>
<path transform="translate(1025,93)" d="m0 0 3 1h21l-3 3-5 1v-1l-14-1-2-1z" fill="#66C8EC"/>
<path transform="translate(707,356)" d="m0 0 3 1v5l-9-2v-3z" fill="#67CBE9"/>
<path transform="translate(444,351)" d="m0 0h2l2 5 5 2v1h-10z" fill="#59C5ED"/>
<path transform="translate(1029,83)" d="m0 0 3 6-9 2-1-1v-6l2 3 4-1z" fill="#63C7EC"/>
<path transform="translate(331,656)" d="m0 0 4 2 4 6-1 5-2 1-3-11z" fill="#59C5ED"/>
<path transform="translate(357,361)" d="m0 0h4v2l-8 3-7 2-1-2z" fill="#6ECEE8"/>
<path transform="translate(881,333)" d="m0 0h1l1 12 1 1 14 1v1h-16l-1-1z" fill="#59C5ED"/>
<path transform="translate(1007,113)" d="m0 0h1v6l4 1-10 5 3-7z" fill="#69C8EC"/>
<path transform="translate(1263,109)" d="m0 0h2l-1 4h-2v2l-4 1-1-4z" fill="#DBE6EB"/>
<path transform="translate(748,816)" d="m0 0 4 1-5 2-3-1zm-5 3m-1 1 2 2-2 3h-2l-2 4-2 1 2-5z" fill="#5BC6EC"/>
<path transform="translate(500,816)" d="m0 0 2 1v9l7 1v1h-8l-3-3v-3h2z" fill="#59C5ED"/>
<path transform="translate(1281,100)" d="m0 0 1 3-5 2h-7l2-1 1-3z" fill="#88CFEA"/>
<path transform="translate(1286,95)" d="m0 0h3l2 4-1 4-5 1 2-5z" fill="#A0D6EB"/>
<path transform="translate(993,509)" d="m0 0 4 4 4 7v5l-3-4-5-10z" fill="#59C5ED"/>
<path transform="translate(221,370)" d="m0 0 3 1 1 2v7l-3 3-1-4 1-7z" fill="#59C5ED"/>
<path transform="translate(1268,120)" d="m0 0 6 1v3l-8 1z" fill="#020DFF"/>
<path transform="translate(925,514)" d="m0 0 1 2-1 6-5-1 2-5z" fill="#6DCDE8"/>
<path transform="translate(485,512)" d="m0 0h14l1 4-5 2 1-4-11-1z" fill="#59C5ED"/>
<path transform="translate(1011,385)" d="m0 0 2 1v2h2l-2 6-5 5-2-1 4-5 1-6z" fill="#59C5ED"/>
<path transform="translate(1237,127)" d="m0 0h3l-3 6h-2l-1 2v-3h-2v-2z" fill="#E4E9EC"/>
<path transform="translate(1013,523)" d="m0 0 1 2-3 6-3-2 1-5z" fill="#59C5ED"/>
</svg>
