<?xml version="1.0" encoding="UTF-8"?>
<svg version="1.1" xmlns="http://www.w3.org/2000/svg" width="1917" height="897">
<path d="M0 0 C632.61 0 1265.22 0 1917 0 C1917 296.01 1917 592.02 1917 897 C1284.39 897 651.78 897 0 897 C0 600.99 0 304.98 0 0 Z " fill="#212529" transform="translate(0,0)"/>
<path d="M0 0 C247.5 0 495 0 750 0 C750 204.6 750 409.2 750 620 C746.04 620 742.08 620 738 620 C738 619.34 738 618.68 738 618 C733.71 618 729.42 618 725 618 C725 617.01 725 616.02 725 615 C721.04 615 717.08 615 713 615 C713 614.34 713 613.68 713 613 C708.71 613 704.42 613 700 613 C700 612.01 700 611.02 700 610 C696.04 610 692.08 610 688 610 C688 601.75 688 593.5 688 585 C679.75 585 671.5 585 663 585 C663 584.34 663 583.68 663 583 C658.71 583 654.42 583 650 583 C650 575.41 650 567.82 650 560 C646.04 560 642.08 560 638 560 C638 559.34 638 558.68 638 558 C633.71 558 629.42 558 625 558 C625 550.41 625 542.82 625 535 C621.04 535 617.08 535 613 535 C613 532.69 613 530.38 613 528 C608.71 528 604.42 528 600 528 C600 526.35 600 524.7 600 523 C596.04 523 592.08 523 588 523 C588 511.45 588 499.9 588 488 C583.71 488 579.42 488 575 488 C575 482.06 575 476.12 575 470 C571.04 470 567.08 470 563 470 C563 469.34 563 468.68 563 468 C558.71 468 554.42 468 550 468 C550 467.01 550 466.02 550 465 C546.04 465 542.08 465 538 465 C538 462.69 538 460.38 538 458 C533.71 458 529.42 458 525 458 C525 453.71 525 449.42 525 445 C521.04 445 517.08 445 513 445 C513 444.34 513 443.68 513 443 C508.71 443 504.42 443 500 443 C500 441.35 500 439.7 500 438 C496.04 438 492.08 438 488 438 C488 430.41 488 422.82 488 415 C483.71 415 479.42 415 475 415 C475 411.04 475 407.08 475 403 C471.04 403 467.08 403 463 403 C463 395.41 463 387.82 463 380 C458.71 380 454.42 380 450 380 C450 375.05 450 370.1 450 365 C446.04 365 442.08 365 438 365 C438 361.04 438 357.08 438 353 C429.75 353 421.5 353 413 353 C413 349.7 413 346.4 413 343 C408.71 343 404.42 343 400 343 C400 341.35 400 339.7 400 338 C396.04 338 392.08 338 388 338 C388 334.7 388 331.4 388 328 C383.71 328 379.42 328 375 328 C375 323.71 375 319.42 375 315 C362.79 315 350.58 315 338 315 C338 310.05 338 305.1 338 300 C333.71 300 329.42 300 325 300 C325 293.4 325 286.8 325 280 C321.04 280 317.08 280 313 280 C313 266.8 313 253.6 313 240 C308.71 240 304.42 240 300 240 C300 237.69 300 235.38 300 233 C291.75 233 283.5 233 275 233 C275 229.7 275 226.4 275 223 C271.04 223 267.08 223 263 223 C263 219.7 263 216.4 263 213 C258.71 213 254.42 213 250 213 C250 211.35 250 209.7 250 208 C246.04 208 242.08 208 238 208 C238 200.41 238 192.82 238 185 C233.71 185 229.42 185 225 185 C225 182.69 225 180.38 225 178 C221.04 178 217.08 178 213 178 C213 177.01 213 176.02 213 175 C208.71 175 204.42 175 200 175 C200 170.05 200 165.1 200 160 C196.04 160 192.08 160 188 160 C188 159.34 188 158.68 188 158 C183.71 158 179.42 158 175 158 C175 153.05 175 148.1 175 143 C166.75 143 158.5 143 150 143 C150 142.01 150 141.02 150 140 C146.04 140 142.08 140 138 140 C138 137.69 138 135.38 138 133 C133.71 133 129.42 133 125 133 C125 125.41 125 117.82 125 110 C121.04 110 117.08 110 113 110 C113 101.75 113 93.5 113 85 C108.71 85 104.42 85 100 85 C100 81.04 100 77.08 100 73 C96.04 73 92.08 73 88 73 C88 69.7 88 66.4 88 63 C83.71 63 79.42 63 75 63 C75 62.01 75 61.02 75 60 C71.04 60 67.08 60 63 60 C63 52.74 63 45.48 63 38 C58.71 38 54.42 38 50 38 C50 35.36 50 32.72 50 30 C46.04 30 42.08 30 38 30 C38 26.7 38 23.4 38 20 C29.75 20 21.5 20 13 20 C13 18.35 13 16.7 13 15 C8.71 15 4.42 15 0 15 C0 10.05 0 5.1 0 0 Z " fill="#000000" transform="translate(585,209)"/>
<path d="M0 0 C1.90548866 -0.01268921 1.90548866 -0.01268921 3.84947205 -0.02563477 C5.26004156 -0.01980166 6.67060981 -0.01365714 8.08117676 -0.00723267 C9.56442146 -0.01129707 11.04766313 -0.01663821 12.53089905 -0.02316284 C16.56186129 -0.03685803 20.5925936 -0.0315288 24.62355995 -0.02202559 C28.83823907 -0.01444035 33.05289825 -0.02147143 37.26757812 -0.02618408 C44.3459426 -0.03164496 51.42421324 -0.02444134 58.50256348 -0.01016235 C66.69089958 0.00616483 74.87901161 0.00087655 83.06734228 -0.01564157 C90.09246412 -0.02924701 97.11751842 -0.03118073 104.14264917 -0.02332556 C108.34073721 -0.01864384 112.53871985 -0.01803783 116.73680115 -0.02793503 C120.68324736 -0.03658876 124.62940414 -0.03061222 128.57581902 -0.01325226 C130.02585812 -0.00927885 131.4759215 -0.01043604 132.925951 -0.01704025 C134.90187853 -0.02521127 136.87785916 -0.0131581 138.85375977 0 C139.96062386 0.00113108 141.06748795 0.00226215 142.20789337 0.00342751 C144.92687988 0.38095093 144.92687988 0.38095093 146.78306103 1.66950703 C148.82808621 4.72938479 148.3320672 8.39214323 148.29919434 11.95150757 C148.302845 12.82655441 148.30649567 13.70160126 148.31025696 14.60316467 C148.31837172 17.49934211 148.30474575 20.39496174 148.29016113 23.29110718 C148.28964268 25.29985046 148.29015979 27.30859426 148.29167175 29.31733704 C148.29158199 33.52815317 148.28114353 37.73877799 148.26306152 41.94955444 C148.24035969 47.35594992 148.23983247 52.7620661 148.24657917 58.16849613 C148.24991499 62.31623329 148.24329662 66.46390637 148.23344994 70.61163139 C148.22959205 72.60560204 148.22845215 74.5995798 148.23003578 76.59355354 C148.23040523 79.37577104 148.21782062 82.15762566 148.20153809 84.93978882 C148.2040155 85.7694516 148.20649292 86.59911438 148.20904541 87.45391846 C148.15562216 93.15220865 148.15562216 93.15220865 145.92687988 95.38095093 C143.31532383 95.63542652 143.31532383 95.63542652 139.93605042 95.64164734 C138.02000252 95.65227455 138.02000252 95.65227455 136.06524658 95.66311646 C134.64160121 95.66082242 133.21795618 95.65831269 131.79431152 95.65560913 C130.30136357 95.65995429 128.80841785 95.66513677 127.31547546 95.6710968 C123.25351353 95.68451948 119.19164446 95.68506184 115.12966466 95.6825335 C111.74233701 95.68146597 108.35502832 95.68634159 104.96770471 95.69113892 C96.97825202 95.70224549 88.98884633 95.70266512 80.99938965 95.69662476 C72.74916833 95.69058328 64.49911749 95.70289771 56.24892527 95.72419482 C49.17287705 95.74179133 42.09688319 95.74781526 35.02081388 95.74455708 C30.79140208 95.7427409 26.56211186 95.74541354 22.3327198 95.75927162 C18.35593486 95.77181368 14.37941626 95.7699405 10.40263557 95.75686073 C8.94130363 95.75448743 7.47995314 95.75725651 6.01864243 95.76548386 C4.02735016 95.77588843 2.03598255 95.76608328 0.04469299 95.75517273 C-1.62861289 95.75542434 -1.62861289 95.75542434 -3.33572292 95.75568104 C-6.07312012 95.38095093 -6.07312012 95.38095093 -7.931674 94.09002209 C-9.95905294 91.05445622 -9.48755557 87.4486739 -9.46130371 83.9180603 C-9.46656067 83.05437332 -9.47181763 82.19068634 -9.47723389 81.30082703 C-9.49045269 78.44193511 -9.48168918 75.58359864 -9.47155762 72.72470093 C-9.47357781 70.74077243 -9.47648879 68.75684465 -9.48025513 66.7729187 C-9.48468103 62.61338232 -9.47823882 58.4540391 -9.4642334 54.29452515 C-9.44714142 48.95765559 -9.45698117 43.62123862 -9.47495079 38.28438568 C-9.48578141 34.18721088 -9.4823456 30.09014371 -9.47456741 25.9929657 C-9.47256341 24.02493741 -9.47503168 22.0568994 -9.48200607 20.08888245 C-9.48960865 17.34027142 -9.4780332 14.59239755 -9.46130371 11.84384155 C-9.4673764 11.02712479 -9.4734491 10.21040802 -9.47970581 9.36894226 C-9.41786046 3.89573898 -9.41786046 3.89573898 -7.92888069 1.67230034 C-5.25572361 -0.18784254 -3.24066807 0.00331156 0 0 Z " fill="#202731" transform="translate(1313.0731201171875,88.61904907226563)"/>
<path d="M0 0 C1.228255 -0.00845947 2.45651001 -0.01691895 3.72198486 -0.02563477 C5.08532847 -0.0198017 6.44867077 -0.01365718 7.81201172 -0.00723267 C9.2459961 -0.01129719 10.67997734 -0.0166384 12.11395264 -0.02316284 C16.01062425 -0.03685656 19.90705797 -0.03152942 23.80373383 -0.02202559 C27.87827707 -0.01443959 31.95279972 -0.02147164 36.02734375 -0.02618408 C42.87031722 -0.03164474 49.71319361 -0.02444193 56.55615234 -0.01016235 C64.47183321 0.0061648 72.38728228 0.00087651 80.30295753 -0.01564157 C87.09453633 -0.02924765 93.88604527 -0.03118042 100.67763329 -0.02332556 C104.73599422 -0.01864419 108.79424613 -0.01803686 112.8526001 -0.02793503 C116.66772584 -0.0365897 120.48255222 -0.03061054 124.29764557 -0.01325226 C125.69930778 -0.00927935 127.10099512 -0.0104352 128.5026474 -0.01704025 C130.41288871 -0.02521323 132.32318495 -0.01315639 134.23339844 0 C135.83838699 0.00169662 135.83838699 0.00169662 137.47579956 0.00342751 C140.11669922 0.38095093 140.11669922 0.38095093 141.96101665 1.66950703 C144.02340964 4.72369337 143.52191525 8.38903349 143.48901367 11.95150757 C143.49266434 12.82655441 143.496315 13.70160126 143.50007629 14.60316467 C143.50819106 17.49934211 143.49456508 20.39496174 143.47998047 23.29110718 C143.47946202 25.29985046 143.47997913 27.30859426 143.48149109 29.31733704 C143.48140133 33.52815317 143.47096286 37.73877799 143.45288086 41.94955444 C143.43017903 47.35594992 143.4296518 52.7620661 143.43639851 58.16849613 C143.43973432 62.31623329 143.43311596 66.46390637 143.42326927 70.61163139 C143.41941139 72.60560204 143.41827148 74.5995798 143.41985512 76.59355354 C143.42022457 79.37577104 143.40763995 82.15762566 143.39135742 84.93978882 C143.39383484 85.7694516 143.39631226 86.59911438 143.39886475 87.45391846 C143.3454415 93.15220865 143.3454415 93.15220865 141.11669922 95.38095093 C138.58323002 95.63542652 138.58323002 95.63542652 135.31568909 95.64164734 C133.46274734 95.65227455 133.46274734 95.65227455 131.57237244 95.66311646 C130.19595301 95.66082242 128.81953392 95.6583127 127.44311523 95.65560913 C125.99942765 95.65995438 124.55574237 95.66513689 123.11206055 95.6710968 C119.184391 95.68451856 115.25681748 95.68506195 111.32912946 95.6825335 C108.05364132 95.6814659 104.77817278 95.68634176 101.50268883 95.69113892 C93.77692421 95.70224517 86.0512082 95.7026653 78.32543945 95.69662476 C70.34787374 95.69058336 62.37048432 95.70289755 54.39294869 95.72419482 C47.5504438 95.74179217 40.70799513 95.74781513 33.86546844 95.74455708 C29.77578342 95.74274103 25.68622413 95.74541227 21.59655952 95.75927162 C17.75109564 95.77181505 13.90590718 95.76993923 10.06044769 95.75686073 C8.64749243 95.75448772 7.234518 95.75725548 5.8215847 95.76548386 C3.89597919 95.77589088 1.97029573 95.76608188 0.04469299 95.75517273 C-1.03397254 95.75534047 -2.11263807 95.75550821 -3.22399044 95.75568104 C-5.88330078 95.38095093 -5.88330078 95.38095093 -7.72999096 94.09002209 C-9.7746805 91.06002975 -9.2977599 87.45185683 -9.27148438 83.9180603 C-9.27674133 83.05437332 -9.28199829 82.19068634 -9.28741455 81.30082703 C-9.30063336 78.44193511 -9.29186984 75.58359864 -9.28173828 72.72470093 C-9.28375848 70.74077243 -9.28666946 68.75684465 -9.29043579 66.7729187 C-9.29486169 62.61338232 -9.28841949 58.4540391 -9.27441406 54.29452515 C-9.25732208 48.95765559 -9.26716183 43.62123862 -9.28513145 38.28438568 C-9.29596207 34.18721088 -9.29252626 30.09014371 -9.28474808 25.9929657 C-9.28274407 24.02493741 -9.28521234 22.0568994 -9.29218674 20.08888245 C-9.29978932 17.34027142 -9.28821387 14.59239755 -9.27148438 11.84384155 C-9.27755707 11.02712479 -9.28362976 10.21040802 -9.28988647 9.36894226 C-9.22798042 3.8903666 -9.22798042 3.8903666 -7.72719765 1.67230034 C-5.10609155 -0.16335754 -3.18561794 0.00336748 0 0 Z " fill="#202731" transform="translate(1479.88330078125,88.61904907226563)"/>
<path d="M0 0 C1.10204269 -0.00845947 2.20408539 -0.01691895 3.33952332 -0.02563477 C5.15369499 -0.01652573 5.15369499 -0.01652573 7.0045166 -0.00723267 C8.27785355 -0.01248962 9.55119049 -0.01774658 10.8631134 -0.02316284 C14.35691433 -0.03685148 17.85044981 -0.03153159 21.34425545 -0.02202559 C24.99839119 -0.01443692 28.65250401 -0.02147238 32.30664062 -0.02618408 C38.44344163 -0.03164396 44.58013437 -0.02444398 50.71691895 -0.01016235 C57.81463532 0.00616469 64.91209318 0.00087634 72.0098033 -0.01564157 C78.10075327 -0.02924987 84.19162536 -0.03117934 90.28258562 -0.02332556 C93.92176584 -0.0186454 97.56082451 -0.01803351 101.19999695 -0.02793503 C105.25608666 -0.03819977 109.31172981 -0.0239781 113.36779785 -0.00723267 C114.57724564 -0.01330536 115.78669342 -0.01937805 117.03279114 -0.02563477 C118.13483383 -0.01717529 119.23687653 -0.00871582 120.37231445 0 C121.81138027 0.00169662 121.81138027 0.00169662 123.27951813 0.00342751 C125.68615723 0.38095093 125.68615723 0.38095093 127.49488354 1.66950703 C129.60904876 4.70682348 129.09146334 8.37927991 129.05847168 11.95150757 C129.06212234 12.82655441 129.06577301 13.70160126 129.0695343 14.60316467 C129.07764906 17.49934211 129.06402309 20.39496174 129.04943848 23.29110718 C129.04892003 25.29985046 129.04943714 27.30859426 129.0509491 29.31733704 C129.05085933 33.52815317 129.04042087 37.73877799 129.02233887 41.94955444 C128.99963704 47.35594992 128.99910981 52.7620661 129.00585651 58.16849613 C129.00919233 62.31623329 129.00257396 66.46390637 128.99272728 70.61163139 C128.98886939 72.60560204 128.98772949 74.5995798 128.98931313 76.59355354 C128.98968257 79.37577104 128.97709796 82.15762566 128.96081543 84.93978882 C128.96329285 85.7694516 128.96577026 86.59911438 128.96832275 87.45391846 C128.9148995 93.15220865 128.9148995 93.15220865 126.68615723 95.38095093 C124.38694859 95.63542652 124.38694859 95.63542652 121.4546051 95.64164734 C119.79098183 95.65227455 119.79098183 95.65227455 118.09375 95.66311646 C116.8713562 95.66063904 115.6489624 95.65816162 114.38952637 95.65560913 C113.10658188 95.66072006 111.82363739 95.66583099 110.5018158 95.6710968 C106.97702299 95.68451535 103.45233723 95.6850623 99.92752385 95.6825335 C96.98755413 95.68146567 94.04760622 95.68634236 91.10764116 95.69113892 C84.17294054 95.70224409 77.23829408 95.70266593 70.30358887 95.69662476 C63.1439889 95.69058366 55.98458539 95.702897 48.82501894 95.72419482 C42.6831439 95.74179506 36.54133147 95.74781467 30.39943212 95.74455708 C26.72892668 95.74274146 23.05856136 95.74540788 19.38807869 95.75927162 C15.29598305 95.77414869 11.20428871 95.76489374 7.11218262 95.75326538 C5.28162827 95.76473099 5.28162827 95.76473099 3.41409302 95.77642822 C2.30219101 95.76941391 1.190289 95.7623996 0.04469299 95.75517273 C-0.92335738 95.75534047 -1.89140776 95.75550821 -2.88879299 95.75568104 C-5.31384277 95.38095093 -5.31384277 95.38095093 -7.12494183 94.09002209 C-9.22123538 91.07655418 -8.728376 87.46182435 -8.70202637 83.9180603 C-8.70728333 83.05437332 -8.71254028 82.19068634 -8.71795654 81.30082703 C-8.73117535 78.44193511 -8.72241183 75.58359864 -8.71228027 72.72470093 C-8.71430047 70.74077243 -8.71721145 68.75684465 -8.72097778 66.7729187 C-8.72540369 62.61338232 -8.71896148 58.4540391 -8.70495605 54.29452515 C-8.68786407 48.95765559 -8.69770382 43.62123862 -8.71567345 38.28438568 C-8.72650407 34.18721088 -8.72306825 30.09014371 -8.71529007 25.9929657 C-8.71328607 24.02493741 -8.71575433 22.0568994 -8.72272873 20.08888245 C-8.73033131 17.34027142 -8.71875586 14.59239755 -8.70202637 11.84384155 C-8.70809906 11.02712479 -8.71417175 10.21040802 -8.72042847 9.36894226 C-8.65834766 3.87490185 -8.65834766 3.87490185 -7.12214851 1.67230034 C-4.65812086 -0.08731397 -3.0163605 0.0035562 0 0 Z " fill="#202731" transform="translate(1165.3138427734375,88.61904907226563)"/>
<path d="M0 0 C1.05155777 -0.00845947 2.10311554 -0.01691895 3.1865387 -0.02563477 C4.33988205 -0.01956207 5.4932254 -0.01348938 6.68151855 -0.00723267 C8.50374184 -0.0151181 8.50374184 -0.0151181 10.36277771 -0.02316284 C13.69553608 -0.03411545 17.0277368 -0.0315328 20.3604641 -0.02202559 C23.84643688 -0.01443568 27.33238567 -0.02147273 30.81835938 -0.02618408 C36.67269169 -0.0316436 42.5269105 -0.02444494 48.38122559 -0.01016235 C55.15175678 0.00616464 61.92201697 0.00087626 68.6925416 -0.01564157 C74.5032402 -0.02925091 80.31385717 -0.03117884 86.12456656 -0.02332556 C89.5960748 -0.01864597 93.06745561 -0.01803194 96.53895569 -0.02793503 C100.40819858 -0.03820154 104.27713737 -0.02397624 108.1463623 -0.00723267 C109.87637733 -0.01634171 109.87637733 -0.01634171 111.64134216 -0.02563477 C112.69289993 -0.01717529 113.7444577 -0.00871582 114.82788086 0 C115.74301201 0.00113108 116.65814316 0.00226215 117.60100555 0.00342751 C119.91394043 0.38095093 119.91394043 0.38095093 121.70843029 1.66950703 C123.84316965 4.70016313 123.31928421 8.3752012 123.28625488 11.95150757 C123.28990555 12.82655441 123.29355621 13.70160126 123.2973175 14.60316467 C123.30543227 17.49934211 123.29180629 20.39496174 123.27722168 23.29110718 C123.27670323 25.29985046 123.27722034 27.30859426 123.2787323 29.31733704 C123.27864254 33.52815317 123.26820407 37.73877799 123.25012207 41.94955444 C123.22742024 47.35594992 123.22689301 52.7620661 123.23363972 58.16849613 C123.23697553 62.31623329 123.23035717 66.46390637 123.22051048 70.61163139 C123.2166526 72.60560204 123.21551269 74.5995798 123.21709633 76.59355354 C123.21746578 79.37577104 123.20488116 82.15762566 123.18859863 84.93978882 C123.19107605 85.7694516 123.19355347 86.59911438 123.19610596 87.45391846 C123.14268271 93.15220865 123.14268271 93.15220865 120.91394043 95.38095093 C118.70843601 95.63542652 118.70843601 95.63542652 115.91017151 95.64164734 C114.32227562 95.65227455 114.32227562 95.65227455 112.70230103 95.66311646 C111.53601166 95.66063904 110.36972229 95.65816162 109.16809082 95.65560913 C107.33145622 95.66327553 107.33145622 95.66327553 105.4577179 95.6710968 C102.09402475 95.68263953 98.7305775 95.68506249 95.36688161 95.6825335 C92.56111919 95.68146556 89.75537963 95.68634264 86.94962209 95.69113892 C80.33134696 95.70224359 73.71312858 95.70266623 67.09484863 95.69662476 C60.26243444 95.6905838 53.43022611 95.70289674 46.59784704 95.72419482 C40.73622385 95.74179641 34.87466626 95.74781446 29.01301759 95.74455708 C25.51018362 95.74274167 22.00749646 95.74540582 18.50468636 95.75927162 C14.59943653 95.77415125 10.69444993 95.76489244 6.78918457 95.75326538 C5.04278687 95.76473099 5.04278687 95.76473099 3.2611084 95.77642822 C1.66898277 95.76590675 1.66898277 95.76590675 0.04469299 95.75517273 C-1.34101347 95.75542434 -1.34101347 95.75542434 -2.75471401 95.75568104 C-5.08605957 95.38095093 -5.08605957 95.38095093 -6.88292217 94.09002209 C-8.9997239 91.08307974 -8.50062375 87.46598632 -8.47424316 83.9180603 C-8.47950012 83.05437332 -8.48475708 82.19068634 -8.49017334 81.30082703 C-8.50339215 78.44193511 -8.49462863 75.58359864 -8.48449707 72.72470093 C-8.48651727 70.74077243 -8.48942825 68.75684465 -8.49319458 66.7729187 C-8.49762048 62.61338232 -8.49117828 58.4540391 -8.47717285 54.29452515 C-8.46008087 48.95765559 -8.46992062 43.62123862 -8.48789024 38.28438568 C-8.49872086 34.18721088 -8.49528505 30.09014371 -8.48750687 25.9929657 C-8.48550286 24.02493741 -8.48797113 22.0568994 -8.49494553 20.08888245 C-8.5025481 17.34027142 -8.49097265 14.59239755 -8.47424316 11.84384155 C-8.48031586 11.02712479 -8.48638855 10.21040802 -8.49264526 9.36894226 C-8.43049749 3.8689757 -8.43049749 3.8689757 -6.88012886 1.67230034 C-4.47943693 -0.05568872 -2.9466072 0.00364193 0 0 Z " fill="#202731" transform="translate(1777.0860595703125,88.61904907226563)"/>
<path d="M0 0 C1.009487 -0.00845947 2.018974 -0.01691895 3.05905151 -0.02563477 C4.718936 -0.01652573 4.718936 -0.01652573 6.41235352 -0.00723267 C7.57840118 -0.01248962 8.74444885 -0.01774658 9.9458313 -0.02316284 C13.81110925 -0.03639716 17.67597742 -0.02761225 21.54125977 -0.01748657 C24.22022009 -0.01950631 26.89916783 -0.02241203 29.578125 -0.02618408 C35.19706689 -0.03164328 40.81589052 -0.02444581 46.43481445 -0.01016235 C52.93269166 0.00616459 59.43028649 0.00087619 65.92815685 -0.01564157 C71.50531273 -0.02925185 77.08238355 -0.03117838 82.65955067 -0.02332556 C85.9913405 -0.01864647 89.32296834 -0.01920692 92.65475464 -0.02793503 C96.36842115 -0.03552781 100.08154041 -0.02397501 103.79516602 -0.00723267 C104.90175568 -0.01330536 106.00834534 -0.01937805 107.14846802 -0.02563477 C108.15795502 -0.01717529 109.16744202 -0.00871582 110.20751953 0 C111.08577896 0.00113108 111.96403839 0.00226215 112.86891174 0.00342751 C115.61305655 0.46698428 116.50059294 1.12714033 118.10375977 3.38095093 C118.3948515 6.30885312 118.50311885 9.02320432 118.47607422 11.95150757 C118.47972488 12.82655441 118.48337555 13.70160126 118.48713684 14.60316467 C118.4952516 17.49934211 118.48162563 20.39496174 118.46704102 23.29110718 C118.46652257 25.29985046 118.46703968 27.30859426 118.46855164 29.31733704 C118.46846187 33.52815317 118.45802341 37.73877799 118.43994141 41.94955444 C118.41723957 47.35594992 118.41671235 52.7620661 118.42345905 58.16849613 C118.42679487 62.31623329 118.4201765 66.46390637 118.41032982 70.61163139 C118.40647193 72.60560204 118.40533203 74.5995798 118.40691566 76.59355354 C118.40728511 79.37577104 118.3947005 82.15762566 118.37841797 84.93978882 C118.38089539 85.7694516 118.3833728 86.59911438 118.38592529 87.45391846 C118.33250204 93.15220865 118.33250204 93.15220865 116.10375977 95.38095093 C113.9763422 95.63542652 113.9763422 95.63542652 111.28981018 95.64164734 C110.27328369 95.64873215 109.2567572 95.65581696 108.20942688 95.66311646 C107.0898912 95.66063904 105.97035553 95.65816162 104.81689453 95.65560913 C103.64123932 95.66072006 102.46558411 95.66583099 101.25430298 95.6710968 C98.02493632 95.68263847 94.79572833 95.68506263 91.56634641 95.6825335 C88.87242338 95.68146546 86.17852415 95.6863429 83.48460621 95.69113892 C77.13001892 95.70224313 70.77549074 95.70266649 64.42089844 95.69662476 C57.86113877 95.69058392 51.30159354 95.7028965 44.74187046 95.72419482 C39.11379042 95.74179764 33.48577872 95.74781426 27.85767215 95.74455708 C24.4945642 95.74274185 21.13160917 95.74540396 17.76852608 95.75927162 C14.01885407 95.77155685 10.26968304 95.76489157 6.52001953 95.75326538 C4.84375237 95.76473099 4.84375237 95.76473099 3.13362122 95.77642822 C2.1142749 95.76941391 1.09492859 95.7623996 0.04469299 95.75517273 C-1.2857059 95.75542434 -1.2857059 95.75542434 -2.64298153 95.75568104 C-4.89624023 95.38095093 -4.89624023 95.38095093 -6.68123913 94.09002209 C-8.81507457 91.08848028 -8.31083076 87.46953054 -8.28442383 83.9180603 C-8.28968079 83.05437332 -8.29493774 82.19068634 -8.300354 81.30082703 C-8.31357281 78.44193511 -8.30480929 75.58359864 -8.29467773 72.72470093 C-8.29669793 70.74077243 -8.29960891 68.75684465 -8.30337524 66.7729187 C-8.30780115 62.61338232 -8.30135894 58.4540391 -8.28735352 54.29452515 C-8.27026153 48.95765559 -8.28010129 43.62123862 -8.29807091 38.28438568 C-8.30890153 34.18721088 -8.30546571 30.09014371 -8.29768753 25.9929657 C-8.29568353 24.02493741 -8.2981518 22.0568994 -8.30512619 20.08888245 C-8.31272877 17.34027142 -8.30115332 14.59239755 -8.28442383 11.84384155 C-8.29049652 11.02712479 -8.29656921 10.21040802 -8.30282593 9.36894226 C-8.24062357 3.86414479 -8.24062357 3.86414479 -6.67844582 1.67230034 C-4.33082157 -0.02873977 -2.88741229 0.00371859 0 0 Z " fill="#202831" transform="translate(1640.896240234375,88.61904907226563)"/>
<path d="M0 0 C3.63 0 7.26 0 11 0 C11 203.28 11 406.56 11 616 C7.37 616 3.74 616 0 616 C0 412.72 0 209.44 0 0 Z " fill="#008000" transform="translate(1311,210)"/>
<path d="M0 0 C3.63 0 7.26 0 11 0 C11 201.63 11 403.26 11 611 C7.37 611 3.74 611 0 611 C0 409.37 0 207.74 0 0 Z " fill="#008000" transform="translate(1286,210)"/>
<path d="M0 0 C3.63 0 7.26 0 11 0 C11 192.39 11 384.78 11 583 C7.37 583 3.74 583 0 583 C0 390.61 0 198.22 0 0 Z " fill="#008000" transform="translate(1261,210)"/>
<path d="M0 0 C3.63 0 7.26 0 11 0 C11 191.73 11 383.46 11 581 C7.37 581 3.74 581 0 581 C0 389.27 0 197.54 0 0 Z " fill="#008000" transform="translate(1236,210)"/>
<path d="M0 0 C3.3 0 6.6 0 10 0 C10 203.94 10 407.88 10 618 C6.7 618 3.4 618 0 618 C0 414.06 0 210.12 0 0 Z " fill="#008000" transform="translate(1324,210)"/>
<path d="M0 0 C3.3 0 6.6 0 10 0 C10 202.29 10 404.58 10 613 C6.7 613 3.4 613 0 613 C0 410.71 0 208.42 0 0 Z " fill="#008000" transform="translate(1299,210)"/>
<path d="M0 0 C3.63 0 7.26 0 11 0 C11 183.48 11 366.96 11 556 C7.37 556 3.74 556 0 556 C0 372.52 0 189.04 0 0 Z " fill="#008000" transform="translate(1211,210)"/>
<path d="M0 0 C3.3 0 6.6 0 10 0 C10 200.64 10 401.28 10 608 C6.7 608 3.4 608 0 608 C0 407.36 0 206.72 0 0 Z " fill="#008000" transform="translate(1274,210)"/>
<path d="M0 0 C3.3 0 6.6 0 10 0 C10 192.39 10 384.78 10 583 C6.7 583 3.4 583 0 583 C0 390.61 0 198.22 0 0 Z " fill="#008000" transform="translate(1249,210)"/>
<path d="M0 0 C3.63 0 7.26 0 11 0 C11 173.58 11 347.16 11 526 C7.37 526 3.74 526 0 526 C0 352.42 0 178.84 0 0 Z " fill="#008000" transform="translate(1186,210)"/>
<path d="M0 0 C3.3 0 6.6 0 10 0 C10 184.14 10 368.28 10 558 C6.7 558 3.4 558 0 558 C0 373.86 0 189.72 0 0 Z " fill="#008000" transform="translate(1224,210)"/>
<path d="M0 0 C3.63 0 7.26 0 11 0 C11 160.38 11 320.76 11 486 C7.37 486 3.74 486 0 486 C0 325.62 0 165.24 0 0 Z " fill="#008000" transform="translate(1161,210)"/>
<path d="M0 0 C3.3 0 6.6 0 10 0 C10 175.89 10 351.78 10 533 C6.7 533 3.4 533 0 533 C0 357.11 0 181.22 0 0 Z " fill="#008000" transform="translate(1199,210)"/>
<path d="M0 0 C3.3 0 6.6 0 10 0 C10 171.93 10 343.86 10 521 C6.7 521 3.4 521 0 521 C0 349.07 0 177.14 0 0 Z " fill="#008000" transform="translate(1174,210)"/>
<path d="M0 0 C3.63 0 7.26 0 11 0 C11 153.78 11 307.56 11 466 C7.37 466 3.74 466 0 466 C0 312.22 0 158.44 0 0 Z " fill="#008000" transform="translate(1136,210)"/>
<path d="M0 0 C3.63 0 7.26 0 11 0 C11 150.48 11 300.96 11 456 C7.37 456 3.74 456 0 456 C0 305.52 0 155.04 0 0 Z " fill="#008000" transform="translate(1111,210)"/>
<path d="M0 0 C3.63 0 7.26 0 11 0 C11 145.53 11 291.06 11 441 C7.37 441 3.74 441 0 441 C0 295.47 0 149.94 0 0 Z " fill="#008000" transform="translate(1086,210)"/>
<path d="M0 0 C3.3 0 6.6 0 10 0 C10 154.44 10 308.88 10 468 C6.7 468 3.4 468 0 468 C0 313.56 0 159.12 0 0 Z " fill="#008000" transform="translate(1149,210)"/>
<path d="M0 0 C3.3 0 6.6 0 10 0 C10 152.79 10 305.58 10 463 C6.7 463 3.4 463 0 463 C0 310.21 0 157.42 0 0 Z " fill="#008000" transform="translate(1124,210)"/>
<path d="M0 0 C3.63 0 7.26 0 11 0 C11 136.29 11 272.58 11 413 C7.37 413 3.74 413 0 413 C0 276.71 0 140.42 0 0 Z " fill="#008000" transform="translate(1061,210)"/>
<path d="M0 0 C3.3 0 6.6 0 10 0 C10 146.19 10 292.38 10 443 C6.7 443 3.4 443 0 443 C0 296.81 0 150.62 0 0 Z " fill="#008000" transform="translate(1099,210)"/>
<path d="M0 0 C3.3 0 6.6 0 10 0 C10 143.88 10 287.76 10 436 C6.7 436 3.4 436 0 436 C0 292.12 0 148.24 0 0 Z " fill="#008000" transform="translate(1074,210)"/>
<path d="M0 0 C3.63 0 7.26 0 11 0 C11 124.74 11 249.48 11 378 C7.37 378 3.74 378 0 378 C0 253.26 0 128.52 0 0 Z " fill="#008000" transform="translate(1036,210)"/>
<path d="M0 0 C3.3 0 6.6 0 10 0 C10 132.33 10 264.66 10 401 C6.7 401 3.4 401 0 401 C0 268.67 0 136.34 0 0 Z " fill="#008000" transform="translate(1049,210)"/>
<path d="M0 0 C3.63 0 7.26 0 11 0 C11 115.83 11 231.66 11 351 C7.37 351 3.74 351 0 351 C0 235.17 0 119.34 0 0 Z " fill="#008000" transform="translate(1011,210)"/>
<path d="M0 0 C3.63 0 7.26 0 11 0 C11 112.53 11 225.06 11 341 C7.37 341 3.74 341 0 341 C0 228.47 0 115.94 0 0 Z " fill="#008000" transform="translate(986,210)"/>
<path d="M0 0 C3.3 0 6.6 0 10 0 C10 119.79 10 239.58 10 363 C6.7 363 3.4 363 0 363 C0 243.21 0 123.42 0 0 Z " fill="#008000" transform="translate(1024,210)"/>
<path d="M0 0 C3.63 0 7.26 0 11 0 C11 107.58 11 215.16 11 326 C7.37 326 3.74 326 0 326 C0 218.42 0 110.84 0 0 Z " fill="#008000" transform="translate(961,210)"/>
<path d="M0 0 C3.3 0 6.6 0 10 0 C10 115.83 10 231.66 10 351 C6.7 351 3.4 351 0 351 C0 235.17 0 119.34 0 0 Z " fill="#008000" transform="translate(999,210)"/>
<path d="M0 0 C3.63 0 7.26 0 11 0 C11 103.29 11 206.58 11 313 C7.37 313 3.74 313 0 313 C0 209.71 0 106.42 0 0 Z " fill="#008000" transform="translate(936,210)"/>
<path d="M0 0 C3.3 0 6.6 0 10 0 C10 110.88 10 221.76 10 336 C6.7 336 3.4 336 0 336 C0 225.12 0 114.24 0 0 Z " fill="#008000" transform="translate(974,210)"/>
<path d="M0 0 C3.63 0 7.26 0 11 0 C11 98.34 11 196.68 11 298 C7.37 298 3.74 298 0 298 C0 199.66 0 101.32 0 0 Z " fill="#008000" transform="translate(911,210)"/>
<path d="M0 0 C3.3 0 6.6 0 10 0 C10 103.29 10 206.58 10 313 C6.7 313 3.4 313 0 313 C0 209.71 0 106.42 0 0 Z " fill="#008000" transform="translate(949,210)"/>
<path d="M0 0 C3.3 0 6.6 0 10 0 C10 103.29 10 206.58 10 313 C6.7 313 3.4 313 0 313 C0 209.71 0 106.42 0 0 Z " fill="#008000" transform="translate(924,210)"/>
<path d="M0 0 C3.3 0 6.6 0 10 0 C10 91.74 10 183.48 10 278 C6.7 278 3.4 278 0 278 C0 186.26 0 94.52 0 0 Z " fill="#008000" transform="translate(899,210)"/>
<path d="M0 0 C3.63 0 7.26 0 11 0 C11 78.54 11 157.08 11 238 C7.37 238 3.74 238 0 238 C0 159.46 0 80.92 0 0 Z " fill="#008000" transform="translate(886,210)"/>
<path d="M0 0 C3.63 0 7.26 0 11 0 C11 76.23 11 152.46 11 231 C7.37 231 3.74 231 0 231 C0 154.77 0 78.54 0 0 Z " fill="#008000" transform="translate(861,210)"/>
<path d="M0 0 C3.63 0 7.26 0 11 0 C11 69.63 11 139.26 11 211 C7.37 211 3.74 211 0 211 C0 141.37 0 71.74 0 0 Z " fill="#008000" transform="translate(836,210)"/>
<path d="M0 0 C3.3 0 6.6 0 10 0 C10 76.23 10 152.46 10 231 C6.7 231 3.4 231 0 231 C0 154.77 0 78.54 0 0 Z " fill="#008000" transform="translate(874,210)"/>
<path d="M0 0 C3.3 0 6.6 0 10 0 C10 72.93 10 145.86 10 221 C6.7 221 3.4 221 0 221 C0 148.07 0 75.14 0 0 Z " fill="#008000" transform="translate(849,210)"/>
<path d="M0 0 C3.3 0 6.6 0 10 0 C10 67.98 10 135.96 10 206 C6.7 206 3.4 206 0 206 C0 138.02 0 70.04 0 0 Z " fill="#008000" transform="translate(824,210)"/>
<path d="M0 0 C3.63 0 7.26 0 11 0 C11 60.39 11 120.78 11 183 C7.37 183 3.74 183 0 183 C0 122.61 0 62.22 0 0 Z " fill="#008000" transform="translate(811,210)"/>
<path d="M0 0 C3.63 0 7.26 0 11 0 C11 57.09 11 114.18 11 173 C7.37 173 3.74 173 0 173 C0 115.91 0 58.82 0 0 Z " fill="#008000" transform="translate(786,210)"/>
<path d="M0 0 C3.3 0 6.6 0 10 0 C10 58.08 10 116.16 10 176 C6.7 176 3.4 176 0 176 C0 117.92 0 59.84 0 0 Z " fill="#008000" transform="translate(799,210)"/>
<path d="M0 0 C3.63 0 7.26 0 11 0 C11 51.48 11 102.96 11 156 C7.37 156 3.74 156 0 156 C0 104.52 0 53.04 0 0 Z " fill="#008000" transform="translate(761,210)"/>
<path d="M0 0 C0.66 -0.00773438 1.32 -0.01546875 2 -0.0234375 C4 0.375 4 0.375 5.78305054 1.87486267 C8.54315972 3.74253845 10.15915513 3.75818001 13.47119141 3.77563477 C15.11276718 3.79564293 15.11276718 3.79564293 16.7875061 3.8160553 C17.96364471 3.81617111 19.13978333 3.81628693 20.3515625 3.81640625 C21.56194183 3.82961411 22.77232117 3.84282196 24.01937866 3.85643005 C27.88794265 3.89736534 31.75626818 3.91901574 35.625 3.9375 C39.50080101 3.96124408 43.37637598 3.98928099 47.25204468 4.02928162 C49.66474525 4.05374098 52.07756638 4.06851604 54.49038696 4.07289124 C55.57846649 4.08307785 56.66654602 4.09326447 57.78759766 4.10375977 C58.74816071 4.10803482 59.70872375 4.11230988 60.69839478 4.11671448 C63 4.375 63 4.375 65 6.375 C65.25 9.375 65.25 9.375 65 12.375 C62.41542426 14.95957574 61.38234685 14.63024154 57.78759766 14.64624023 C56.15547836 14.66152016 56.15547836 14.66152016 54.49038696 14.67710876 C53.31019989 14.67924881 52.13001282 14.68138885 50.9140625 14.68359375 C48.43228931 14.70875335 45.95051854 14.73415139 43.46875 14.75976562 C39.54264952 14.78853277 35.61659088 14.81254018 31.69042969 14.83129883 C27.9105848 14.85291016 24.13123656 14.89234933 20.3515625 14.93359375 C18.58735458 14.93376747 18.58735458 14.93376747 16.7875061 14.9339447 C15.69312225 14.94728348 14.5987384 14.96062225 13.47119141 14.97436523 C12.50903717 14.97943588 11.54688293 14.98450653 10.55557251 14.98973083 C7.57859809 15.43852908 6.27298989 16.46301118 4 18.375 C2 18.7734375 2 18.7734375 0 18.75 C-0.66 18.75773437 -1.32 18.76546875 -2 18.7734375 C-4 18.375 -4 18.375 -5.6166687 16.87513733 C-9.01223383 14.73787089 -12.24450117 14.95118665 -16.13330078 14.97436523 C-17.35830795 14.96389664 -17.35830795 14.96389664 -18.60806274 14.95321655 C-21.30391769 14.93324152 -23.99939014 14.93374003 -26.6953125 14.93359375 C-28.5681156 14.92182469 -30.44090931 14.90846163 -32.31369019 14.89356995 C-37.24154951 14.85737264 -42.16932554 14.83717648 -47.09729004 14.82202148 C-54.99254899 14.79719263 -62.88762395 14.75768553 -70.78271103 14.70012093 C-73.54481003 14.68374495 -76.30673652 14.68001026 -79.06887817 14.67710876 C-80.75441796 14.6673368 -82.43995499 14.65707424 -84.12548828 14.64624023 C-84.89747559 14.64879318 -85.66946289 14.65134613 -86.46484375 14.65397644 C-91.77251974 14.60248026 -91.77251974 14.60248026 -94 12.375 C-94.25 9.375 -94.25 9.375 -94 6.375 C-91.4771437 3.8521437 -89.90683204 4.12941845 -86.46484375 4.09602356 C-85.69285645 4.09857651 -84.92086914 4.10112946 -84.12548828 4.10375977 C-82.90573807 4.09591965 -82.90573807 4.09591965 -81.66134644 4.08792114 C-79.89236512 4.07766542 -78.12335349 4.07189801 -76.35434341 4.07003975 C-73.55532902 4.06638669 -70.75667235 4.04968922 -67.95773315 4.02928162 C-59.99874518 3.97376838 -52.03970385 3.94317794 -44.08056641 3.91870117 C-39.21522325 3.90283469 -34.35013284 3.87262312 -29.4849205 3.83393669 C-27.62939002 3.82227618 -25.77381434 3.81635625 -23.91824722 3.81625557 C-21.32299648 3.81606372 -18.72844332 3.79781219 -16.13330078 3.77563477 C-15.36536194 3.78021194 -14.5974231 3.78478912 -13.80621338 3.789505 C-8.13847405 3.71242356 -5.21528849 -0.06111666 0 0 Z " fill="#0974F3" transform="translate(805,143.625)"/>
<path d="M0 0 C0.66 -0.00773438 1.32 -0.01546875 2 -0.0234375 C4 0.375 4 0.375 5.76583862 1.87486267 C8.60398889 3.78055096 10.34583492 3.75865312 13.74658203 3.77563477 C14.90102814 3.78897354 16.05547424 3.80231232 17.24490356 3.8160553 C18.48666351 3.81617111 19.72842346 3.81628693 21.0078125 3.81640625 C22.28477997 3.82961411 23.56174744 3.84282196 24.87741089 3.85643005 C28.26659222 3.89042158 31.65539038 3.91280677 35.04467773 3.92797852 C39.82791944 3.94987107 44.61094705 3.98249279 49.39401245 4.02928162 C51.9402621 4.0537468 54.48662608 4.0685171 57.0329895 4.07289124 C58.75520218 4.08817116 58.75520218 4.08817116 60.51220703 4.10375977 C61.52606476 4.10803482 62.53992249 4.11230988 63.58450317 4.11671448 C66 4.375 66 4.375 68 6.375 C68.25 9.375 68.25 9.375 68 12.375 C65.36699175 15.00800825 64.18492734 14.63075376 60.51220703 14.64624023 C58.78999435 14.66152016 58.78999435 14.66152016 57.0329895 14.67710876 C55.16427689 14.68031883 55.16427689 14.68031883 53.2578125 14.68359375 C50.63932068 14.70875306 48.02083115 14.7341511 45.40234375 14.75976562 C41.25898248 14.7905695 37.11560019 14.81275125 32.97216797 14.83129883 C28.98387207 14.85022897 24.9959402 14.89234398 21.0078125 14.93359375 C19.76605255 14.93370956 18.5242926 14.93382538 17.24490356 14.9339447 C16.09045746 14.94728348 14.93601135 14.96062225 13.74658203 14.97436523 C12.22340866 14.98197121 12.22340866 14.98197121 10.66946411 14.98973083 C7.61167668 15.43104458 6.32085799 16.40371666 4 18.375 C2 18.7734375 2 18.7734375 0 18.75 C-0.66 18.75773437 -1.32 18.76546875 -2 18.7734375 C-4 18.375 -4 18.375 -5.63388062 16.87513733 C-8.95166148 14.77163952 -12.05190406 14.95082004 -15.85791016 14.97436523 C-16.64532089 14.96738617 -17.43273163 14.9604071 -18.2440033 14.95321655 C-20.8424654 14.93324651 -23.44053051 14.93374005 -26.0390625 14.93359375 C-27.84460525 14.92182421 -29.65013826 14.90846103 -31.45565796 14.89356995 C-36.20596575 14.85737726 -40.95618715 14.83717783 -45.706604 14.82202148 C-53.31761137 14.79719001 -60.92842792 14.75768076 -68.53925705 14.70012093 C-71.2016415 14.68374702 -73.86384695 14.68001048 -76.52627563 14.67710876 C-78.15114659 14.6673367 -79.77601469 14.65707412 -81.40087891 14.64624023 C-82.144814 14.64879318 -82.88874908 14.65134613 -83.65522766 14.65397644 C-88.77251966 14.60248034 -88.77251966 14.60248034 -91 12.375 C-91.25 9.375 -91.25 9.375 -91 6.375 C-88.51272513 3.88772513 -87.04989831 4.13018465 -83.65522766 4.09602356 C-82.91129257 4.09857651 -82.16735748 4.10112946 -81.40087891 4.10375977 C-80.61697281 4.09853302 -79.83306671 4.09330627 -79.02540588 4.08792114 C-77.32026807 4.07766635 -75.61509882 4.07189817 -73.90993118 4.07003975 C-71.21172628 4.06638616 -68.51389229 4.04968724 -65.81576538 4.02928162 C-58.14352307 3.97377378 -50.47122545 3.94318018 -42.79882812 3.91870117 C-38.10854434 3.90283261 -33.41852261 3.87261885 -28.72837448 3.83393669 C-26.93983109 3.82227796 -25.15124084 3.81635627 -23.36265945 3.81625557 C-20.86079795 3.81606367 -18.35965947 3.79780854 -15.85791016 3.77563477 C-15.11802353 3.78021194 -14.3781369 3.78478912 -13.61582947 3.789505 C-8.02094955 3.71060702 -5.17783954 -0.06067781 0 0 Z " fill="#0974F3" transform="translate(587,143.625)"/>
<path d="M0 0 C3.3 0 6.6 0 10 0 C10 52.14 10 104.28 10 158 C6.7 158 3.4 158 0 158 C0 105.86 0 53.72 0 0 Z " fill="#008000" transform="translate(774,210)"/>
<path d="M0 0 C3.63 0 7.26 0 11 0 C11 46.53 11 93.06 11 141 C7.37 141 3.74 141 0 141 C0 94.47 0 47.94 0 0 Z " fill="#008000" transform="translate(736,210)"/>
<path d="M0 0 C3.63 0 7.26 0 11 0 C11 43.23 11 86.46 11 131 C7.37 131 3.74 131 0 131 C0 87.77 0 44.54 0 0 Z " fill="#008000" transform="translate(711,210)"/>
<path d="M0 0 C3.3 0 6.6 0 10 0 C10 46.53 10 93.06 10 141 C6.7 141 3.4 141 0 141 C0 94.47 0 47.94 0 0 Z " fill="#008000" transform="translate(749,210)"/>
<path d="M0 0 C3.3 0 6.6 0 10 0 C10 45.54 10 91.08 10 138 C6.7 138 3.4 138 0 138 C0 92.46 0 46.92 0 0 Z " fill="#008000" transform="translate(724,210)"/>
<path d="M0 0 C3.3 0 6.6 0 10 0 C10 35.64 10 71.28 10 108 C6.7 108 3.4 108 0 108 C0 72.36 0 36.72 0 0 Z " fill="#008000" transform="translate(699,210)"/>
<path d="M0 0 C3.63 0 7.26 0 11 0 C11 27.39 11 54.78 11 83 C7.37 83 3.74 83 0 83 C0 55.61 0 28.22 0 0 Z " fill="#008000" transform="translate(686,210)"/>
<path d="M0 0 C3.3 0 6.6 0 10 0 C10 23.43 10 46.86 10 71 C6.7 71 3.4 71 0 71 C0 47.57 0 24.14 0 0 Z " fill="#008000" transform="translate(674,210)"/>
<path d="M0 0 C3.63 0 7.26 0 11 0 C11 20.13 11 40.26 11 61 C7.37 61 3.74 61 0 61 C0 40.87 0 20.74 0 0 Z " fill="#008000" transform="translate(661,210)"/>
<path d="M0 0 C0.99 0 1.98 0 3 0 C4.66666667 0 6.33333333 0 8 0 C8.0744389 4.0384057 8.12873729 8.07654293 8.16479492 12.11547852 C8.17983432 13.48794517 8.20027133 14.86036414 8.22631836 16.23266602 C8.26291221 18.21088656 8.27816698 20.18946514 8.29296875 22.16796875 C8.3086792 23.35672607 8.32438965 24.5454834 8.34057617 25.77026367 C7.96657698 29.3169557 7.10996438 31.15847392 5 34 C0.7790943 36.89583967 -4.0796836 36.65180282 -9 36 C-12.125 34.25 -12.125 34.25 -14 32 C-14 30.68 -14 29.36 -14 28 C-12.35 28 -10.7 28 -9 28 C-9 28.99 -9 29.98 -9 31 C-7.54257537 31.08096803 -6.08387193 31.13917774 -4.625 31.1875 C-3.40683594 31.23970703 -3.40683594 31.23970703 -2.1640625 31.29296875 C-1.44992187 31.19628906 -0.73578125 31.09960938 0 31 C2.2773501 28.18490007 2.2773501 28.18490007 2 25 C1.34 25.33 0.68 25.66 0 26 C-7.07953977 26.58029015 -7.07953977 26.58029015 -10.875 24.1875 C-15.39371299 19.53588368 -15.4776786 16.20454777 -15.39453125 9.9609375 C-14.80415033 5.53015789 -13.31100765 3.91684007 -10 1 C-6.83598119 -0.58200941 -3.46125163 -0.06168567 0 0 Z " fill="#EFEFF0" transform="translate(913,40)"/>
<path d="M0 0 C7.5276878 -0.0462929 15.05536088 -0.08185365 22.58315849 -0.10362434 C26.07843927 -0.11407198 29.57362283 -0.12824883 33.06884766 -0.15087891 C37.08497056 -0.17671953 41.10099097 -0.18646466 45.1171875 -0.1953125 C47.00472244 -0.21079636 47.00472244 -0.21079636 48.9303894 -0.22659302 C50.09144196 -0.22674408 51.25249451 -0.22689514 52.44873047 -0.22705078 C53.47465302 -0.231492 54.50057556 -0.23593323 55.55758667 -0.24050903 C58 0 58 0 60 2 C60.25 5 60.25 5 60 8 C58 10 58 10 55.55758667 10.24050903 C54.01870285 10.2338472 54.01870285 10.2338472 52.44873047 10.22705078 C50.70715164 10.22682419 50.70715164 10.22682419 48.9303894 10.22659302 C47.67203278 10.21627045 46.41367615 10.20594788 45.1171875 10.1953125 C43.83264679 10.1924826 42.54810608 10.18965271 41.22463989 10.18673706 C37.80837233 10.17909809 34.39227463 10.15944752 30.97607422 10.1373291 C27.49058327 10.11687624 24.0050649 10.10773655 20.51953125 10.09765625 C13.67961769 10.07620175 6.839817 10.04206271 0 10 C0 6.7 0 3.4 0 0 Z " fill="#DFE0E1" transform="translate(595,148)"/>
<path d="M0 0 C3.3 0 6.6 0 10 0 C10 19.14 10 38.28 10 58 C6.7 58 3.4 58 0 58 C0 38.86 0 19.72 0 0 Z " fill="#008000" transform="translate(649,210)"/>
<path d="M0 0 C7.79619588 -0.05057624 15.5923497 -0.08568114 23.38867188 -0.10986328 C26.04265931 -0.11994089 28.6966356 -0.13360313 31.35058594 -0.15087891 C35.15823107 -0.17504992 38.96572984 -0.18646535 42.7734375 -0.1953125 C44.56254044 -0.21079636 44.56254044 -0.21079636 46.38778687 -0.22659302 C47.48877716 -0.22674408 48.58976746 -0.22689514 49.72412109 -0.22705078 C51.1830629 -0.23371262 51.1830629 -0.23371262 52.67147827 -0.24050903 C55 0 55 0 57 2 C57.25 5 57.25 5 57 8 C55 10 55 10 52.67147827 10.24050903 C51.6988504 10.23606781 50.72622253 10.23162659 49.72412109 10.22705078 C48.6231308 10.22689972 47.5221405 10.22674866 46.38778687 10.22659302 C45.19505157 10.21627045 44.00231628 10.20594788 42.7734375 10.1953125 C41.55548492 10.1924826 40.33753235 10.18965271 39.08267212 10.18673706 C35.18001617 10.17551256 31.27758697 10.15040372 27.375 10.125 C24.73437831 10.11497314 22.09375303 10.10584678 19.453125 10.09765625 C12.9686722 10.07556581 6.4843523 10.04206592 0 10 C0 6.7 0 3.4 0 0 Z " fill="#DFE0E1" transform="translate(813,148)"/>
<path d="M0 0 C3.43403788 2.00011167 6.21175747 4.42351494 8 8 C8.58429496 13.61822073 8.37616323 18.27337148 5 23 C0.91308799 25.91922286 -2.8958784 26.57917937 -7.8125 26.4296875 C-11.59143149 25.68739739 -13.37453992 23.75673308 -16 21 C-18.09948946 16.80102108 -17.54696419 11.56001667 -17 7 C-13.41271866 -0.1611773 -7.36951957 -1.19892184 0 0 Z " fill="#ECECED" transform="translate(818,40)"/>
<path d="M0 0 C4.17571169 1.4913256 6.85096329 3.06009936 9 7 C9 8.32 9 9.64 9 11 C7.02 11 5.04 11 3 11 C2.87625 10.360625 2.7525 9.72125 2.625 9.0625 C2.41875 8.381875 2.2125 7.70125 2 7 C-0.50139602 5.74930199 -2.27392691 5.86697533 -5.0625 5.875 C-5.96097656 5.87242188 -6.85945312 5.86984375 -7.78515625 5.8671875 C-9.97378893 5.75261777 -9.97378893 5.75261777 -11 7 C-11.04063832 8.66617115 -11.042721 10.33388095 -11 12 C-8.03543926 13.29699532 -5.29715266 14.15870746 -2.125 14.875 C2.13138357 15.89265528 5.33787325 17.60840702 9 20 C10.55024464 23.10048928 10.28992015 25.57894218 10 29 C7.80545652 32.52694487 5.83538539 34.47930334 2 36 C-4.3534331 36.68135703 -10.68945381 36.94886768 -16 33 C-18.60691129 29.61101532 -19 28.37265387 -19 24 C-16.6875 23.6875 -16.6875 23.6875 -14 24 C-12.3125 26.4375 -12.3125 26.4375 -11 29 C-8.39820337 30.30089831 -6.4030812 30.16840078 -3.5 30.1875 C-2.5203125 30.20167969 -1.540625 30.21585938 -0.53125 30.23046875 C2.169918 30.25680034 2.169918 30.25680034 4 28 C3.67958603 25.39719432 3.67958603 25.39719432 3 23 C1.97519531 22.68546875 0.95039062 22.3709375 -0.10546875 22.046875 C-1.46632713 21.61515441 -2.82699427 21.18283066 -4.1875 20.75 C-4.86103516 20.54503906 -5.53457031 20.34007813 -6.22851562 20.12890625 C-10.51424914 18.74910912 -13.71684263 17.2153999 -17 14 C-18.125 10.625 -18.125 10.625 -18 7 C-13.64246787 -0.65558586 -8.0541498 -0.6370514 0 0 Z " fill="#ECECED" transform="translate(787,30)"/>
<path d="M0 0 C2.79296875 1.328125 2.79296875 1.328125 5 4 C5.75947309 7.74459238 5.79073246 11.43826258 5.8125 15.25 C5.83763672 16.28125 5.86277344 17.3125 5.88867188 18.375 C5.94751562 20.91704989 5.98381507 23.45737916 6 26 C2.95613276 26.08226668 0.92824652 25.97608217 -2 25 C-2.66 25.33 -3.32 25.66 -4 26 C-8.59539817 26.48836113 -12.62240148 26.85279908 -16.625 24.375 C-18.43667679 21.24574008 -18.66713166 19.55803554 -18 16 C-14.30246356 12.30246356 -11.31520828 11.3715404 -6.1875 10.75 C-5.02605469 10.60046875 -3.86460938 10.4509375 -2.66796875 10.296875 C-1.78753906 10.19890625 -0.90710937 10.1009375 0 10 C-0.66 8.35 -1.32 6.7 -2 5 C-4.64 5 -7.28 5 -10 5 C-10.66 6.32 -11.32 7.64 -12 9 C-13.65 9 -15.3 9 -17 9 C-16.73309994 5.79719931 -16.16670984 4.2056088 -14.125 1.6875 C-9.58506676 -0.76406395 -5.05276257 -0.98732142 0 0 Z " fill="#EFEFF0" transform="translate(1054,40)"/>
<path d="M0 0 C3.01856526 1.49826597 5.29921963 3.06875152 7 6 C7 8.64 7 11.28 7 14 C0.73 14 -5.54 14 -12 14 C-10.34922098 17.75170424 -10.34922098 17.75170424 -8 21 C-4.58399407 21.41692853 -4.58399407 21.41692853 -1 21 C0.63676257 19.0399719 0.63676257 19.0399719 2 17 C4.6875 16.75 4.6875 16.75 7 17 C6.79803569 20.63535761 6.21677989 21.7994786 3.5 24.3125 C-0.88024282 26.42440279 -4.22180996 26.8547746 -9 26 C-13.09199196 23.91680409 -15.30799578 22.24149474 -17 18 C-17.7121481 12.98184011 -17.52912753 9.05825505 -15.25 4.5 C-10.96440036 -0.26177738 -6.19851218 -1.16482108 0 0 Z " fill="#F1F1F2" transform="translate(1128,40)"/>
<path d="M0 0 C3.63 0 7.26 0 11 0 C11 11.88 11 23.76 11 36 C7.37 36 3.74 36 0 36 C0 24.12 0 12.24 0 0 Z " fill="#008000" transform="translate(636,210)"/>
<path d="M0 0 C1.65 0 3.3 0 5 0 C7.87961032 6.25776028 10.40849824 12.58568506 12.75 19.0625 C13.06582031 19.92810547 13.38164063 20.79371094 13.70703125 21.68554688 C14.47416745 23.78935978 15.23844379 25.89416224 16 28 C16.21914063 27.3915625 16.43828125 26.783125 16.6640625 26.15625 C18.81183531 20.21931703 20.9887362 14.2932176 23.1875 8.375 C23.58026123 7.30862305 23.58026123 7.30862305 23.98095703 6.22070312 C25.8850827 1.1149173 25.8850827 1.1149173 27 0 C28.66617115 -0.04063832 30.33388095 -0.042721 32 0 C30.87442448 6.2418279 29.02837677 11.37327433 26.30078125 17.0859375 C24.5149664 21.08659179 23.20171724 25.19366109 21.89453125 29.37109375 C21.0963396 31.71687097 20.16957685 33.82056825 19 36 C17.02 36 15.04 36 13 36 C9.83306332 29.40654167 7.19796515 22.83646191 4.98046875 15.8671875 C3.80429627 12.42770304 2.33883659 9.19579124 0.734375 5.9375 C0 4 0 4 0 0 Z " fill="#E8E8E8" transform="translate(939,30)"/>
<path d="M0 0 C2.66666667 0 5.33333333 0 8 0 C9.299375 -0.04125 10.59875 -0.0825 11.9375 -0.125 C15.13352555 -0.11913573 17.34369231 0.05885207 20 2 C22.16926659 5.25389988 22.24080049 6.13395957 22.1953125 9.88671875 C22.18886719 10.82451172 22.18242188 11.76230469 22.17578125 12.72851562 C22.15902344 13.70498047 22.14226563 14.68144531 22.125 15.6875 C22.11597656 16.67556641 22.10695313 17.66363281 22.09765625 18.68164062 C22.0740843 21.12133765 22.04118022 23.56054697 22 26 C20.02 26 18.04 26 16 26 C15.97494385 25.39937744 15.9498877 24.79875488 15.92407227 24.17993164 C15.8084472 21.47388563 15.68557064 18.76821717 15.5625 16.0625 C15.52318359 15.11697266 15.48386719 14.17144531 15.44335938 13.19726562 C15.40146484 12.29814453 15.35957031 11.39902344 15.31640625 10.47265625 C15.27974854 9.64000244 15.24309082 8.80734863 15.20532227 7.94946289 C15.20632897 5.99661142 15.20632897 5.99661142 14 5 C9.6590631 5.14158662 9.6590631 5.14158662 6 7 C5.84379445 8.41327947 5.74943827 9.8335459 5.68359375 11.25390625 C5.64169922 12.10791016 5.59980469 12.96191406 5.55664062 13.84179688 C5.49766602 15.18854492 5.49766602 15.18854492 5.4375 16.5625 C5.39431641 17.46419922 5.35113281 18.36589844 5.30664062 19.29492188 C5.20021858 21.52978485 5.09820012 23.76476308 5 26 C3.35 26 1.7 26 0 26 C0 17.42 0 8.84 0 0 Z " fill="#E7E7E8" transform="translate(872,40)"/>
<path d="M0 0 C3 1.1875 3 1.1875 5 3 C5.8125 5.6875 5.8125 5.6875 6 8 C3.625 8.1875 3.625 8.1875 1 8 C0.34 7.01 -0.32 6.02 -1 5 C-4.58357241 4.74984127 -4.58357241 4.74984127 -8 5 C-8 5.99 -8 6.98 -8 8 C-7.16855469 8.25394531 -6.33710937 8.50789063 -5.48046875 8.76953125 C-4.39378906 9.11371094 -3.30710937 9.45789062 -2.1875 9.8125 C-0.56908203 10.31716797 -0.56908203 10.31716797 1.08203125 10.83203125 C3.84564072 11.93821496 5.2543069 12.63255319 7 15 C7.4375 17.9375 7.4375 17.9375 7 21 C4.60250089 23.95691557 2.64637015 25.8222503 -1.20703125 26.23828125 C-5.49204895 26.36034322 -8.24499069 26.41602554 -12.0625 24.3125 C-14.1742292 21.79204902 -14.72960418 20.24474984 -15 17 C-12.6875 16.75 -12.6875 16.75 -10 17 C-9.54625 17.66 -9.0925 18.32 -8.625 19 C-8.08875 19.66 -7.5525 20.32 -7 21 C-3.37436186 21.33380814 -3.37436186 21.33380814 0 21 C0.66 19.68 1.32 18.36 2 17 C1.18015625 16.82984375 0.3603125 16.6596875 -0.484375 16.484375 C-1.56203125 16.24203125 -2.6396875 15.9996875 -3.75 15.75 C-4.81734375 15.51796875 -5.8846875 15.2859375 -6.984375 15.046875 C-10.31650551 13.89012503 -11.82579412 12.74745256 -14 10 C-14.5625 7 -14.5625 7 -14 4 C-10.14144498 -0.72984163 -5.68655828 -0.84474235 0 0 Z " fill="#EFEFEF" transform="translate(998,40)"/>
<path d="M0 0 C7.26 0 14.52 0 22 0 C20.91548319 5.42258406 19.89031047 6.63996918 16.1875 10.5 C12.93066579 13.92520821 9.96495196 17.29381005 7 21 C12.28 21.33 17.56 21.66 23 22 C23 23.32 23 24.64 23 26 C15.08 26 7.16 26 -1 26 C0.03360256 20.83198721 0.94387545 19.42146988 4.25 15.5625 C5.05824219 14.60859375 5.86648438 13.6546875 6.69921875 12.671875 C7.83810547 11.34929688 7.83810547 11.34929688 9 10 C10.02334454 8.77292325 11.04481772 7.54427683 12.0625 6.3125 C12.701875 5.549375 13.34125 4.78625 14 4 C9.38 4 4.76 4 0 4 C0 2.68 0 1.36 0 0 Z " fill="#F1F1F1" transform="translate(1086,40)"/>
<path d="M0 0 C1.65 0 3.3 0 5 0 C5.02505615 0.56509277 5.0501123 1.13018555 5.07592773 1.71240234 C5.19179956 4.26683742 5.31456537 6.8208955 5.4375 9.375 C5.47681641 10.26445313 5.51613281 11.15390625 5.55664062 12.0703125 C5.59853516 12.92109375 5.64042969 13.771875 5.68359375 14.6484375 C5.72025146 15.43395996 5.75690918 16.21948242 5.79467773 17.02880859 C5.890891 19.07523496 5.890891 19.07523496 7 21 C9.3431213 20.74438677 11.67843403 20.40729228 14 20 C15.11823815 17.76352369 15.19396061 16.35108471 15.31640625 13.8671875 C15.35830078 13.06152344 15.40019531 12.25585938 15.44335938 11.42578125 C15.48267578 10.58402344 15.52199219 9.74226563 15.5625 8.875 C15.60568359 8.02550781 15.64886719 7.17601562 15.69335938 6.30078125 C15.79954236 4.20071777 15.90028497 2.10038052 16 0 C17.65 0 19.3 0 21 0 C21 8.58 21 17.16 21 26 C19.68 26 18.36 26 17 26 C16.67 25.34 16.34 24.68 16 24 C15.01 24.66 14.02 25.32 13 26 C8.52925034 26.43265319 6.31532283 26.63420701 2.26171875 24.6796875 C-1.31856363 20.43776399 -0.53340649 16.1061327 -0.3125 10.75 C-0.28994141 9.71875 -0.26738281 8.6875 -0.24414062 7.625 C-0.18527163 5.08185935 -0.10310065 2.54166887 0 0 Z " fill="#EFF0F0" transform="translate(1010,40)"/>
<path d="M0 0 C3.3 0 6.6 0 10 0 C10 9.24 10 18.48 10 28 C6.7 28 3.4 28 0 28 C0 18.76 0 9.52 0 0 Z " fill="#008000" transform="translate(624,210)"/>
<path d="M0 0 C2.15625 1.1875 2.15625 1.1875 4 3 C4.99178051 7.77658995 4.91620688 12.48473478 2.375 16.6875 C-0.73205231 18.40455522 -2.49968658 18.58338557 -6 18 C-8.375 16.625 -8.375 16.625 -10 14 C-10.75641665 9.35344056 -10.88955418 5.43697213 -8.375 1.375 C-5.29454763 -0.40841979 -3.50989896 -0.51186027 0 0 Z " fill="#25292D" transform="translate(816,44)"/>
<path d="M0 0 C1.98 0 3.96 0 6 0 C6 11.88 6 23.76 6 36 C4.02 36 2.04 36 0 36 C0 24.12 0 12.24 0 0 Z " fill="#DDDEDE" transform="translate(1065,30)"/>
<path d="M0 0 C0 2.97 0 5.94 0 9 C1.32 9 2.64 9 4 9 C4 10.32 4 11.64 4 13 C2.68 13 1.36 13 0 13 C0 18.94 0 24.88 0 31 C1.32 31 2.64 31 4 31 C4 32.32 4 33.64 4 35 C0.625 35.125 0.625 35.125 -3 35 C-5 33 -5 33 -5.22705078 30.84521484 C-5.21657715 29.97590332 -5.20610352 29.1065918 -5.1953125 28.2109375 C-5.18886719 27.26992188 -5.18242188 26.32890625 -5.17578125 25.359375 C-5.15902344 24.37453125 -5.14226563 23.3896875 -5.125 22.375 C-5.11597656 21.38242187 -5.10695313 20.38984375 -5.09765625 19.3671875 C-5.07404116 16.91121866 -5.04110799 14.45572832 -5 12 C-5.99 12 -6.98 12 -8 12 C-8 11.01 -8 10.02 -8 9 C-7.01 9 -6.02 9 -5 9 C-5.061875 7.88625 -5.12375 6.7725 -5.1875 5.625 C-5.125625 4.42875 -5.06375 3.2325 -5 2 C-2 0 -2 0 0 0 Z " fill="#EEEEEE" transform="translate(853,31)"/>
<path d="M0 0 C2.59200129 2.59200129 2.29802368 3.77522229 2.3125 7.375 C2.32925781 8.33148438 2.34601562 9.28796875 2.36328125 10.2734375 C1.94549739 13.40906261 1.21279463 14.76642795 -1 17 C-4.50817286 17.59713581 -6.28935606 17.41142544 -9.375 15.625 C-11.89228651 11.5586141 -11.74814229 7.65082268 -11 3 C-8.14392147 -1.91245507 -5.15665564 -1.33691072 0 0 Z " fill="#272B2F" transform="translate(914,45)"/>
<path d="M0 0 C3.63 0 7.26 0 11 0 C11 5.94 11 11.88 11 18 C7.37 18 3.74 18 0 18 C0 12.06 0 6.12 0 0 Z " fill="#008000" transform="translate(611,210)"/>
<path d="M0 0 C4.66666667 0 9.33333333 0 14 0 C14.33 0.66 14.66 1.32 15 2 C14.67 2.66 14.34 3.32 14 4 C11.69 4.66 9.38 5.32 7 6 C6.67 12.6 6.34 19.2 6 26 C4.02 26 2.04 26 0 26 C0 17.42 0 8.84 0 0 Z " fill="#E4E4E5" transform="translate(1140,40)"/>
<path d="M0 0 C1.7109375 1.17578125 1.7109375 1.17578125 3 3 C3.2578125 5.62890625 3.2578125 5.62890625 3.125 8.5625 C2.84738725 12.43043249 2.84738725 12.43043249 4 16 C-5.95009357 15.81129133 -5.95009357 15.81129133 -9.75 12.875 C-11.39415792 9.09343679 -11.0948787 6.94156332 -10 3 C-7.67176656 -1.00973537 -4.26219805 -0.45666408 0 0 Z " fill="#155AE2" transform="translate(1660,129)"/>
<path d="M0 0 C3.3 0 6.6 0 10 0 C10 5.94 10 11.88 10 18 C6.7 18 3.4 18 0 18 C0 12.06 0 6.12 0 0 Z " fill="#008000" transform="translate(599,210)"/>
<path d="M0 0 C4.29 0 8.58 0 13 0 C13.33 0.66 13.66 1.32 14 2 C13.67 2.66 13.34 3.32 13 4 C9.9375 4.625 9.9375 4.625 7 5 C6.11360611 7.65918166 5.82010975 9.48064641 5.68359375 12.23046875 C5.64169922 13.03291016 5.59980469 13.83535156 5.55664062 14.66210938 C5.49766602 15.91217773 5.49766602 15.91217773 5.4375 17.1875 C5.39431641 18.03248047 5.35113281 18.87746094 5.30664062 19.74804688 C5.20068482 21.83184433 5.0998498 23.91590103 5 26 C3.35 26 1.7 26 0 26 C0 17.42 0 8.84 0 0 Z " fill="#F2F2F2" transform="translate(830,40)"/>
<path d="M0 0 C1.98 0 3.96 0 6 0 C6 8.58 6 17.16 6 26 C4.02 26 2.04 26 0 26 C0 17.42 0 8.84 0 0 Z " fill="#D9D9DA" transform="translate(1076,40)"/>
<path d="M0 0 C1.98 0 3.96 0 6 0 C6 8.58 6 17.16 6 26 C4.02 26 2.04 26 0 26 C0 17.42 0 8.84 0 0 Z " fill="#D9D9DA" transform="translate(860,40)"/>
<path d="M0 0 C6.0546875 -0.1953125 6.0546875 -0.1953125 8 0 C10.44442567 2.44442567 10.41280116 3.5605528 10.75 6.9375 C10.89695312 8.25041016 10.89695312 8.25041016 11.046875 9.58984375 C11 12 11 12 9 15 C5.96133201 15.41137202 3.07840297 15.13193156 0 15 C0 10.05 0 5.1 0 0 Z " fill="#1559DB" transform="translate(1175,129)"/>
<path d="M0 0 C3.63 0 7.26 0 11 0 C11 4.29 11 8.58 11 13 C7.37 13 3.74 13 0 13 C0 8.71 0 4.42 0 0 Z " fill="#008000" transform="translate(586,210)"/>
<path d="M0 0 C2.97 0 5.94 0 9 0 C11 2 11 2 11.3125 5.9375 C11.23719217 8.53091352 11.15247863 9.74319388 9.8125 12 C7.44004321 13.30894168 5.6664882 13.21620175 3 13 C2.67 14.65 2.34 16.3 2 18 C1.34 18 0.68 18 0 18 C0 12.06 0 6.12 0 0 Z " fill="#EEF9F0" transform="translate(728,115)"/>
<path d="M0 0 C0.66 0 1.32 0 2 0 C2 1.32 2 2.64 2 4 C2.66 4 3.32 4 4 4 C4 4.66 4 5.32 4 6 C3.34 6 2.68 6 2 6 C2 8.31 2 10.62 2 13 C2.66 13 3.32 13 4 13 C4 13.66 4 14.32 4 15 C3.21625 14.835 2.4325 14.67 1.625 14.5 C-0.88208039 13.9376293 -0.88208039 13.9376293 -3 14 C-3.33 14.33 -3.66 14.66 -4 15 C-6.4375 15.1875 -6.4375 15.1875 -9 15 C-11 13 -11 13 -11.25 9.5 C-11 6 -11 6 -9 4 C-6.625 3.875 -6.625 3.875 -4 4 C-2.68 4 -1.36 4 0 4 C0 2.68 0 1.36 0 0 Z " fill="#1F2741" transform="translate(1372,129)"/>
<path d="M0 0 C0.66 0 1.32 0 2 0 C2 5.94 2 11.88 2 18 C-6 18 -6 18 -8 16.9375 C-9.58433618 13.86784865 -9.36248449 11.38318857 -9 8 C-7.8125 6.0625 -7.8125 6.0625 -6 5 C-3.3125 4.8125 -3.3125 4.8125 -1 5 C-0.67 3.35 -0.34 1.7 0 0 Z " fill="#EBF2F0" transform="translate(778,110)"/>
<path d="M0 0 C1.65 0 3.3 0 5 0 C5 8.58 5 17.16 5 26 C3.35 26 1.7 26 0 26 C0 17.42 0 8.84 0 0 Z " fill="#EEEFEF" transform="translate(974,40)"/>
<path d="M0 0 C2.73255991 0.06447056 3.77132266 0.11231558 6.0625 1.6875 C7.0625 3.3125 7.0625 3.3125 7.0625 5.3125 C6.0725 5.3125 5.0825 5.3125 4.0625 5.3125 C4.0625 4.6525 4.0625 3.9925 4.0625 3.3125 C2.0825 3.3125 0.1025 3.3125 -1.9375 3.3125 C-1.9375 4.3025 -1.9375 5.2925 -1.9375 6.3125 C-1.08865234 6.61994141 -1.08865234 6.61994141 -0.22265625 6.93359375 C0.51082031 7.20300781 1.24429687 7.47242187 2 7.75 C2.73089844 8.01683594 3.46179688 8.28367187 4.21484375 8.55859375 C6.0625 9.3125 6.0625 9.3125 7.0625 10.3125 C7.3125 13.25 7.3125 13.25 7.0625 16.3125 C3.26925288 18.84133142 0.51342058 18.92450158 -3.9375 18.3125 C-5.9375 17 -5.9375 17 -6.9375 15.3125 C-6.9375 14.3225 -6.9375 13.3325 -6.9375 12.3125 C-5.9475 12.3125 -4.9575 12.3125 -3.9375 12.3125 C-2.9475 13.7975 -2.9475 13.7975 -1.9375 15.3125 C1.64607241 15.56265873 1.64607241 15.56265873 5.0625 15.3125 C4.40022394 12.20146984 4.40022394 12.20146984 2.03125 11.1796875 C1.2165625 10.85226563 0.401875 10.52484375 -0.4375 10.1875 C-4.87332888 8.37667112 -4.87332888 8.37667112 -5.9375 7.3125 C-6.125 4.875 -6.125 4.875 -5.9375 2.3125 C-3.9375 0.3125 -3.9375 0.3125 0 0 Z " fill="#E6E7E2" transform="translate(502.9375,109.6875)"/>
<path d="M0 0 C0.99 0.66 1.98 1.32 3 2 C3 2.99 3 3.98 3 5 C1.88625 4.505 1.88625 4.505 0.75 4 C-2.13883312 2.77217129 -2.13883312 2.77217129 -6 3 C-6 3.99 -6 4.98 -6 6 C-5.36191406 6.20496094 -4.72382812 6.40992187 -4.06640625 6.62109375 C-3.24011719 6.89050781 -2.41382813 7.15992187 -1.5625 7.4375 C-0.73878906 7.70433594 0.08492187 7.97117187 0.93359375 8.24609375 C3 9 3 9 4 10 C4.28417861 12.69969684 4.32477191 14.41135091 3 16.8125 C-0.18896605 18.70594859 -3.39056899 18.5639736 -7 18 C-9 16.6875 -9 16.6875 -10 15 C-10 14.01 -10 13.02 -10 12 C-9.01 12.33 -8.02 12.66 -7 13 C-7 13.66 -7 14.32 -7 15 C-4.36 15 -1.72 15 1 15 C1 13.68 1 12.36 1 11 C0.37351562 10.87882812 -0.25296875 10.75765625 -0.8984375 10.6328125 C-2.12433594 10.38144531 -2.12433594 10.38144531 -3.375 10.125 C-4.18710937 9.96257812 -4.99921875 9.80015625 -5.8359375 9.6328125 C-8 9 -8 9 -10 7 C-9.75 3.9375 -9.75 3.9375 -9 1 C-5.98131566 -0.50934217 -3.32702771 -0.17510672 0 0 Z " fill="#DDE5E5" transform="translate(721,110)"/>
<path d="M0 0 C1.32 0.33 2.64 0.66 4 1 C4.66 3.97 5.32 6.94 6 10 C6.66 10 7.32 10 8 10 C8.66 7.03 9.32 4.06 10 1 C11.32 0.67 12.64 0.34 14 0 C14 4.95 14 9.9 14 15 C13.34 15 12.68 15 12 15 C11.67 12.36 11.34 9.72 11 7 C10.01 9.64 9.02 12.28 8 15 C7.01 15 6.02 15 5 15 C4.34 12.69 3.68 10.38 3 8 C2.67 10.31 2.34 12.62 2 15 C1.34 15 0.68 15 0 15 C0 10.05 0 5.1 0 0 Z " fill="#1658E0" transform="translate(1786,129)"/>
<path d="M0 0 C1.670625 0.061875 1.670625 0.061875 3.375 0.125 C3.42886629 2.24972576 3.46773071 4.37483652 3.5 6.5 C3.52320313 7.68335938 3.54640625 8.86671875 3.5703125 10.0859375 C3.375 13.125 3.375 13.125 1.375 15.125 C-1.75 15.25 -1.75 15.25 -4.625 15.125 C-4.955 14.135 -5.285 13.145 -5.625 12.125 C-3.315 12.455 -1.005 12.785 1.375 13.125 C1.045 12.465 0.715 11.805 0.375 11.125 C-1.28321773 10.75190101 -2.95077014 10.41799023 -4.625 10.125 C-5.625 9.125 -5.625 9.125 -5.8125 5.6875 C-5.55408081 0.77753534 -4.91598639 0.16951677 0 0 Z " fill="#145FEB" transform="translate(1825.625,132.875)"/>
<path d="M0 0 C0.99 0.66 1.98 1.32 3 2 C3.1875 4.625 3.1875 4.625 3 7 C0.03 7 -2.94 7 -6 7 C-6 7.99 -6 8.98 -6 10 C-2.80097361 10.08886184 -0.07322544 9.91058531 3 9 C2.34 10.32 1.68 11.64 1 13 C-5.42210386 13.48468708 -5.42210386 13.48468708 -7.9375 11.375 C-9.295454 8.33957342 -9.42030443 6.29238472 -9 3 C-6.78229215 -0.69617975 -4.0271794 -0.41949785 0 0 Z " fill="#E8EFEF" transform="translate(750,115)"/>
<path d="M0 0 C1.875 1.25 1.875 1.25 3 3 C3 4.32 3 5.64 3 7 C-0.3 7 -3.6 7 -7 7 C-6.01 8.485 -6.01 8.485 -5 10 C-2.36 9.67 0.28 9.34 3 9 C2 12 2 12 0 13 C-5.17431193 13.44036697 -5.17431193 13.44036697 -7.875 12 C-9.77516379 8.62193105 -9.36512546 5.83381731 -9 2 C-5.53076119 -0.31282587 -4.07794425 -0.42478586 0 0 Z " fill="#EBF3F5" transform="translate(540,115)"/>
<path d="M0 0 C1.875 1.25 1.875 1.25 3 3 C3 4.32 3 5.64 3 7 C0.03 7 -2.94 7 -6 7 C-5.67 7.99 -5.34 8.98 -5 10 C-2.36 9.67 0.28 9.34 3 9 C2 12 2 12 0 13 C-5.21653972 13.44396083 -5.21653972 13.44396083 -7.875 11.9375 C-9.64273274 8.8930714 -9.36823916 6.4368988 -9 3 C-6.84332735 -0.71426957 -4.0099826 -0.50124783 0 0 Z " fill="#BCBBB8" transform="translate(764,115)"/>
<path d="M0 0 C0.66 0 1.32 0 2 0 C2 1.32 2 2.64 2 4 C2.78375 3.95875 3.5675 3.9175 4.375 3.875 C7 4 7 4 9 6 C9.25 9.5 9.25 9.5 9 13 C8.34 13.66 7.68 14.32 7 15 C4.69 15 2.38 15 0 15 C0 10.05 0 5.1 0 0 Z " fill="#155AE3" transform="translate(1210,129)"/>
<path d="M0 0 C0.66 0 1.32 0 2 0 C2 1.32 2 2.64 2 4 C2.78375 3.95875 3.5675 3.9175 4.375 3.875 C7 4 7 4 9 6 C9.25 9.5 9.25 9.5 9 13 C8.34 13.66 7.68 14.32 7 15 C4.69 15 2.38 15 0 15 C0 10.05 0 5.1 0 0 Z " fill="#155AE3" transform="translate(1199,129)"/>
<path d="M0 0 C3 0.25 3 0.25 5 2.25 C5.25 5.75 5.25 5.75 5 9.25 C3 11.25 3 11.25 0 11.5625 C-0.99 11.459375 -1.98 11.35625 -3 11.25 C-5.30163882 7.79754176 -5.34490322 6.30261287 -5 2.25 C-3 0.25 -3 0.25 0 0 Z " fill="#135FE6" transform="translate(1427,132.75)"/>
<path d="M0 0 C3 0.25 3 0.25 5 2.25 C5.25 5.75 5.25 5.75 5 9.25 C3 11.25 3 11.25 0 11.5625 C-0.99 11.459375 -1.98 11.35625 -3 11.25 C-5.30163882 7.79754176 -5.34490322 6.30261287 -5 2.25 C-3 0.25 -3 0.25 0 0 Z " fill="#135FE6" transform="translate(1260,132.75)"/>
<path d="M0 0 C3.625 0.375 3.625 0.375 7 1 C8.33359073 7.42548263 8.33359073 7.42548263 6.875 9.9375 C4.403308 11.33812547 2.79844834 11.35877543 0 11 C-2 9 -2 9 -2.25 5.5 C-2 2 -2 2 0 0 Z " fill="#145FE6" transform="translate(1863,133)"/>
<path d="M0 0 C3.625 0.375 3.625 0.375 7 1 C8.33359073 7.42548263 8.33359073 7.42548263 6.875 9.9375 C4.403308 11.33812547 2.79844834 11.35877543 0 11 C-2 9 -2 9 -2.25 5.5 C-2 2 -2 2 0 0 Z " fill="#145FE6" transform="translate(1383,133)"/>
<path d="M0 0 C2 2 2 2 2.25 5.5 C2 9 2 9 0 11 C-2.79844834 11.35877543 -4.403308 11.33812547 -6.875 9.9375 C-8.67936761 6.82997801 -7.81177938 4.37200667 -7 1 C-4.48718205 -0.25640898 -2.78302919 -0.20872719 0 0 Z " fill="#155BE9" transform="translate(1727,133)"/>
<path d="M0 0 C2 2 2 2 2.25 5.5 C2 9 2 9 0 11 C-2.79844834 11.35877543 -4.403308 11.33812547 -6.875 9.9375 C-8.67936761 6.82997801 -7.81177938 4.37200667 -7 1 C-4.48718205 -0.25640898 -2.78302919 -0.20872719 0 0 Z " fill="#155BE9" transform="translate(1591,133)"/>
<path d="M0 0 C2 2 2 2 2.25 5.5 C2 9 2 9 0 11 C-2.79844834 11.35877543 -4.403308 11.33812547 -6.875 9.9375 C-8.67936761 6.82997801 -7.81177938 4.37200667 -7 1 C-4.48718205 -0.25640898 -2.78302919 -0.20872719 0 0 Z " fill="#155BE9" transform="translate(1550,133)"/>
<path d="M0 0 C0.99 0 1.98 0 3 0 C3.83739781 2.1234016 4.66980283 4.2487728 5.5 6.375 C5.9640625 7.55835938 6.428125 8.74171875 6.90625 9.9609375 C8 13 8 13 8 15 C7.01 14.67 6.02 14.34 5 14 C5 13.01 5 12.02 5 11 C2.69 11 0.38 11 -2 11 C-2.33 12.32 -2.66 13.64 -3 15 C-3.66 15 -4.32 15 -5 15 C-4.37321829 11.33827525 -3.35548154 8.1181005 -1.9375 4.6875 C-1.39416016 3.36298828 -1.39416016 3.36298828 -0.83984375 2.01171875 C-0.56269531 1.34785156 -0.28554687 0.68398437 0 0 Z " fill="#1A804C" transform="translate(86,129)"/>
<path d="M0 0 C3.0625 0.3125 3.0625 0.3125 4.9375 1.6875 C6.0625 3.3125 6.0625 3.3125 6.0625 5.3125 C5.0725 5.3125 4.0825 5.3125 3.0625 5.3125 C2.7325 4.6525 2.4025 3.9925 2.0625 3.3125 C0.7425 3.3125 -0.5775 3.3125 -1.9375 3.3125 C-1.9375 3.9725 -1.9375 4.6325 -1.9375 5.3125 C0.7025 6.3025 3.3425 7.2925 6.0625 8.3125 C6.1875 10.6875 6.1875 10.6875 6.0625 13.3125 C4.0625 15.3125 4.0625 15.3125 0.625 15.625 C-2.9375 15.3125 -2.9375 15.3125 -4.875 13.9375 C-5.9375 12.3125 -5.9375 12.3125 -5.9375 10.3125 C-4.9475 10.3125 -3.9575 10.3125 -2.9375 10.3125 C-2.6075 10.9725 -2.2775 11.6325 -1.9375 12.3125 C-0.2875 12.3125 1.3625 12.3125 3.0625 12.3125 C3.0625 11.6525 3.0625 10.9925 3.0625 10.3125 C1.3609375 9.7246875 1.3609375 9.7246875 -0.375 9.125 C-3.9375 7.3125 -3.9375 7.3125 -5 4.75 C-4.90250821 0.9478202 -3.64914462 0.38820687 0 0 Z " fill="#145DE5" transform="translate(1711.9375,128.6875)"/>
<path d="M0 0 C3.0625 0.3125 3.0625 0.3125 4.9375 1.6875 C6.0625 3.3125 6.0625 3.3125 6.0625 5.3125 C5.0725 5.3125 4.0825 5.3125 3.0625 5.3125 C2.7325 4.6525 2.4025 3.9925 2.0625 3.3125 C0.7425 3.3125 -0.5775 3.3125 -1.9375 3.3125 C-1.9375 3.9725 -1.9375 4.6325 -1.9375 5.3125 C0.7025 6.3025 3.3425 7.2925 6.0625 8.3125 C6.1875 10.6875 6.1875 10.6875 6.0625 13.3125 C4.0625 15.3125 4.0625 15.3125 0.625 15.625 C-2.9375 15.3125 -2.9375 15.3125 -4.875 13.9375 C-5.9375 12.3125 -5.9375 12.3125 -5.9375 10.3125 C-4.9475 10.3125 -3.9575 10.3125 -2.9375 10.3125 C-2.6075 10.9725 -2.2775 11.6325 -1.9375 12.3125 C-0.2875 12.3125 1.3625 12.3125 3.0625 12.3125 C3.0625 11.6525 3.0625 10.9925 3.0625 10.3125 C1.3609375 9.7246875 1.3609375 9.7246875 -0.375 9.125 C-3.9375 7.3125 -3.9375 7.3125 -5 4.75 C-4.90250821 0.9478202 -3.64914462 0.38820687 0 0 Z " fill="#145DE5" transform="translate(1575.9375,128.6875)"/>
<path d="M0 0 C3.0625 0.3125 3.0625 0.3125 4.9375 1.6875 C6.0625 3.3125 6.0625 3.3125 6.0625 5.3125 C5.0725 5.3125 4.0825 5.3125 3.0625 5.3125 C3.0625 4.3225 3.0625 3.3325 3.0625 2.3125 C0.58983235 2.65694881 0.58983235 2.65694881 -1.9375 3.3125 C-2.2675 3.9725 -2.5975 4.6325 -2.9375 5.3125 C0.0325 6.3025 3.0025 7.2925 6.0625 8.3125 C6.1875 10.6875 6.1875 10.6875 6.0625 13.3125 C4.0625 15.3125 4.0625 15.3125 0.5625 15.5625 C-2.9375 15.3125 -2.9375 15.3125 -4.9375 13.3125 C-4.9375 12.3225 -4.9375 11.3325 -4.9375 10.3125 C-4.2775 10.3125 -3.6175 10.3125 -2.9375 10.3125 C-2.6075 10.9725 -2.2775 11.6325 -1.9375 12.3125 C-0.2875 12.3125 1.3625 12.3125 3.0625 12.3125 C3.0625 11.6525 3.0625 10.9925 3.0625 10.3125 C1.3609375 9.7246875 1.3609375 9.7246875 -0.375 9.125 C-3.9375 7.3125 -3.9375 7.3125 -5 4.75 C-4.90250821 0.9478202 -3.64914462 0.38820687 0 0 Z " fill="#145BE4" transform="translate(1852.9375,128.6875)"/>
<path d="M0 0 C2 2 2 2 2 5 C1.34 5 0.68 5 0 5 C-0.33 4.34 -0.66 3.68 -1 3 C-3.52733235 2.34444881 -3.52733235 2.34444881 -6 2 C-5.67 2.99 -5.34 3.98 -5 5 C-3.2675 5.7115625 -3.2675 5.7115625 -1.5 6.4375 C2 8 2 8 3.125 10 C3 12 3 12 1.9375 13.75 C-0.81912113 15.52846525 -2.78313417 15.33509019 -6 15 C-6.99 14.34 -7.98 13.68 -9 13 C-9 12.01 -9 11.02 -9 10 C-6.03 10.99 -3.06 11.98 0 13 C0 11.68 0 10.36 0 9 C-0.928125 8.896875 -1.85625 8.79375 -2.8125 8.6875 C-6 8 -6 8 -7.9375 6.6875 C-9 5 -9 5 -8.8125 2.875 C-7.14423063 -0.97485239 -3.70392844 -0.23149553 0 0 Z " fill="#145BE3" transform="translate(1330,129)"/>
<path d="M0 0 C3.53233755 1.17744585 3.86308075 1.95605641 5.6875 5.0625 C6.12449219 5.79597656 6.56148437 6.52945313 7.01171875 7.28515625 C7.33785156 7.85105469 7.66398437 8.41695312 8 9 C8.33 6.03 8.66 3.06 9 0 C9.66 0 10.32 0 11 0 C11 4.95 11 9.9 11 15 C6.01222852 12.50611426 5.48741151 10.79715076 3 6 C2.67 8.97 2.34 11.94 2 15 C1.34 15 0.68 15 0 15 C0 10.05 0 5.1 0 0 Z " fill="#1B784A" transform="translate(38,129)"/>
<path d="M0 0 C0.66 0 1.32 0 2 0 C2 1.32 2 2.64 2 4 C2.66 4 3.32 4 4 4 C4 4.66 4 5.32 4 6 C3.34 6 2.68 6 2 6 C2.33 8.97 2.66 11.94 3 15 C1.68 14.67 0.36 14.34 -1 14 C-1 11.36 -1 8.72 -1 6 C-2.32 6 -3.64 6 -5 6 C-5 8.97 -5 11.94 -5 15 C-5.99 15 -6.98 15 -8 15 C-8 11.37 -8 7.74 -8 4 C-5.36 4 -2.72 4 0 4 C0 2.68 0 1.36 0 0 Z " fill="#1652CE" transform="translate(1880,129)"/>
<path d="M0 0 C2.5 0.25 2.5 0.25 4.5 2.25 C4.625 5.875 4.625 5.875 4.5 9.25 C3.51 9.745 3.51 9.745 2.5 10.25 C1.84 9.92 1.18 9.59 0.5 9.25 C0.5 9.91 0.5 10.57 0.5 11.25 C-3.375 10.375 -3.375 10.375 -4.5 9.25 C-4.6875 5.8125 -4.6875 5.8125 -4.5 2.25 C-2.5 0.25 -2.5 0.25 0 0 Z " fill="#20252E" transform="translate(1656.5,130.75)"/>
<path d="M0 0 C2 2 2 2 2 5 C1.34 5 0.68 5 0 5 C-0.33 4.34 -0.66 3.68 -1 3 C-3.52733235 2.34444881 -3.52733235 2.34444881 -6 2 C-5.67 2.99 -5.34 3.98 -5 5 C-3.2675 5.7115625 -3.2675 5.7115625 -1.5 6.4375 C2 8 2 8 3.125 10 C3 12 3 12 1.9375 13.75 C-0.81912113 15.52846525 -2.78313417 15.33509019 -6 15 C-6.99 14.34 -7.98 13.68 -9 13 C-9 12.01 -9 11.02 -9 10 C-8.34 10 -7.68 10 -7 10 C-6.67 10.66 -6.34 11.32 -6 12 C-2.97065509 12.65772428 -2.97065509 12.65772428 0 13 C0 11.68 0 10.36 0 9 C-2.64 8.34 -5.28 7.68 -8 7 C-8 5.02 -8 3.04 -8 1 C-5.23749964 -0.38125018 -3.05268901 -0.19079306 0 0 Z " fill="#1360E8" transform="translate(1418,129)"/>
<path d="M0 0 C2 2 2 2 2 5 C1.34 5 0.68 5 0 5 C-0.33 4.34 -0.66 3.68 -1 3 C-3.52733235 2.34444881 -3.52733235 2.34444881 -6 2 C-5.67 2.99 -5.34 3.98 -5 5 C-3.2675 5.7115625 -3.2675 5.7115625 -1.5 6.4375 C2 8 2 8 3.125 10 C3 12 3 12 1.9375 13.75 C-0.81912113 15.52846525 -2.78313417 15.33509019 -6 15 C-6.99 14.34 -7.98 13.68 -9 13 C-9 12.01 -9 11.02 -9 10 C-8.34 10 -7.68 10 -7 10 C-6.67 10.66 -6.34 11.32 -6 12 C-2.97065509 12.65772428 -2.97065509 12.65772428 0 13 C0 11.68 0 10.36 0 9 C-2.64 8.34 -5.28 7.68 -8 7 C-8 5.02 -8 3.04 -8 1 C-5.23749964 -0.38125018 -3.05268901 -0.19079306 0 0 Z " fill="#1360E8" transform="translate(1251,129)"/>
<path d="M0 0 C2 2 2 2 2 6 C-0.31 6 -2.62 6 -5 6 C-5 6.99 -5 7.98 -5 9 C-2.69 8.34 -0.38 7.68 2 7 C1.34 8.32 0.68 9.64 0 11 C-2.875 11.1875 -2.875 11.1875 -6 11 C-8 8 -8 8 -7.75 4.375 C-7.5025 3.26125 -7.255 2.1475 -7 1 C-4.48718205 -0.25640898 -2.78302919 -0.20872719 0 0 Z " fill="#1554CC" transform="translate(1342,133)"/>
<path d="M0 0 C3.625 0.375 3.625 0.375 7 1 C7.33 2.65 7.66 4.3 8 6 C5.36 6 2.72 6 0 6 C0.33 6.66 0.66 7.32 1 8 C3.02463255 8.65213292 3.02463255 8.65213292 5 9 C5 8.34 5 7.68 5 7 C5.99 7.33 6.98 7.66 8 8 C7.01 9.485 7.01 9.485 6 11 C3 11.3125 3 11.3125 0 11 C-2 9 -2 9 -2.25 5.5 C-2 2 -2 2 0 0 Z " fill="#1261E8" transform="translate(1833,133)"/>
<path d="M0 0 C3.625 0.375 3.625 0.375 7 1 C7.33 2.65 7.66 4.3 8 6 C5.36 6 2.72 6 0 6 C0.33 6.66 0.66 7.32 1 8 C3.02463255 8.65213292 3.02463255 8.65213292 5 9 C5 8.34 5 7.68 5 7 C5.99 7.33 6.98 7.66 8 8 C7.01 9.485 7.01 9.485 6 11 C3 11.3125 3 11.3125 0 11 C-2 9 -2 9 -2.25 5.5 C-2 2 -2 2 0 0 Z " fill="#1261E8" transform="translate(1804,133)"/>
<path d="M0 0 C3.625 0.375 3.625 0.375 7 1 C7.33 2.65 7.66 4.3 8 6 C5.36 6 2.72 6 0 6 C0.33 6.66 0.66 7.32 1 8 C3.02463255 8.65213292 3.02463255 8.65213292 5 9 C5 8.34 5 7.68 5 7 C5.99 7.33 6.98 7.66 8 8 C7.01 9.485 7.01 9.485 6 11 C3 11.3125 3 11.3125 0 11 C-2 9 -2 9 -2.25 5.5 C-2 2 -2 2 0 0 Z " fill="#1261E8" transform="translate(1352,133)"/>
<path d="M0 0 C3.625 0.375 3.625 0.375 7 1 C7.33 2.65 7.66 4.3 8 6 C5.36 6 2.72 6 0 6 C0.33 6.66 0.66 7.32 1 8 C3.02463255 8.65213292 3.02463255 8.65213292 5 9 C5 8.34 5 7.68 5 7 C5.99 7.33 6.98 7.66 8 8 C7.01 9.485 7.01 9.485 6 11 C3 11.3125 3 11.3125 0 11 C-2 9 -2 9 -2.25 5.5 C-2 2 -2 2 0 0 Z " fill="#1261E8" transform="translate(1227,133)"/>
<path d="M0 0 C0.66 0 1.32 0 2 0 C2.66 1.65 3.32 3.3 4 5 C4.66 3.35 5.32 1.7 6 0 C6.99 0.33 7.98 0.66 9 1 C9.6875 3.0625 9.6875 3.0625 10 5 C10.66 3.35 11.32 1.7 12 0 C12.66 0 13.32 0 14 0 C13.01 3.63 12.02 7.26 11 11 C10.34 11 9.68 11 9 11 C8.67 9.35 8.34 7.7 8 6 C7.34 6 6.68 6 6 6 C5.67 7.65 5.34 9.3 5 11 C4.34 11 3.68 11 3 11 C2.49632243 9.54293274 1.99717444 8.08429904 1.5 6.625 C1.2215625 5.81289062 0.943125 5.00078125 0.65625 4.1640625 C0 2 0 2 0 0 Z " fill="#1B7448" transform="translate(62,133)"/>
<path d="M0 0 C2.5625 0.3125 2.5625 0.3125 4.375 1.625 C5.5625 3.3125 5.5625 3.3125 5.5625 6.3125 C2.9225 6.3125 0.2825 6.3125 -2.4375 6.3125 C-2.1075 6.9725 -1.7775 7.6325 -1.4375 8.3125 C0.5425 7.9825 2.5225 7.6525 4.5625 7.3125 C4.5625 8.3025 4.5625 9.2925 4.5625 10.3125 C1.1875 10.9375 1.1875 10.9375 -2.4375 11.3125 C-4.4375 9.3125 -4.4375 9.3125 -4.6875 5.8125 C-4.40166115 1.81075612 -4.09542045 0.5250539 0 0 Z " fill="#145EE8" transform="translate(1519.4375,132.6875)"/>
<path d="M0 0 C3.0625 -0.25 3.0625 -0.25 6 0 C7 1 7 1 7.09765625 3.28515625 C7.08605469 4.20167969 7.07445313 5.11820313 7.0625 6.0625 C7.05347656 6.98160156 7.04445313 7.90070313 7.03515625 8.84765625 C7.02355469 9.55792969 7.01195313 10.26820313 7 11 C4.36 11 1.72 11 -1 11 C-1.33 9.35 -1.66 7.7 -2 6 C0.31 5.34 2.62 4.68 5 4 C5 3.34 5 2.68 5 2 C2.69 2.33 0.38 2.66 -2 3 C-1.34 2.01 -0.68 1.02 0 0 Z " fill="#1D5F41" transform="translate(110,133)"/>
<path d="M0 0 C3.63 0 7.26 0 11 0 C9.0199877 4.95003075 7.41170047 7.13939157 4 11 C6.31 11 8.62 11 11 11 C11 11.66 11 12.32 11 13 C7.37 13 3.74 13 0 13 C1.19344938 8.22620248 2.79645765 6.61425291 6 3 C3.03 2.505 3.03 2.505 0 2 C0 1.34 0 0.68 0 0 Z " fill="#ECEFEB" transform="translate(518,115)"/>
<path d="M0 0 C0.25 2.3125 0.25 2.3125 0 5 C-1.5625 6.8125 -1.5625 6.8125 -4 8 C-7.75 8.1875 -7.75 8.1875 -11 8 C-11.33 6.35 -11.66 4.7 -12 3 C-8.2080182 0.81231819 -4.37268114 0 0 0 Z " fill="#272B2F" transform="translate(1054,54)"/>
<path d="M0 0 C2.5 0.25 2.5 0.25 4.5 2.25 C4.5 3.57 4.5 4.89 4.5 6.25 C2.19 6.25 -0.12 6.25 -2.5 6.25 C-2.5 7.24 -2.5 8.23 -2.5 9.25 C-0.19 8.59 2.12 7.93 4.5 7.25 C3.84 8.57 3.18 9.89 2.5 11.25 C0.125 11.375 0.125 11.375 -2.5 11.25 C-4.5 9.25 -4.5 9.25 -4.75 5.75 C-4.46177779 1.71488904 -4.15174939 0.41517494 0 0 Z " fill="#1C6C44" transform="translate(56.5,132.75)"/>
<path d="M0 0 C0.66 0 1.32 0 2 0 C2 1.32 2 2.64 2 4 C2.66 4 3.32 4 4 4 C4 4.66 4 5.32 4 6 C3.34 6 2.68 6 2 6 C2 8.31 2 10.62 2 13 C2.66 13 3.32 13 4 13 C4 13.66 4 14.32 4 15 C2.68 15 1.36 15 0 15 C0 12.03 0 9.06 0 6 C-1.65 6 -3.3 6 -5 6 C-5 8.97 -5 11.94 -5 15 C-5.66 15 -6.32 15 -7 15 C-7 11.37 -7 7.74 -7 4 C-4.69 4 -2.38 4 0 4 C0 2.68 0 1.36 0 0 Z " fill="#145DDD" transform="translate(1441,129)"/>
<path d="M0 0 C0.66 0 1.32 0 2 0 C2 1.32 2 2.64 2 4 C2.66 4 3.32 4 4 4 C4 4.66 4 5.32 4 6 C3.34 6 2.68 6 2 6 C2 8.31 2 10.62 2 13 C2.66 13 3.32 13 4 13 C4 13.66 4 14.32 4 15 C2.68 15 1.36 15 0 15 C0 12.03 0 9.06 0 6 C-1.65 6 -3.3 6 -5 6 C-5 8.97 -5 11.94 -5 15 C-5.66 15 -6.32 15 -7 15 C-7 11.37 -7 7.74 -7 4 C-4.69 4 -2.38 4 0 4 C0 2.68 0 1.36 0 0 Z " fill="#145DDD" transform="translate(1274,129)"/>
<path d="M0 0 C0.33 1.32 0.66 2.64 1 4 C1.66 4 2.32 4 3 4 C3 4.66 3 5.32 3 6 C2.34 6 1.68 6 1 6 C1 8.31 1 10.62 1 13 C1.66 13 2.32 13 3 13 C3 13.66 3 14.32 3 15 C1.68 14.67 0.36 14.34 -1 14 C-1 11.36 -1 8.72 -1 6 C-2.32 6.33 -3.64 6.66 -5 7 C-5.33 9.64 -5.66 12.28 -6 15 C-6.66 15 -7.32 15 -8 15 C-8 11.37 -8 7.74 -8 4 C-5.69 4 -3.38 4 -1 4 C-0.67 2.68 -0.34 1.36 0 0 Z " fill="#1656E6" transform="translate(1603,129)"/>
<path d="M0 0 C0.33 1.32 0.66 2.64 1 4 C1.66 4 2.32 4 3 4 C3 4.66 3 5.32 3 6 C2.34 6 1.68 6 1 6 C1 8.31 1 10.62 1 13 C1.66 13 2.32 13 3 13 C3 13.66 3 14.32 3 15 C1.68 14.67 0.36 14.34 -1 14 C-1 11.36 -1 8.72 -1 6 C-2.32 6.33 -3.64 6.66 -5 7 C-5.33 9.64 -5.66 12.28 -6 15 C-6.66 15 -7.32 15 -8 15 C-8 11.37 -8 7.74 -8 4 C-5.69 4 -3.38 4 -1 4 C-0.67 2.68 -0.34 1.36 0 0 Z " fill="#1656E6" transform="translate(1534,129)"/>
<path d="M0 0 C0.33 1.32 0.66 2.64 1 4 C1.66 4 2.32 4 3 4 C3 4.66 3 5.32 3 6 C2.34 6 1.68 6 1 6 C1.48484276 10.64586892 1.48484276 10.64586892 3 15 C1.68 14.67 0.36 14.34 -1 14 C-1 11.36 -1 8.72 -1 6 C-2.65 6 -4.3 6 -6 6 C-6 8.97 -6 11.94 -6 15 C-6.66 15 -7.32 15 -8 15 C-8 11.37 -8 7.74 -8 4 C-5.69 4 -3.38 4 -1 4 C-0.67 2.68 -0.34 1.36 0 0 Z " fill="#155CE9" transform="translate(1739,129)"/>
<path d="M0 0 C3.5625 0.3125 3.5625 0.3125 5.5 1.625 C6.5625 3.3125 6.5625 3.3125 6.5625 6.3125 C2.2725 6.3125 -2.0175 6.3125 -6.4375 6.3125 C-4.97238372 0.45203488 -4.97238372 0.45203488 0 0 Z " fill="#272B2F" transform="translate(1123.4375,43.6875)"/>
<path d="M0 0 C0.66 0 1.32 0 2 0 C2 2.97 2 5.94 2 9 C3.32 9 4.64 9 6 9 C6 6.03 6 3.06 6 0 C6.99 0 7.98 0 9 0 C9 3.63 9 7.26 9 11 C2.84765625 11.09765625 2.84765625 11.09765625 1 11 C0 10 0 10 -0.09765625 7.71484375 C-0.08605469 6.79832031 -0.07445312 5.88179687 -0.0625 4.9375 C-0.05347656 4.01839844 -0.04445313 3.09929687 -0.03515625 2.15234375 C-0.02355469 1.44207031 -0.01195312 0.73179687 0 0 Z " fill="#1557D4" transform="translate(1188,133)"/>
<path d="M0 0 C0.66 0 1.32 0 2 0 C2.33 1.98 2.66 3.96 3 6 C3.66 5.34 4.32 4.68 5 4 C5.99 4.33 6.98 4.66 8 5 C7.608125 5.53625 7.21625 6.0725 6.8125 6.625 C5.64661496 9.17119399 5.64661496 9.17119399 7.375 12.25 C7.91125 13.1575 8.4475 14.065 9 15 C7.68 14.67 6.36 14.34 5 14 C4.67 12.68 4.34 11.36 4 10 C3.34 10 2.68 10 2 10 C2 11.65 2 13.3 2 15 C1.34 15 0.68 15 0 15 C0 10.05 0 5.1 0 0 Z " fill="#145FEC" transform="translate(1691,129)"/>
<path d="M0 0 C0.99 0 1.98 0 3 0 C3 2.97 3 5.94 3 9 C3.99 8.67 4.98 8.34 6 8 C6.33 5.36 6.66 2.72 7 0 C7.66 0 8.32 0 9 0 C9 3.63 9 7.26 9 11 C5.625 11.125 5.625 11.125 2 11 C0 9 0 9 -0.1953125 6.8359375 C-0.17210937 6.02382812 -0.14890625 5.21171875 -0.125 4.375 C-0.10695313 3.55773437 -0.08890625 2.74046875 -0.0703125 1.8984375 C-0.04710937 1.27195313 -0.02390625 0.64546875 0 0 Z " fill="#1655DA" transform="translate(1665,133)"/>
<path d="M0 0 C3.375 -0.125 3.375 -0.125 7 0 C9 2 9 2 9.1953125 4.1640625 C9.17210937 4.97617188 9.14890625 5.78828125 9.125 6.625 C9.10695313 7.44226563 9.08890625 8.25953125 9.0703125 9.1015625 C9.03550781 10.04128906 9.03550781 10.04128906 9 11 C8.01 11 7.02 11 6 11 C6 8.03 6 5.06 6 2 C4.68 2 3.36 2 2 2 C2 4.97 2 7.94 2 11 C1.34 11 0.68 11 0 11 C0 7.37 0 3.74 0 0 Z " fill="#1459DA" transform="translate(1393,133)"/>
<path d="M0 0 C1.98 0 3.96 0 6 0 C6.33 0.99 6.66 1.98 7 3 C4.03 2.505 4.03 2.505 1 2 C1 2.66 1 3.32 1 4 C3.97 4.495 3.97 4.495 7 5 C7.042721 6.66611905 7.04063832 8.33382885 7 10 C6 11 6 11 2.9375 11.0625 C1.968125 11.041875 0.99875 11.02125 0 11 C-0.33 9.68 -0.66 8.36 -1 7 C-0.34 7 0.32 7 1 7 C1 7.66 1 8.32 1 9 C2.32 9 3.64 9 5 9 C5 8.34 5 7.68 5 7 C3.02 6.34 1.04 5.68 -1 5 C-0.67 3.35 -0.34 1.7 0 0 Z " fill="#155BE3" transform="translate(1506,133)"/>
<path d="M0 0 C0.66 1.32 1.32 2.64 2 4 C1.01 4 0.02 4 -1 4 C-1 3.34 -1 2.68 -1 2 C-2.32 2 -3.64 2 -5 2 C-5 4.31 -5 6.62 -5 9 C-3.68 9 -2.36 9 -1 9 C-1 8.34 -1 7.68 -1 7 C-0.01 7 0.98 7 2 7 C1.34 8.32 0.68 9.64 0 11 C-2.72705554 11.22111261 -4.46420662 11.30361625 -6.875 9.9375 C-8.67936761 6.82997801 -7.81177938 4.37200667 -7 1 C-4.53721199 -0.231394 -2.7204945 -0.07159196 0 0 Z " fill="#1553D5" transform="translate(1688,133)"/>
<path d="M0 0 C3.375 -0.125 3.375 -0.125 7 0 C9 2 9 2 9.1953125 4.1640625 C9.17210937 4.97617188 9.14890625 5.78828125 9.125 6.625 C9.10695313 7.44226563 9.08890625 8.25953125 9.0703125 9.1015625 C9.03550781 10.04128906 9.03550781 10.04128906 9 11 C8.34 11 7.68 11 7 11 C7 8.03 7 5.06 7 2 C5.68 2.33 4.36 2.66 3 3 C2.67 5.64 2.34 8.28 2 11 C1.34 11 0.68 11 0 11 C0 7.37 0 3.74 0 0 Z " fill="#1362E6" transform="translate(1554,133)"/>
<path d="M0 0 C3.375 -0.125 3.375 -0.125 7 0 C9 2 9 2 9.1953125 4.1640625 C9.17210937 4.97617188 9.14890625 5.78828125 9.125 6.625 C9.10695313 7.44226563 9.08890625 8.25953125 9.0703125 9.1015625 C9.03550781 10.04128906 9.03550781 10.04128906 9 11 C8.34 11 7.68 11 7 11 C7 8.03 7 5.06 7 2 C5.68 2.33 4.36 2.66 3 3 C2.67 5.64 2.34 8.28 2 11 C1.34 11 0.68 11 0 11 C0 7.37 0 3.74 0 0 Z " fill="#1362E6" transform="translate(1494,133)"/>
<path d="M0 0 C3.53571429 0.53571429 3.53571429 0.53571429 5 2 C5.1875 4.4375 5.1875 4.4375 5 7 C4.34 7.66 3.68 8.32 3 9 C-0.53571429 8.46428571 -0.53571429 8.46428571 -2 7 C-2.1875 4.5625 -2.1875 4.5625 -2 2 C-1.34 1.34 -0.68 0.68 0 0 Z " fill="#383539" transform="translate(773,117)"/>
<path d="M0 0 C3.53571429 0.53571429 3.53571429 0.53571429 5 2 C5.1875 4.4375 5.1875 4.4375 5 7 C4.34 7.66 3.68 8.32 3 9 C-0.53571429 8.46428571 -0.53571429 8.46428571 -2 7 C-2.1875 4.5625 -2.1875 4.5625 -2 2 C-1.34 1.34 -0.68 0.68 0 0 Z " fill="#34323D" transform="translate(732,117)"/>
<path d="M0 0 C0.66 0 1.32 0 2 0 C2.66 1.65 3.32 3.3 4 5 C5.93798263 2.22739701 5.93798263 2.22739701 7 0 C7.66 0 8.32 0 9 0 C5.87822878 11.40221402 5.87822878 11.40221402 3 15 C2.01 15 1.02 15 0 15 C0 14.34 0 13.68 0 13 C0.99 13 1.98 13 3 13 C2.690625 11.783125 2.38125 10.56625 2.0625 9.3125 C1.28842823 6.2217028 0.58737312 3.13265666 0 0 Z " fill="#1B7649" transform="translate(119,133)"/>
<path d="M0 0 C0.78375 0.04125 1.5675 0.0825 2.375 0.125 C3.035 1.445 3.695 2.765 4.375 4.125 C1.405 3.63 1.405 3.63 -1.625 3.125 C-1.625 4.775 -1.625 6.425 -1.625 8.125 C-0.305 8.455 1.015 8.785 2.375 9.125 C2.375 8.465 2.375 7.805 2.375 7.125 C3.035 7.125 3.695 7.125 4.375 7.125 C3.715 8.445 3.055 9.765 2.375 11.125 C0 11.25 0 11.25 -2.625 11.125 C-4.625 9.125 -4.625 9.125 -4.875 5.625 C-4.58138251 1.51435512 -4.25902123 0.20281053 0 0 Z " fill="#155BE7" transform="translate(1365.625,132.875)"/>
<path d="M0 0 C0.33 0.66 0.66 1.32 1 2 C3.64 2 6.28 2 9 2 C9 2.33 9 2.66 9 3 C7.35 3.33 5.7 3.66 4 4 C4 4.99 4 5.98 4 7 C6.64 6.67 9.28 6.34 12 6 C11 9 11 9 9 10 C3.78346028 10.44396083 3.78346028 10.44396083 1.125 8.9375 C-0.58196395 5.99772876 -0.18799766 3.32129197 0 0 Z " fill="#EBEBE3" transform="translate(755,118)"/>
<path d="M0 0 C0.66 2.97 1.32 5.94 2 9 C1.01 9.33 0.02 9.66 -1 10 C-1 9.34 -1 8.68 -1 8 C-3.31 8 -5.62 8 -8 8 C-6.77178324 4.87363007 -3.80145145 0 0 0 Z " fill="#33302F" transform="translate(530,118)"/>
<path d="M0 0 C5.45454545 -0.36363636 5.45454545 -0.36363636 7.875 1.25 C9 3 9 3 9 7 C8.46375 6.855625 7.9275 6.71125 7.375 6.5625 C4.60084173 5.90546252 1.81474612 5.44780052 -1 5 C-0.67 3.35 -0.34 1.7 0 0 Z " fill="#F2EDE1" transform="translate(534,115)"/>
<path d="M0 0 C2.31 0 4.62 0 7 0 C7 0.33 7 0.66 7 1 C5.35 1 3.7 1 2 1 C2 2.65 2 4.3 2 6 C3.65 6 5.3 6 7 6 C7 6.33 7 6.66 7 7 C5.35 7 3.7 7 2 7 C2 9.31 2 11.62 2 14 C3.65 14 5.3 14 7 14 C7 14.33 7 14.66 7 15 C4.69 15 2.38 15 0 15 C0 10.05 0 5.1 0 0 Z " fill="#106BF1" transform="translate(1175,129)"/>
<path d="M0 0 C2.875 -0.125 2.875 -0.125 6 0 C8 2 8 2 8.3125 5.9375 C8.23719217 8.53091352 8.15247863 9.74319388 6.8125 12 C4.44004321 13.30894168 2.6664882 13.21620175 0 13 C0 12.34 0 11.68 0 11 C1.65 10.34 3.3 9.68 5 9 C5.41870553 6.66928121 5.41870553 6.66928121 5 4 C2.60140956 1.66369252 2.60140956 1.66369252 0 0 Z " fill="#EEF3ED" transform="translate(731,115)"/>
<path d="M0 0 C0.99 0 1.98 0 3 0 C5.125 6.75 5.125 6.75 4 9 C2.35 9 0.7 9 -1 9 C-1.80967438 6.08517222 -2.21845993 4.53886783 -1.0625 1.6875 C-0.711875 1.130625 -0.36125 0.57375 0 0 Z " fill="#1D5C3E" transform="translate(86,129)"/>
<path d="M0 0 C1.32 0.33 2.64 0.66 4 1 C4 2.65 4 4.3 4 6 C3.67 6 3.34 6 3 6 C2.67 8.97 2.34 11.94 2 15 C1.34 15 0.68 15 0 15 C0 10.05 0 5.1 0 0 Z " fill="#1461F3" transform="translate(1786,129)"/>
<path d="M0 0 C0.66 0 1.32 0 2 0 C2 1.32 2 2.64 2 4 C3.32 4.33 4.64 4.66 6 5 C5.01 5.66 4.02 6.32 3 7 C2.74984127 10.58357241 2.74984127 10.58357241 3 14 C2.01 14.33 1.02 14.66 0 15 C0 10.05 0 5.1 0 0 Z " fill="#1461ED" transform="translate(1210,129)"/>
<path d="M0 0 C0.66 0 1.32 0 2 0 C2 1.32 2 2.64 2 4 C3.32 4.33 4.64 4.66 6 5 C5.01 5.66 4.02 6.32 3 7 C2.74984127 10.58357241 2.74984127 10.58357241 3 14 C2.01 14.33 1.02 14.66 0 15 C0 10.05 0 5.1 0 0 Z " fill="#1461ED" transform="translate(1199,129)"/>
<path d="M0 0 C0.66 0 1.32 0 2 0 C2 1.32 2 2.64 2 4 C2.66 4 3.32 4 4 4 C4 4.66 4 5.32 4 6 C3.34 6 2.68 6 2 6 C2 8.31 2 10.62 2 13 C2.66 13 3.32 13 4 13 C4 13.66 4 14.32 4 15 C2.68 15 1.36 15 0 15 C-0.19601608 13.25093341 -0.38147403 11.50068154 -0.5625 9.75 C-0.66691406 8.77546875 -0.77132813 7.8009375 -0.87890625 6.796875 C-0.98974468 4.2368648 -0.77738092 2.41851841 0 0 Z " fill="#145DDA" transform="translate(1372,129)"/>
<path d="M0 0 C0.99 0.33 1.98 0.66 3 1 C3 1.66 3 2.32 3 3 C7.42664564 3.30495485 7.42664564 3.30495485 11.375 1.5 C12.179375 0.7575 12.179375 0.7575 13 0 C12.125 4.875 12.125 4.875 11 6 C3.71608392 6.46993007 3.71608392 6.46993007 1 4.6875 C0 3 0 3 0 0 Z " fill="#EBEFEB" transform="translate(711,122)"/>
<path d="M0 0 C0.99 0 1.98 0 3 0 C3 4.29 3 8.58 3 13 C2.01 13 1.02 13 0 13 C0 8.71 0 4.42 0 0 Z " fill="#D6E1DF" transform="translate(513,115)"/>
<path d="M0 0 C1.98 0 3.96 0 6 0 C6 0.66 6 1.32 6 2 C5.01 2 4.02 2 3 2 C3 4.97 3 7.94 3 11 C2.01 11 1.02 11 0 11 C0 7.37 0 3.74 0 0 Z " fill="#1751D0" transform="translate(1813,133)"/>
<path d="M0 0 C1.67542976 0.28604898 3.34385343 0.61781233 5 1 C5 2.65 5 4.3 5 6 C3.35 6.33 1.7 6.66 0 7 C-0.38133299 5.0085944 -0.71325582 3.00720923 -1 1 C-0.67 0.67 -0.34 0.34 0 0 Z " fill="#1F2836" transform="translate(1425,135)"/>
<path d="M0 0 C1.67542976 0.28604898 3.34385343 0.61781233 5 1 C5 2.65 5 4.3 5 6 C3.35 6.33 1.7 6.66 0 7 C-0.38133299 5.0085944 -0.71325582 3.00720923 -1 1 C-0.67 0.67 -0.34 0.34 0 0 Z " fill="#1F2836" transform="translate(1258,135)"/>
<path d="M0 0 C0.99 0 1.98 0 3 0 C3 4.95 3 9.9 3 15 C2.34 15 1.68 15 1 15 C0.67 10.05 0.34 5.1 0 0 Z " fill="#1268EC" transform="translate(1797,129)"/>
<path d="M0 0 C0.33 0 0.66 0 1 0 C1 2.31 1 4.62 1 7 C0.67 6.34 0.34 5.68 0 5 C-0.556875 5.350625 -1.11375 5.70125 -1.6875 6.0625 C-4.53886783 7.21845993 -6.08517222 6.80967438 -9 6 C-9 5.01 -9 4.02 -9 3 C-6.03 3 -3.06 3 0 3 C0 2.01 0 1.02 0 0 Z " fill="#3C2F2B" transform="translate(753,119)"/>
<path d="M0 0 C0.99 0.66 1.98 1.32 3 2 C3 2.99 3 3.98 3 5 C1.88625 4.505 1.88625 4.505 0.75 4 C-2.13883312 2.77217129 -2.13883312 2.77217129 -6 3 C-6.66 3.99 -7.32 4.98 -8 6 C-8.33 4.35 -8.66 2.7 -9 1 C-5.98131566 -0.50934217 -3.32702771 -0.17510672 0 0 Z " fill="#E8EDE9" transform="translate(721,110)"/>
<path d="M0 0 C1.32 0 2.64 0 4 0 C4 2.31 4 4.62 4 7 C2.35 6.67 0.7 6.34 -1 6 C-1.042721 4.33388095 -1.04063832 2.66617115 -1 1 C-0.67 0.67 -0.34 0.34 0 0 Z " fill="#1F262D" transform="translate(1864,135)"/>
<path d="M0 0 C2.475 0.495 2.475 0.495 5 1 C5 2.65 5 4.3 5 6 C3.35 6.33 1.7 6.66 0 7 C0 4.69 0 2.38 0 0 Z " fill="#1F2733" transform="translate(1822,135)"/>
<path d="M0 0 C2.475 0.495 2.475 0.495 5 1 C5 2.65 5 4.3 5 6 C3.35 6.33 1.7 6.66 0 7 C0 4.69 0 2.38 0 0 Z " fill="#202630" transform="translate(1722,135)"/>
<path d="M0 0 C2.475 0.495 2.475 0.495 5 1 C5 2.65 5 4.3 5 6 C3.35 6.33 1.7 6.66 0 7 C0 4.69 0 2.38 0 0 Z " fill="#202630" transform="translate(1586,135)"/>
<path d="M0 0 C2.475 0.495 2.475 0.495 5 1 C5 2.65 5 4.3 5 6 C3.35 6.33 1.7 6.66 0 7 C0 4.69 0 2.38 0 0 Z " fill="#202630" transform="translate(1545,135)"/>
<path d="M0 0 C1.32 0 2.64 0 4 0 C4 2.31 4 4.62 4 7 C2.35 6.67 0.7 6.34 -1 6 C-1.042721 4.33388095 -1.04063832 2.66617115 -1 1 C-0.67 0.67 -0.34 0.34 0 0 Z " fill="#1F262D" transform="translate(1384,135)"/>
<path d="M0 0 C0.99 0 1.98 0 3 0 C3 3.63 3 7.26 3 11 C2.01 11 1.02 11 0 11 C0 7.37 0 3.74 0 0 Z " fill="#1551CF" transform="translate(1538,133)"/>
<path d="M0 0 C2.0625 0.4375 2.0625 0.4375 4 1 C4 2.65 4 4.3 4 6 C2.0625 6.5625 2.0625 6.5625 0 7 C-1 6 -1 6 -1.125 3.5 C-1 1 -1 1 0 0 Z " fill="#20252D" transform="translate(1213,135)"/>
<path d="M0 0 C2.0625 0.4375 2.0625 0.4375 4 1 C4 2.65 4 4.3 4 6 C2.0625 6.5625 2.0625 6.5625 0 7 C-1 6 -1 6 -1.125 3.5 C-1 1 -1 1 0 0 Z " fill="#20252D" transform="translate(1202,135)"/>
<path d="M0 0 C3.3 0 6.6 0 10 0 C9.67 0.99 9.34 1.98 9 3 C6.36 3.33 3.72 3.66 1 4 C0.67 2.68 0.34 1.36 0 0 Z " fill="#2A292E" transform="translate(758,122)"/>
<path d="M0 0 C1.98 0 3.96 0 6 0 C6 1.65 6 3.3 6 5 C4.02 5 2.04 5 0 5 C0 3.35 0 1.7 0 0 Z " fill="#20252F" transform="translate(1177,137)"/>
<path d="M0 0 C1.98 0 3.96 0 6 0 C6 1.65 6 3.3 6 5 C4.02 5 2.04 5 0 5 C0 3.35 0 1.7 0 0 Z " fill="#D9D9DA" transform="translate(1076,30)"/>
<path d="M0 0 C1.98 0 3.96 0 6 0 C6 1.65 6 3.3 6 5 C4.02 5 2.04 5 0 5 C0 3.35 0 1.7 0 0 Z " fill="#D9D9DA" transform="translate(860,30)"/>
<path d="M0 0 C1.98 0 3.96 0 6 0 C6 0.66 6 1.32 6 2 C4.68 2 3.36 2 2 2 C2 4.97 2 7.94 2 11 C1.34 11 0.68 11 0 11 C0 7.37 0 3.74 0 0 Z " fill="#1C764A" transform="translate(95,133)"/>
<path d="M0 0 C3.0625 -0.25 3.0625 -0.25 6 0 C7 1 7 1 7.09765625 3.28515625 C7.08605469 4.20167969 7.07445313 5.11820313 7.0625 6.0625 C7.05347656 6.98160156 7.04445313 7.90070313 7.03515625 8.84765625 C7.02355469 9.55792969 7.01195313 10.26820313 7 11 C4.70986347 7.5647952 4.82157027 6.014669 5 2 C2.69 2.33 0.38 2.66 -2 3 C-1.34 2.01 -0.68 1.02 0 0 Z " fill="#1B7B48" transform="translate(110,133)"/>
<path d="M0 0 C0.66 0 1.32 0 2 0 C2 5.94 2 11.88 2 18 C1.01 17.67 0.02 17.34 -1 17 C-0.67 16.34 -0.34 15.68 0 15 C0.0716735 12.44842345 0.09308442 9.92527029 0.0625 7.375 C0.05573242 6.31539063 0.05573242 6.31539063 0.04882812 5.234375 C0.03703875 3.48954725 0.01910324 1.744763 0 0 Z " fill="#FAFEF6" transform="translate(778,110)"/>
<path d="M0 0 C2.86724686 0.57344937 3.8614515 0.8614515 6 3 C5.67 3.99 5.34 4.98 5 6 C4.67 5.67 4.34 5.34 4 5 C2.00041636 4.95919217 -0.00045254 4.95745644 -2 5 C-1.34 3.35 -0.68 1.7 0 0 Z " fill="#18459A" transform="translate(1519,133)"/>
<path d="M0 0 C0.66 0 1.32 0 2 0 C2 0.66 2 1.32 2 2 C4.64 2 7.28 2 10 2 C10 2.66 10 3.32 10 4 C6.37 4 2.74 4 -1 4 C-0.67 2.68 -0.34 1.36 0 0 Z " fill="#F4F8FB" transform="translate(519,124)"/>
<path d="M0 0 C1.65 0 3.3 0 5 0 C4.34 0.66 3.68 1.32 3 2 C2.53993654 4.20250992 2.53993654 4.20250992 2.375 6.625 C2.30023438 7.44226563 2.22546875 8.25953125 2.1484375 9.1015625 C2.09945312 9.72804687 2.05046875 10.35453125 2 11 C1.34 11 0.68 11 0 11 C0 7.37 0 3.74 0 0 Z " fill="#1B7B4A" transform="translate(102,133)"/>
<path d="M0 0 C1.98 0 3.96 0 6 0 C6.33 1.32 6.66 2.64 7 4 C4.36 3.67 1.72 3.34 -1 3 C-0.67 2.01 -0.34 1.02 0 0 Z " fill="#194398" transform="translate(1834,135)"/>
<path d="M0 0 C1.98 0 3.96 0 6 0 C6.33 1.32 6.66 2.64 7 4 C4.36 3.67 1.72 3.34 -1 3 C-0.67 2.01 -0.34 1.02 0 0 Z " fill="#194398" transform="translate(1805,135)"/>
<path d="M0 0 C1.98 0 3.96 0 6 0 C6.33 1.32 6.66 2.64 7 4 C4.36 3.67 1.72 3.34 -1 3 C-0.67 2.01 -0.34 1.02 0 0 Z " fill="#194398" transform="translate(1353,135)"/>
<path d="M0 0 C1.98 0 3.96 0 6 0 C6.33 1.32 6.66 2.64 7 4 C4.36 3.67 1.72 3.34 -1 3 C-0.67 2.01 -0.34 1.02 0 0 Z " fill="#194398" transform="translate(1228,135)"/>
<path d="M0 0 C0.99 0.33 1.98 0.66 3 1 C1.875 2.5 1.875 2.5 0 4 C-3.09501208 4.25265405 -5.20129973 4.39935013 -8 3 C-8 2.34 -8 1.68 -8 1 C-6.865625 1.020625 -5.73125 1.04125 -4.5625 1.0625 C-1.18424326 1.41577477 -1.18424326 1.41577477 0 0 Z " fill="#EDEEE9" transform="translate(540,124)"/>
<path d="M0 0 C5.5 -0.36666667 5.5 -0.36666667 7.875 1.375 C9 3 9 3 9 5 C8.01 5 7.02 5 6 5 C6 4.34 6 3.68 6 3 C3.69 2.67 1.38 2.34 -1 2 C-0.67 1.34 -0.34 0.68 0 0 Z " fill="#EEEEE8" transform="translate(501,110)"/>
<path d="M0 0 C1.65 0 3.3 0 5 0 C5 1.65 5 3.3 5 5 C3.35 5 1.7 5 0 5 C0 3.35 0 1.7 0 0 Z " fill="#EEEFEF" transform="translate(974,30)"/>
<path d="M0 0 C1.65 0 3.3 0 5 0 C5.33 1.65 5.66 3.3 6 5 C3.69 4.34 1.38 3.68 -1 3 C-0.67 2.01 -0.34 1.02 0 0 Z " fill="#1F2838" transform="translate(1851,131)"/>
<path d="M0 0 C0.99 0 1.98 0 3 0 C2.34 1.32 1.68 2.64 1 4 C-1.31 4 -3.62 4 -6 4 C-6 3.01 -6 2.02 -6 1 C-4.7934375 1.0309375 -4.7934375 1.0309375 -3.5625 1.0625 C-1.06645115 1.29633621 -1.06645115 1.29633621 0 0 Z " fill="#E6E8E3" transform="translate(750,124)"/>
<path d="M0 0 C0.99 1.485 0.99 1.485 2 3 C4.05925139 3.72382467 4.05925139 3.72382467 6 4 C6 3.34 6 2.68 6 2 C6.99 2 7.98 2 9 2 C8.34 3.32 7.68 4.64 7 6 C4.625 6.125 4.625 6.125 2 6 C1.34 5.34 0.68 4.68 0 4 C0 2.68 0 1.36 0 0 Z " fill="#145CE2" transform="translate(1681,138)"/>
<path d="M0 0 C0.94875 0.04125 1.8975 0.0825 2.875 0.125 C2.875 1.115 2.875 2.105 2.875 3.125 C0.565 3.125 -1.745 3.125 -4.125 3.125 C-4.125 4.775 -4.125 6.425 -4.125 8.125 C-4.455 8.125 -4.785 8.125 -5.125 8.125 C-5.25 5.25 -5.25 5.25 -5.125 2.125 C-3.125 0.125 -3.125 0.125 0 0 Z " fill="#1852DE" transform="translate(1427.125,132.875)"/>
<path d="M0 0 C0.94875 0.04125 1.8975 0.0825 2.875 0.125 C2.875 1.115 2.875 2.105 2.875 3.125 C0.565 3.125 -1.745 3.125 -4.125 3.125 C-4.125 4.775 -4.125 6.425 -4.125 8.125 C-4.455 8.125 -4.785 8.125 -5.125 8.125 C-5.25 5.25 -5.25 5.25 -5.125 2.125 C-3.125 0.125 -3.125 0.125 0 0 Z " fill="#1852DE" transform="translate(1260.125,132.875)"/>
<path d="M0 0 C1.65 0 3.3 0 5 0 C5.33 1.65 5.66 3.3 6 5 C4.02 4.34 2.04 3.68 0 3 C0 2.01 0 1.02 0 0 Z " fill="#202639" transform="translate(1245,131)"/>
<path d="M0 0 C2 3 2 3 2 6 C2.66 6 3.32 6 4 6 C4 6.66 4 7.32 4 8 C3.34 8 2.68 8 2 8 C1.67 8.99 1.34 9.98 1 11 C0.63743142 9.5437328 0.28520207 8.08488815 -0.0625 6.625 C-0.35833984 5.40683594 -0.35833984 5.40683594 -0.66015625 4.1640625 C-1 2 -1 2 0 0 Z " fill="#184CCC" transform="translate(1790,133)"/>
<path d="M0 0 C3.625 0.375 3.625 0.375 7 1 C7 1.33 7 1.66 7 2 C4.36 2.33 1.72 2.66 -1 3 C-1 4.98 -1 6.96 -1 9 C-1.33 9 -1.66 9 -2 9 C-2.125 5.625 -2.125 5.625 -2 2 C-1.34 1.34 -0.68 0.68 0 0 Z " fill="#1756E3" transform="translate(1833,133)"/>
<path d="M0 0 C3.625 0.375 3.625 0.375 7 1 C7 1.33 7 1.66 7 2 C4.36 2.33 1.72 2.66 -1 3 C-1 4.98 -1 6.96 -1 9 C-1.33 9 -1.66 9 -2 9 C-2.125 5.625 -2.125 5.625 -2 2 C-1.34 1.34 -0.68 0.68 0 0 Z " fill="#1756E3" transform="translate(1804,133)"/>
<path d="M0 0 C3.625 0.375 3.625 0.375 7 1 C7 1.33 7 1.66 7 2 C4.36 2.33 1.72 2.66 -1 3 C-1 4.98 -1 6.96 -1 9 C-1.33 9 -1.66 9 -2 9 C-2.125 5.625 -2.125 5.625 -2 2 C-1.34 1.34 -0.68 0.68 0 0 Z " fill="#1756E3" transform="translate(1352,133)"/>
<path d="M0 0 C3.625 0.375 3.625 0.375 7 1 C7 1.33 7 1.66 7 2 C4.36 2.33 1.72 2.66 -1 3 C-1 4.98 -1 6.96 -1 9 C-1.33 9 -1.66 9 -2 9 C-2.125 5.625 -2.125 5.625 -2 2 C-1.34 1.34 -0.68 0.68 0 0 Z " fill="#1756E3" transform="translate(1227,133)"/>
<path d="M0 0 C2.875 -0.125 2.875 -0.125 6 0 C8 2 8 2 8 5 C7.34 5 6.68 5 6 5 C5.67 4.34 5.34 3.68 5 3 C3.02 3 1.04 3 -1 3 C-0.67 2.01 -0.34 1.02 0 0 Z " fill="#1261ED" transform="translate(1324,129)"/>
<path d="M0 0 C2.375 -0.125 2.375 -0.125 5 0 C5.66 0.66 6.32 1.32 7 2 C6.625 4.125 6.625 4.125 6 6 C3.96166576 4.7260411 1.96147874 3.38938077 0 2 C0 1.34 0 0.68 0 0 Z " fill="#EDF1F0" transform="translate(503,118)"/>
<path d="M0 0 C0.33 0 0.66 0 1 0 C1.33 2.31 1.66 4.62 2 7 C-0.31 7.33 -2.62 7.66 -5 8 C-5 7.01 -5 6.02 -5 5 C-3.35 5.33 -1.7 5.66 0 6 C0 4.02 0 2.04 0 0 Z " fill="#1751DA" transform="translate(1868,136)"/>
<path d="M0 0 C0.33 0 0.66 0 1 0 C1.33 2.31 1.66 4.62 2 7 C-0.31 7.33 -2.62 7.66 -5 8 C-5 7.01 -5 6.02 -5 5 C-3.35 5.33 -1.7 5.66 0 6 C0 4.02 0 2.04 0 0 Z " fill="#1751DA" transform="translate(1388,136)"/>
<path d="M0 0 C0.33 0.99 0.66 1.98 1 3 C2.98 3 4.96 3 7 3 C7 3.33 7 3.66 7 4 C5.02 4 3.04 4 1 4 C0.67 5.32 0.34 6.64 0 8 C-0.66 8 -1.32 8 -2 8 C-1.47731534 5.23723823 -0.89130413 2.6739124 0 0 Z " fill="#1C7349" transform="translate(83,136)"/>
<path d="M0 0 C0 0.99 0 1.98 0 3 C-1.65 2.67 -3.3 2.34 -5 2 C-5 3.65 -5 5.3 -5 7 C-7 3.25 -7 3.25 -7 1 C-4.53721199 -0.231394 -2.7204945 -0.07159196 0 0 Z " fill="#1457D4" transform="translate(1727,133)"/>
<path d="M0 0 C0 0.99 0 1.98 0 3 C-1.65 2.67 -3.3 2.34 -5 2 C-5 3.65 -5 5.3 -5 7 C-7 3.25 -7 3.25 -7 1 C-4.53721199 -0.231394 -2.7204945 -0.07159196 0 0 Z " fill="#1457D4" transform="translate(1591,133)"/>
<path d="M0 0 C0 0.99 0 1.98 0 3 C-1.65 2.67 -3.3 2.34 -5 2 C-5 3.65 -5 5.3 -5 7 C-7 3.25 -7 3.25 -7 1 C-4.53721199 -0.231394 -2.7204945 -0.07159196 0 0 Z " fill="#1457D4" transform="translate(1550,133)"/>
<path d="M0 0 C1.65 0 3.3 0 5 0 C5 1.32 5 2.64 5 4 C3.35 4 1.7 4 0 4 C0 2.68 0 1.36 0 0 Z " fill="#20252D" transform="translate(1177,131)"/>
<path d="M0 0 C0.33 0 0.66 0 1 0 C1 4.95 1 9.9 1 15 C0.01 14.67 -0.98 14.34 -2 14 C-2 13.34 -2 12.68 -2 12 C-1.34 12 -0.68 12 0 12 C0 8.04 0 4.08 0 0 Z " fill="#19864C" transform="translate(48,129)"/>
<path d="M0 0 C0.99 0 1.98 0 3 0 C5 3 5 3 5 6 C3.0625 5.25 3.0625 5.25 1 4 C0.25 1.875 0.25 1.875 0 0 Z " fill="#D7E2E2" transform="translate(496,122)"/>
<path d="M0 0 C0.33 0.66 0.66 1.32 1 2 C3.64 2 6.28 2 9 2 C9 2.33 9 2.66 9 3 C7.329375 3.433125 7.329375 3.433125 5.625 3.875 C1.99708908 4.69241329 1.99708908 4.69241329 0 7 C0 4.69 0 2.38 0 0 Z " fill="#E6F5FB" transform="translate(755,118)"/>
<path d="M0 0 C1.32 0 2.64 0 4 0 C4.08096803 1.45742463 4.13917774 2.91612807 4.1875 4.375 C4.22230469 5.18710938 4.25710938 5.99921875 4.29296875 6.8359375 C4.19628906 7.55007812 4.09960938 8.26421875 4 9 C3.01 9.66 2.02 10.32 1 11 C1.32552083 9.01432292 1.65104167 7.02864583 1.9765625 5.04296875 C2.19577848 2.68244176 2.19577848 2.68244176 0 0 Z " fill="#DCF1FB" transform="translate(775,116)"/>
<path d="M0 0 C0.33 0.66 0.66 1.32 1 2 C2.97888961 2.72693904 4.97954558 3.39816251 7 4 C7 4.33 7 4.66 7 5 C5.02 5 3.04 5 1 5 C0.67 3.35 0.34 1.7 0 0 Z " fill="#1163EF" transform="translate(1849,132)"/>
<path d="M0 0 C2.4375 0.375 2.4375 0.375 5 1 C5.33 1.66 5.66 2.32 6 3 C3.69 3 1.38 3 -1 3 C-0.67 2.01 -0.34 1.02 0 0 Z " fill="#39393C" transform="translate(745,117)"/>
<path d="M0 0 C1.65 0.33 3.3 0.66 5 1 C5 1.66 5 2.32 5 3 C2.69 3 0.38 3 -2 3 C-1.34 2.01 -0.68 1.02 0 0 Z " fill="#36373C" transform="translate(535,117)"/>
<path d="M0 0 C1.98 0 3.96 0 6 0 C6.66 1.32 7.32 2.64 8 4 C4.64404172 3.40072174 2.62198774 2.15377564 0 0 Z " fill="#E3E3DB" transform="translate(731,115)"/>
</svg>
